<svg width="332" height="231" viewBox="0 0 332 231" fill="none" xmlns="http://www.w3.org/2000/svg">
<path d="M332 217.394H0V217.56H332V217.394Z" fill="#EBEBEB"/>
<path d="M298.734 228.078H276.742V228.244H298.734V228.078Z" fill="#EBEBEB"/>
<path d="M219.93 229.884H214.16V230.05H219.93V229.884Z" fill="#EBEBEB"/>
<path d="M276.078 221.916H263.336V222.082H276.078V221.916Z" fill="#EBEBEB"/>
<path d="M63.5117 223.031H34.8335V223.197H63.5117V223.031Z" fill="#EBEBEB"/>
<path d="M73.6311 223.031H69.428V223.197H73.6311V223.031Z" fill="#EBEBEB"/>
<path d="M149.5 225.833H87.2961V225.999H149.5V225.833Z" fill="#EBEBEB"/>
<path d="M157.368 187.779H29.1564C28.152 187.777 27.1893 187.377 26.4797 186.666C25.7701 185.956 25.3716 184.992 25.3716 183.988V3.75824C25.3803 2.7596 25.7827 1.80474 26.4914 1.10106C27.2 0.397376 28.1577 0.00171072 29.1564 0H157.368C158.374 0 159.338 0.399454 160.049 1.11049C160.76 1.82152 161.16 2.78589 161.16 3.79144V183.988C161.16 184.993 160.76 185.958 160.049 186.669C159.338 187.38 158.374 187.779 157.368 187.779ZM29.1564 0.132801C28.196 0.134559 27.2756 0.517299 26.5971 1.19701C25.9186 1.87672 25.5376 2.79786 25.5376 3.75824V183.988C25.5376 184.948 25.9186 185.869 26.5971 186.549C27.2756 187.229 28.196 187.611 29.1564 187.613H157.368C158.329 187.611 159.25 187.229 159.93 186.549C160.609 185.87 160.992 184.949 160.994 183.988V3.75824C160.992 2.79725 160.609 1.87613 159.93 1.19661C159.25 0.517084 158.329 0.134556 157.368 0.132801H29.1564Z" fill="#EBEBEB"/>
<path d="M300.998 187.779H172.779C171.774 187.777 170.811 187.377 170.1 186.667C169.39 185.956 168.99 184.993 168.988 183.988V3.75824C168.999 2.759 169.402 1.80414 170.112 1.10064C170.822 0.397144 171.78 0.00169206 172.779 0H300.998C301.995 0.00345579 302.951 0.399893 303.659 1.10339C304.366 1.80688 304.767 2.76075 304.776 3.75824V183.988C304.776 184.991 304.378 185.953 303.67 186.664C302.962 187.375 302.001 187.776 300.998 187.779ZM172.779 0.132801C171.818 0.134556 170.897 0.517084 170.218 1.19661C169.538 1.87613 169.156 2.79725 169.154 3.75824V183.988C169.156 184.949 169.538 185.87 170.218 186.549C170.897 187.229 171.818 187.611 172.779 187.613H300.998C301.959 187.611 302.88 187.229 303.56 186.549C304.239 185.87 304.622 184.949 304.623 183.988V3.75824C304.622 2.79725 304.239 1.87613 303.56 1.19661C302.88 0.517084 301.959 0.134556 300.998 0.132801H172.779Z" fill="#EBEBEB"/>
<path d="M177.806 217.394H201.112V130.589H177.806V217.394Z" fill="#E6E6E6"/>
<path d="M181.684 217.393H177.806V209.578H185.754L181.684 217.393Z" fill="#F0F0F0"/>
<path d="M272.665 217.394H295.971V130.589H272.665V217.394Z" fill="#E6E6E6"/>
<path d="M177.806 214.393H276.051V130.589H177.806V214.393Z" fill="#F0F0F0"/>
<path d="M180.82 157.282H273.043V134.301H180.82V157.282Z" fill="#E6E6E6"/>
<path d="M222.573 141.432H231.285C235.069 141.432 238.688 138.597 241.291 133.59H212.566C215.169 138.61 218.788 141.432 222.573 141.432Z" fill="#F0F0F0"/>
<path d="M272.174 217.393H276.051V209.578H268.103L272.174 217.393Z" fill="#F0F0F0"/>
<path d="M180.82 183.981H273.043V161H180.82V183.981Z" fill="#E6E6E6"/>
<path d="M222.573 168.139H231.285C235.069 168.139 238.688 165.303 241.291 160.297H212.566C215.169 165.337 218.788 168.139 222.573 168.139Z" fill="#F0F0F0"/>
<path d="M180.82 210.681H273.043V187.7H180.82V210.681Z" fill="#E6E6E6"/>
<path d="M222.573 194.838H231.285C235.069 194.838 238.688 192.003 241.291 186.996H212.566C215.169 192.003 218.788 194.838 222.573 194.838Z" fill="#F0F0F0"/>
<path d="M51.7855 110.901L140.788 110.901V20.843L51.7855 20.843L51.7855 110.901Z" fill="#E6E6E6"/>
<path d="M45.6036 110.901L139.148 110.901V20.843L45.6036 20.843L45.6036 110.901Z" fill="#F0F0F0"/>
<path d="M131.319 103.067V28.6787L53.452 28.6787V103.067H131.319Z" fill="white"/>
<path d="M91.8446 38.5122L77.5553 52.8281C74.1022 56.2897 72.1631 60.9796 72.1631 65.869C72.1631 70.7585 74.1022 75.4483 77.5553 78.91L91.8446 93.2059C91.9142 93.2758 91.997 93.3312 92.0882 93.369C92.1793 93.4068 92.2771 93.4263 92.3757 93.4263C92.4744 93.4263 92.5722 93.4068 92.6633 93.369C92.7545 93.3312 92.8372 93.2758 92.9069 93.2059L107.203 78.91C110.656 75.4483 112.595 70.7585 112.595 65.869C112.595 60.9796 110.656 56.2897 107.203 52.8281L92.9136 38.5122C92.7708 38.3723 92.5789 38.2939 92.3791 38.2939C92.1792 38.2939 91.9873 38.3723 91.8446 38.5122ZM78.6177 77.821C75.4473 74.642 73.6669 70.3355 73.6669 65.8458C73.6669 61.3561 75.4473 57.0496 78.6177 53.8705V77.821ZM106.14 77.821V53.8971C109.311 57.0761 111.091 61.3826 111.091 65.8723C111.091 70.3621 109.311 74.6686 106.14 77.8476V77.821Z" fill="#F0F0F0"/>
<path d="M270.148 99.6001H220.421L217.586 128.962H267.313L270.148 99.6001Z" fill="#E6E6E6"/>
<path d="M267.313 128.962L267.114 130.589H217.38L217.586 128.962H267.313Z" fill="#E6E6E6"/>
<path d="M268.621 99.6001H218.894L216.052 128.962H265.779L268.621 99.6001Z" fill="#F0F0F0"/>
<path d="M264.777 127.05L266.855 101.592C266.86 101.508 266.849 101.423 266.82 101.343C266.791 101.263 266.747 101.189 266.689 101.127C266.631 101.065 266.562 101.015 266.484 100.981C266.406 100.947 266.322 100.929 266.237 100.928H220.521C220.364 100.928 220.213 100.986 220.098 101.092C219.982 101.198 219.91 101.343 219.897 101.499L217.792 126.95C217.787 127.036 217.799 127.121 217.828 127.201C217.857 127.282 217.902 127.355 217.96 127.418C218.019 127.48 218.089 127.53 218.168 127.563C218.246 127.597 218.331 127.615 218.416 127.614H264.133C264.292 127.622 264.448 127.567 264.568 127.462C264.688 127.357 264.763 127.209 264.777 127.05Z" fill="white"/>
<path d="M252.825 128.962L252.626 130.589H197.865L198.065 128.962H252.825Z" fill="#F0F0F0"/>
<path d="M185.98 83.9033L279.358 83.9033V21.826L185.98 21.826V83.9033Z" fill="#E6E6E6"/>
<path d="M183.908 83.9033L277.286 83.9033V21.826L183.908 21.826V83.9033Z" fill="#F5F5F5"/>
<path d="M273.562 79.7199V26.0156L187.633 26.0156V79.7199H273.562Z" fill="white"/>
<path d="M189.194 79.7136V26.0093H187.627V79.7136H189.194Z" fill="#E6E6E6"/>
<path d="M185.449 72.5957L275.746 72.5957V66.9783L185.449 66.9783V72.5957Z" fill="#F5F5F5"/>
<path d="M179.845 14.9072H283.429C283.579 14.909 283.724 14.9697 283.83 15.0764C283.937 15.1831 283.998 15.3274 284 15.4783C284 15.6297 283.939 15.775 283.832 15.8821C283.725 15.9891 283.58 16.0493 283.429 16.0493H179.845C179.769 16.0502 179.694 16.0361 179.624 16.0078C179.554 15.9795 179.49 15.9375 179.436 15.8844C179.383 15.8313 179.34 15.7681 179.311 15.6983C179.282 15.6286 179.267 15.5538 179.267 15.4783C179.269 15.3262 179.33 15.181 179.438 15.0741C179.547 14.9672 179.692 14.9072 179.845 14.9072Z" fill="#E6E6E6"/>
<path d="M177.839 15.4777C177.839 15.7611 177.923 16.0381 178.08 16.2738C178.238 16.5096 178.461 16.6934 178.723 16.8021C178.985 16.9109 179.273 16.9397 179.551 16.8849C179.829 16.8301 180.084 16.6941 180.285 16.4942C180.486 16.2943 180.623 16.0393 180.679 15.7616C180.735 15.4838 180.708 15.1956 180.6 14.9334C180.493 14.6713 180.31 14.4468 180.075 14.2884C179.84 14.13 179.563 14.0448 179.28 14.0435C179.091 14.0426 178.904 14.079 178.729 14.1507C178.554 14.2224 178.395 14.3279 178.262 14.4612C178.128 14.5945 178.021 14.7529 177.949 14.9273C177.876 15.1018 177.839 15.2888 177.839 15.4777Z" fill="#E6E6E6"/>
<path d="M278.581 18.6917C278.785 18.6917 278.981 18.6117 279.126 18.4689C279.271 18.326 279.355 18.1318 279.358 17.9281V16.2681C279.358 16.062 279.276 15.8644 279.131 15.7188C278.985 15.5731 278.787 15.4912 278.581 15.4912C278.48 15.4912 278.379 15.5113 278.285 15.5505C278.191 15.5896 278.106 15.6469 278.034 15.7192C277.963 15.7914 277.906 15.8771 277.868 15.9713C277.829 16.0655 277.81 16.1664 277.811 16.2681V17.9281C277.815 18.1307 277.897 18.3239 278.041 18.4665C278.185 18.6092 278.379 18.69 278.581 18.6917Z" fill="#E6E6E6"/>
<path d="M188.49 18.6917C188.688 18.6833 188.876 18.5998 189.016 18.458C189.155 18.3162 189.235 18.1268 189.24 17.9281V16.2681C189.24 16.062 189.158 15.8644 189.012 15.7188C188.867 15.5731 188.669 15.4912 188.463 15.4912C188.361 15.4912 188.261 15.5113 188.167 15.5505C188.073 15.5896 187.988 15.6469 187.916 15.7192C187.845 15.7914 187.788 15.8771 187.75 15.9713C187.711 16.0655 187.692 16.1664 187.693 16.2681V17.9281C187.695 18.0307 187.717 18.1319 187.758 18.226C187.799 18.32 187.858 18.405 187.932 18.476C188.006 18.547 188.094 18.6026 188.189 18.6396C188.285 18.6766 188.387 18.6943 188.49 18.6917Z" fill="#E6E6E6"/>
<path opacity="0.4" d="M180.03 75.7891L275.746 75.7891V15.4779L180.03 15.4779V75.7891Z" fill="#E0E0E0"/>
<path d="M267.931 15.4777C267.931 15.7614 268.015 16.0387 268.172 16.2745C268.33 16.5104 268.554 16.6942 268.816 16.8028C269.078 16.9113 269.366 16.9397 269.645 16.8844C269.923 16.829 270.178 16.6924 270.379 16.4919C270.58 16.2913 270.716 16.0357 270.772 15.7575C270.827 15.4793 270.799 15.1909 270.69 14.9288C270.581 14.6668 270.398 14.4428 270.162 14.2852C269.926 14.1276 269.649 14.0435 269.365 14.0435C268.985 14.0435 268.62 14.1946 268.351 14.4635C268.082 14.7325 267.931 15.0973 267.931 15.4777Z" fill="#E6E6E6"/>
<path d="M132.468 213.091H140.144V146.512H132.468V213.091Z" fill="#F0F0F0"/>
<path d="M49.2025 217.308H137.196V213.091H49.2025V217.308Z" fill="#F0F0F0"/>
<path d="M132.468 146.512H46.2544V213.091H132.468V146.512Z" fill="#F5F5F5"/>
<path d="M121.705 154.706H57.0177C54.4067 154.706 52.29 156.822 52.29 159.433V171.81C52.29 174.421 54.4067 176.538 57.0177 176.538H121.705C124.316 176.538 126.432 174.421 126.432 171.81V159.433C126.432 156.822 124.316 154.706 121.705 154.706Z" fill="#F0F0F0"/>
<path d="M121.705 183.059H57.0177C54.4067 183.059 52.29 185.175 52.29 187.786V200.163C52.29 202.774 54.4067 204.891 57.0177 204.891H121.705C124.316 204.891 126.432 202.774 126.432 200.163V187.786C126.432 185.175 124.316 183.059 121.705 183.059Z" fill="#F0F0F0"/>
<path d="M73.299 167.123H105.423C105.82 167.123 106.201 166.965 106.482 166.685C106.763 166.405 106.922 166.025 106.924 165.629C106.922 165.231 106.764 164.85 106.482 164.569C106.201 164.288 105.821 164.13 105.423 164.128H73.299C72.9015 164.13 72.5208 164.288 72.2398 164.569C71.9588 164.85 71.8001 165.231 71.7983 165.629C71.8001 166.025 71.959 166.405 72.2402 166.685C72.5214 166.965 72.9021 167.123 73.299 167.123Z" fill="#F5F5F5"/>
<path d="M73.299 195.475H105.423C105.82 195.475 106.201 195.318 106.482 195.038C106.763 194.758 106.922 194.378 106.924 193.981C106.922 193.584 106.764 193.203 106.482 192.922C106.201 192.641 105.821 192.482 105.423 192.48H73.299C72.9015 192.482 72.5208 192.641 72.2398 192.922C71.9588 193.203 71.8001 193.584 71.7983 193.981C71.8001 194.378 71.959 194.758 72.2402 195.038C72.5214 195.318 72.9021 195.475 73.299 195.475Z" fill="#F5F5F5"/>
<path d="M200.442 20.3018H77.7349L87.2699 187.411H209.97L200.442 20.3018Z" fill="#263238"/>
<path d="M202.826 20.3018H80.1187L89.6537 187.411H212.361L202.826 20.3018Z" fill="#FF6600"/>
<path opacity="0.5" d="M194.373 25.9189H85.7295L93.5182 177.185H204.984L194.373 25.9189Z" fill="black"/>
<path d="M85.7295 25.9189C93.8037 76.3431 88.266 126.767 96.3535 177.185H207.806C199.732 126.767 205.269 76.3431 197.182 25.9189H85.7295Z" fill="white"/>
<g opacity="0.3">
<path opacity="0.3" d="M108.518 71.2441C110.979 71.2638 113.339 72.2274 115.111 73.936C116.883 75.6447 117.931 77.9682 118.04 80.4272C118.089 81.6101 117.898 82.7907 117.477 83.8971C117.055 85.0036 116.413 86.0127 115.59 86.8631C114.766 87.7135 113.778 88.3874 112.685 88.8437C111.593 89.3 110.419 89.5292 109.235 89.5174C106.789 89.4971 104.444 88.5362 102.688 86.8339C100.931 85.1315 99.8968 82.8184 99.7997 80.3741C99.7485 79.1947 99.9356 78.0171 100.35 76.9116C100.764 75.8061 101.397 74.7954 102.21 73.9399C103.026 73.0921 104.006 72.4193 105.091 71.9627C106.175 71.5061 107.341 71.2751 108.518 71.2839V71.2441ZM108.452 69.365C107.02 69.356 105.602 69.6391 104.284 70.1968C102.966 70.7546 101.776 71.5754 100.786 72.6089C99.7955 73.6425 99.0267 74.8672 98.5261 76.208C98.0255 77.5489 97.8036 78.9778 97.8741 80.4073C97.99 83.3584 99.2375 86.1517 101.358 88.2077C103.478 90.2637 106.308 91.4246 109.262 91.4496C110.699 91.4615 112.125 91.1814 113.451 90.6264C114.777 90.0713 115.977 89.2528 116.978 88.2204C117.979 87.188 118.759 85.9632 119.273 84.6202C119.786 83.2772 120.022 81.844 119.965 80.4073C119.823 77.4433 118.55 74.6467 116.408 72.5927C114.266 70.5387 111.419 69.3836 108.452 69.365Z" fill="#FF6600"/>
</g>
<path d="M170.144 154.078H134.952C134.689 154.073 134.427 154.125 134.186 154.23C133.944 154.334 133.727 154.489 133.55 154.684C133.373 154.878 133.239 155.109 133.158 155.359C133.077 155.61 133.05 155.875 133.079 156.136C133.143 156.696 133.408 157.214 133.824 157.593C134.241 157.973 134.78 158.189 135.344 158.201H170.536C170.799 158.206 171.06 158.154 171.302 158.049C171.544 157.944 171.76 157.789 171.936 157.593C172.113 157.397 172.245 157.166 172.324 156.914C172.403 156.663 172.427 156.398 172.395 156.136C172.332 155.579 172.07 155.063 171.656 154.685C171.242 154.306 170.705 154.09 170.144 154.078Z" fill="#E0E0E0"/>
<path d="M188.968 145.412H134.241C133.977 145.407 133.714 145.459 133.47 145.562C133.226 145.666 133.007 145.82 132.827 146.015C132.647 146.209 132.511 146.439 132.426 146.69C132.341 146.941 132.31 147.207 132.336 147.471C132.383 148.029 132.637 148.549 133.047 148.931C133.457 149.312 133.994 149.528 134.554 149.536H189.254C189.519 149.543 189.783 149.495 190.028 149.393C190.273 149.291 190.494 149.139 190.676 148.946C190.858 148.752 190.997 148.523 191.083 148.272C191.17 148.021 191.203 147.755 191.179 147.491C191.136 146.931 190.886 146.408 190.477 146.023C190.068 145.638 189.53 145.421 188.968 145.412Z" fill="#E0E0E0"/>
<g opacity="0.3">
<path opacity="0.3" d="M109.64 106.986C112.083 107.004 114.425 107.965 116.176 109.669C117.927 111.373 118.952 113.688 119.036 116.13C119.081 117.312 118.887 118.491 118.466 119.596C118.045 120.702 117.405 121.711 116.586 122.564C115.765 123.413 114.781 124.087 113.692 124.544C112.603 125 111.432 125.23 110.251 125.22C107.802 125.203 105.453 124.244 103.693 122.541C101.932 120.839 100.895 118.524 100.796 116.077C100.755 114.893 100.955 113.713 101.382 112.608C101.809 111.503 102.455 110.496 103.281 109.647C104.107 108.798 105.096 108.124 106.189 107.667C107.282 107.21 108.456 106.979 109.64 106.986ZM109.64 105.061C108.201 105.052 106.776 105.334 105.449 105.889C104.121 106.445 102.92 107.263 101.917 108.294C100.914 109.325 100.129 110.548 99.61 111.89C99.091 113.232 98.8483 114.665 98.8967 116.103C99.0145 119.062 100.269 121.862 102.398 123.92C104.528 125.978 107.369 127.136 110.331 127.152C111.765 127.158 113.186 126.873 114.507 126.314C115.829 125.756 117.023 124.936 118.019 123.904C119.015 122.871 119.791 121.648 120.302 120.307C120.812 118.966 121.045 117.536 120.988 116.103C120.889 113.153 119.652 110.356 117.536 108.298C115.421 106.24 112.592 105.08 109.64 105.061Z" fill="#FF6600"/>
</g>
<path d="M150.609 78.0966H131.784C131.231 78.092 130.701 77.8752 130.303 77.4909C129.905 77.1066 129.67 76.5842 129.646 76.0315C129.637 75.7644 129.682 75.4982 129.779 75.2488C129.875 74.9994 130.02 74.7719 130.206 74.5799C130.392 74.3878 130.614 74.2351 130.86 74.1309C131.107 74.0266 131.371 73.973 131.638 73.9731H150.456C151.01 73.9775 151.54 74.1929 151.94 74.5755C152.34 74.9581 152.579 75.4789 152.607 76.0315C152.617 76.2998 152.573 76.5672 152.477 76.8179C152.381 77.0685 152.235 77.2971 152.048 77.49C151.862 77.6828 151.638 77.836 151.39 77.9402C151.143 78.0445 150.877 78.0977 150.609 78.0966Z" fill="#E0E0E0"/>
<path d="M172.335 78.0966H159.586C159.032 78.0921 158.501 77.8755 158.102 77.4913C157.704 77.1072 157.467 76.5848 157.442 76.0315C157.433 75.7644 157.478 75.4982 157.574 75.2488C157.67 74.9994 157.815 74.7719 158.001 74.5799C158.187 74.3878 158.409 74.2351 158.656 74.1309C158.902 74.0266 159.166 73.973 159.434 73.9731H172.189C172.742 73.9776 173.272 74.1933 173.671 74.576C174.069 74.9587 174.307 75.4795 174.334 76.0315C174.344 76.2998 174.299 76.5672 174.203 76.8179C174.107 77.0685 173.961 77.2971 173.774 77.49C173.588 77.6828 173.364 77.836 173.117 77.9402C172.869 78.0445 172.603 78.0977 172.335 78.0966Z" fill="#E0E0E0"/>
<path d="M182.614 86.7611H132.083C131.53 86.7581 131 86.5416 130.603 86.1568C130.206 85.772 129.972 85.2487 129.952 84.6961C129.943 84.429 129.988 84.1628 130.084 83.9134C130.18 83.664 130.325 83.4365 130.511 83.2444C130.697 83.0523 130.92 82.8997 131.166 82.7954C131.412 82.6912 131.677 82.6375 131.944 82.6377H182.468C183.019 82.6407 183.548 82.8565 183.943 83.2401C184.339 83.6236 184.572 84.1452 184.592 84.6961C184.602 84.9626 184.558 85.2285 184.463 85.4778C184.369 85.7271 184.225 85.9547 184.04 86.1473C183.855 86.3399 183.634 86.4935 183.389 86.5989C183.144 86.7044 182.88 86.7595 182.614 86.7611Z" fill="#E0E0E0"/>
<g opacity="0.3">
<path opacity="0.3" d="M111.081 142.684C113.558 142.732 115.93 143.692 117.743 145.381C119.556 147.069 120.683 149.366 120.908 151.834C121.027 152.989 120.905 154.158 120.55 155.264C120.194 156.37 119.613 157.391 118.843 158.261C118.067 159.116 117.116 159.796 116.056 160.254C114.995 160.712 113.849 160.938 112.694 160.917C110.196 160.877 107.798 159.925 105.952 158.242C104.106 156.558 102.938 154.258 102.668 151.774C102.554 150.609 102.688 149.434 103.061 148.325C103.434 147.216 104.038 146.198 104.833 145.34C105.632 144.487 106.601 143.81 107.677 143.353C108.753 142.895 109.912 142.668 111.081 142.684ZM110.988 140.765C109.566 140.737 108.154 141.01 106.845 141.566C105.536 142.122 104.359 142.948 103.392 143.991C102.424 145.033 101.688 146.269 101.232 147.616C100.775 148.963 100.608 150.391 100.742 151.807C101.254 157.902 106.785 162.849 112.88 162.849C118.976 162.849 123.345 157.902 122.84 151.807C122.577 148.829 121.221 146.053 119.034 144.015C116.848 141.976 113.984 140.819 110.995 140.765H110.988Z" fill="#FF6600"/>
</g>
<path d="M191.246 118.361H132.94C132.673 118.361 132.408 118.414 132.162 118.519C131.916 118.623 131.693 118.776 131.507 118.968C131.321 119.16 131.176 119.387 131.08 119.637C130.984 119.886 130.939 120.152 130.948 120.419C130.972 120.97 131.206 121.491 131.603 121.874C131.999 122.257 132.528 122.473 133.079 122.478H191.412C191.679 122.478 191.944 122.424 192.19 122.32C192.436 122.216 192.658 122.063 192.844 121.871C193.03 121.679 193.175 121.451 193.272 121.202C193.368 120.953 193.413 120.686 193.404 120.419C193.383 119.863 193.146 119.336 192.743 118.952C192.34 118.567 191.803 118.355 191.246 118.361Z" fill="#E0E0E0"/>
<path d="M177.428 109.689H132.688C132.42 109.689 132.155 109.743 131.908 109.848C131.662 109.952 131.439 110.106 131.253 110.298C131.067 110.491 130.922 110.72 130.826 110.97C130.73 111.22 130.686 111.487 130.696 111.754C130.715 112.305 130.946 112.826 131.34 113.21C131.735 113.594 132.263 113.81 132.814 113.813H177.561C177.828 113.813 178.093 113.759 178.339 113.655C178.585 113.551 178.807 113.398 178.993 113.206C179.179 113.014 179.325 112.787 179.421 112.537C179.517 112.288 179.562 112.022 179.553 111.754C179.537 111.201 179.307 110.676 178.91 110.291C178.513 109.905 177.981 109.689 177.428 109.689Z" fill="#E0E0E0"/>
<path d="M109.527 86.8806L108.744 85.5924C107.024 82.7837 103.432 80.2804 102.197 79.5434L103.126 77.8967C105.565 79.373 107.738 81.2496 109.554 83.4477C112.376 79.6563 116.499 75.7586 122.084 71.5488L123.285 73.1026C117.309 77.5979 113.073 81.7346 110.357 85.6721C110.085 86.0771 109.806 86.4822 109.527 86.8806Z" fill="#FF6600"/>
<path d="M110.523 122.604C110.264 122.172 109.999 121.741 109.733 121.316C108.007 118.507 104.421 116.004 103.199 115.26L104.142 113.613C106.568 115.094 108.73 116.97 110.536 119.165C113.365 115.38 117.522 111.475 123.192 107.266L124.368 108.819C118.312 113.315 114.049 117.451 111.347 121.389L110.523 122.604Z" fill="#FF6600"/>
<path d="M112.801 158.407L111.924 157.119C110.012 154.31 106.307 151.807 105.032 151.07L105.895 149.423C108.404 150.91 110.665 152.781 112.595 154.967C115.198 151.183 119.155 147.278 124.653 143.075L125.895 144.629C120.025 149.124 115.995 153.261 113.544 157.198L112.801 158.407Z" fill="#FF6600"/>
<path d="M164.201 49.3252C164.244 49.7249 164.202 50.1292 164.077 50.5113C163.952 50.8934 163.747 51.2444 163.475 51.541C163.204 51.8375 162.873 52.0728 162.503 52.2312C162.133 52.3895 161.734 52.4673 161.332 52.4593C160.481 52.4425 159.665 52.1144 159.038 51.537C158.412 50.9596 158.019 50.1728 157.933 49.3252C157.887 48.9277 157.927 48.525 158.05 48.1442C158.173 47.7634 158.376 47.4132 158.645 47.1171C158.914 46.821 159.243 46.5858 159.61 46.4272C159.978 46.2687 160.375 46.1904 160.775 46.1977C161.629 46.2122 162.448 46.5379 163.079 47.1138C163.71 47.6896 164.109 48.476 164.201 49.3252Z" fill="white"/>
<path d="M146.505 39.9892C146.56 40.3843 146.529 40.7866 146.413 41.1683C146.297 41.5501 146.1 41.9021 145.835 42.2001C145.569 42.4981 145.243 42.735 144.877 42.8944C144.511 43.0538 144.115 43.1319 143.717 43.1233C142.858 43.1033 142.034 42.7761 141.396 42.2011C140.758 41.6261 140.347 40.8413 140.237 39.9892C140.178 39.5959 140.206 39.1944 140.318 38.8129C140.431 38.4314 140.625 38.0792 140.889 37.781C141.152 37.4829 141.477 37.2461 141.842 37.0873C142.207 36.9285 142.602 36.8515 142.999 36.8617C143.86 36.882 144.685 37.2078 145.328 37.7807C145.97 38.3537 146.387 39.1366 146.505 39.9892Z" fill="white"/>
<path d="M176.465 26.3506C174.393 21.9882 169.559 19.0998 164.347 19.0998H153.723C152.994 19.132 152.269 18.9708 151.621 18.6327C150.974 18.2945 150.428 17.7914 150.038 17.1742C148.557 14.3986 145.025 12.4199 141.014 12.4199C137.004 12.4199 133.71 14.4119 132.541 17.1742C132.057 18.3428 130.669 19.0998 129.075 19.0998H118.451C113.239 19.0998 108.73 21.9882 107.163 26.3506C107.105 26.5029 107.083 26.6664 107.097 26.8287C107.114 27.1693 107.261 27.4903 107.509 27.7251C107.756 27.96 108.084 28.0907 108.425 28.0903H175.409C175.614 28.0908 175.815 28.0384 175.994 27.9382C176.172 27.838 176.322 27.6934 176.428 27.5184C176.534 27.3434 176.593 27.144 176.6 26.9394C176.606 26.7348 176.56 26.532 176.465 26.3506ZM141.446 20.3016C140.653 20.2852 139.896 19.9729 139.322 19.4261C138.748 18.8793 138.399 18.1376 138.345 17.3468C138.318 16.9659 138.371 16.5837 138.499 16.2242C138.628 15.8647 138.829 15.5357 139.091 15.2581C139.354 14.9804 139.67 14.7601 140.022 14.6111C140.373 14.462 140.752 14.3874 141.134 14.392C141.931 14.4002 142.696 14.7091 143.276 15.2569C143.856 15.8046 144.208 16.551 144.261 17.3468C144.288 17.7299 144.235 18.1144 144.104 18.4758C143.974 18.8371 143.77 19.1674 143.505 19.4455C143.24 19.7235 142.92 19.9433 142.566 20.0907C142.211 20.2381 141.83 20.3099 141.446 20.3016Z" fill="#263238"/>
<path d="M132.77 51.8036V53.5054H126.672V51.8036H132.77ZM127.334 42.034V53.5054H125.167V42.034H127.334ZM131.975 46.7691V48.4315H126.672V46.7691H131.975ZM132.747 42.034V43.7437H126.672V42.034H132.747ZM135.748 44.9807L137.269 47.6909L138.813 44.9807H141.074L138.569 49.1564L141.177 53.5054H138.916L137.285 50.6612L135.646 53.5054H133.385L135.985 49.1564L133.495 44.9807H135.748ZM146.976 51.6933V47.7618C146.976 47.4729 146.926 47.2235 146.826 47.0134C146.726 46.8033 146.574 46.6404 146.369 46.5249C146.164 46.4093 145.904 46.3515 145.589 46.3515C145.311 46.3515 145.066 46.3988 144.856 46.4934C144.651 46.5879 144.494 46.7218 144.383 46.8952C144.273 47.0633 144.218 47.2576 144.218 47.4782H142.13C142.13 47.1263 142.214 46.7928 142.382 46.4776C142.55 46.1572 142.789 45.8736 143.099 45.6267C143.414 45.3746 143.79 45.1776 144.226 45.0358C144.667 44.894 145.161 44.8231 145.707 44.8231C146.353 44.8231 146.928 44.9334 147.432 45.154C147.942 45.3693 148.341 45.695 148.63 46.1309C148.924 46.5669 149.071 47.1158 149.071 47.7776V51.4963C149.071 51.9218 149.098 52.2868 149.15 52.5914C149.208 52.8908 149.292 53.1508 149.402 53.3714V53.5054H147.283C147.183 53.29 147.107 53.0169 147.054 52.686C147.002 52.3498 146.976 52.0189 146.976 51.6933ZM147.267 48.3133L147.283 49.5503H145.967C145.641 49.5503 145.355 49.5844 145.108 49.6527C144.861 49.7157 144.659 49.8103 144.502 49.9363C144.344 50.0571 144.226 50.2042 144.147 50.3775C144.068 50.5456 144.029 50.7373 144.029 50.9527C144.029 51.1628 144.076 51.3519 144.171 51.5199C144.271 51.688 144.412 51.822 144.596 51.9218C144.785 52.0163 145.006 52.0636 145.258 52.0636C145.626 52.0636 145.946 51.99 146.219 51.843C146.492 51.6907 146.705 51.5068 146.857 51.2915C147.01 51.0761 147.091 50.8713 147.102 50.6769L147.7 51.5751C147.627 51.7904 147.517 52.0189 147.369 52.2605C147.222 52.5022 147.033 52.728 146.802 52.9381C146.571 53.1482 146.293 53.3215 145.967 53.4581C145.641 53.5947 145.263 53.6629 144.833 53.6629C144.281 53.6629 143.787 53.5526 143.351 53.332C142.915 53.1114 142.571 52.8094 142.319 52.426C142.067 52.0426 141.941 51.6066 141.941 51.1181C141.941 50.6664 142.025 50.2672 142.193 49.9206C142.361 49.5739 142.611 49.2824 142.942 49.046C143.273 48.8044 143.682 48.6232 144.171 48.5024C144.664 48.3764 145.229 48.3133 145.865 48.3133H147.267ZM153.018 46.7297V53.5054H150.938V44.9807H152.9L153.018 46.7297ZM152.711 48.9357H152.073C152.073 48.3422 152.144 47.796 152.286 47.297C152.433 46.798 152.648 46.3647 152.932 45.997C153.215 45.6241 153.565 45.3352 153.98 45.1304C154.4 44.9255 154.886 44.8231 155.437 44.8231C155.821 44.8231 156.173 44.8809 156.493 44.9964C156.813 45.1067 157.089 45.2827 157.32 45.5243C157.557 45.7606 157.738 46.0705 157.864 46.454C157.99 46.8321 158.053 47.2865 158.053 47.817V53.5054H155.973V48.0297C155.973 47.6305 155.915 47.318 155.8 47.0921C155.689 46.8663 155.529 46.7087 155.319 46.6194C155.109 46.5249 154.857 46.4776 154.563 46.4776C154.237 46.4776 153.956 46.5433 153.72 46.6746C153.489 46.8006 153.297 46.9766 153.145 47.2024C152.997 47.4283 152.887 47.6883 152.814 47.9824C152.745 48.2766 152.711 48.5943 152.711 48.9357ZM157.895 48.5497L157.037 48.7073C157.042 48.1715 157.115 47.6699 157.257 47.2024C157.399 46.7297 157.606 46.3174 157.88 45.9655C158.158 45.6083 158.502 45.3299 158.912 45.1304C159.327 44.9255 159.805 44.8231 160.346 44.8231C160.766 44.8231 161.144 44.8835 161.48 45.0043C161.822 45.1199 162.113 45.3063 162.355 45.5637C162.596 45.8158 162.78 46.1441 162.906 46.5485C163.037 46.953 163.103 47.4467 163.103 48.0297V53.5054H161.007V48.0218C161.007 47.6069 160.95 47.2891 160.834 47.0685C160.724 46.8479 160.564 46.6956 160.353 46.6115C160.143 46.5223 159.897 46.4776 159.613 46.4776C159.324 46.4776 159.072 46.5328 158.857 46.6431C158.646 46.7481 158.468 46.8952 158.321 47.0843C158.179 47.2734 158.071 47.494 157.998 47.7461C157.929 47.9929 157.895 48.2608 157.895 48.5497Z" fill="#FF6600"/>
</svg>
