<svg width="197" height="201" viewBox="0 0 197 201" fill="none" xmlns="http://www.w3.org/2000/svg">
<circle cx="98.5" cy="102.5" r="98.5" fill="#FBFBFB"/>
<path d="M157.901 77.4488H157.493V58.9554C157.493 26.7961 131.181 -0.53594 99.0894 0.00798136C67.8819 0.551903 42.5896 26.1162 42.5896 57.4597V59.2274C42.5896 61.879 44.7653 64.0547 47.4169 64.0547H62.8507C65.5023 64.0547 67.678 61.879 67.678 59.2274V58.6835C67.678 41.414 80.6641 26.2522 97.9336 25.1643C116.699 24.0085 132.337 38.8984 132.337 57.3917V77.3808H84.7435V77.4488H40.7539C32.595 77.7207 26 84.3158 26 92.5426V176.17C26 184.533 32.799 191.332 41.1618 191.332H157.833C166.196 191.332 172.995 184.533 172.995 176.17V92.6106C173.063 84.2478 166.264 77.4488 157.901 77.4488ZM108.54 138.164C107.384 138.98 107.044 139.864 107.044 141.224C107.112 147.343 107.112 153.462 107.044 159.649C107.18 162.233 105.888 164.68 103.577 165.836C98.2055 168.556 92.8343 164.748 92.8343 159.649C92.8343 159.649 92.8343 159.649 92.8343 159.581C92.8343 153.462 92.8343 147.275 92.8343 141.156C92.8343 139.932 92.5624 139.048 91.4745 138.232C85.8993 134.153 84.0636 127.15 86.8512 120.962C89.5708 114.979 96.1658 111.444 102.353 112.736C109.288 114.095 114.115 119.739 114.183 126.606C114.387 131.433 112.415 135.376 108.54 138.164Z" fill="#F0F0F0"/>
<circle cx="99" cy="135" r="35" fill="#FF6600"/>
<path d="M93.9311 146.529L83.4713 136.069C82.8429 135.44 82.8429 134.422 83.4713 133.793L85.747 131.517C86.3754 130.889 87.3944 130.889 88.0228 131.517L95.069 138.563L110.161 123.471C110.79 122.843 111.809 122.843 112.437 123.471L114.713 125.747C115.341 126.375 115.341 127.394 114.713 128.023L96.2069 146.529C95.5784 147.157 94.5595 147.157 93.9311 146.529Z" fill="#FCFCFC"/>
</svg>
