<svg width="197" height="201" viewBox="0 0 197 201" fill="none" xmlns="http://www.w3.org/2000/svg">
<circle cx="98.5" cy="102.492" r="98.5" fill="#FBFBFB"/>
<path d="M157.901 77.4408H157.493V58.9475C157.493 26.7881 132.337 4.67878e-05 99.0894 0C59.5 -9.31323e-10 44.7389 41.5535 44.7389 72.897V74.6647C44.7389 77.3163 46.9146 79.492 49.5662 79.492H65C67.6516 79.492 69.8273 77.3163 69.8273 74.6647V74.1208C69.8273 56.8513 74.5 25.1564 97.9336 25.1564C121.367 25.1564 132.337 38.8904 132.337 57.3837V77.3728H84.7435V77.4408H40.7539C32.595 77.7128 26 84.3078 26 92.5346V176.162C26 184.525 32.799 191.324 41.1618 191.324H157.833C166.196 191.324 172.995 184.525 172.995 176.162V92.6026C173.063 84.2398 166.264 77.4408 157.901 77.4408ZM108.54 138.156C107.384 138.972 107.044 139.856 107.044 141.216C107.112 147.335 107.112 153.454 107.044 159.641C107.18 162.225 105.888 164.672 103.577 165.828C98.2055 168.548 92.8343 164.74 92.8343 159.641C92.8343 159.641 92.8343 159.641 92.8343 159.573C92.8343 153.454 92.8343 147.267 92.8343 141.148C92.8343 139.924 92.5624 139.04 91.4745 138.224C85.8993 134.145 84.0636 127.142 86.8512 120.954C89.5708 114.971 96.1658 111.436 102.353 112.728C109.288 114.087 114.115 119.731 114.183 126.598C114.387 131.425 112.415 135.368 108.54 138.156Z" fill="#F0F0F0"/>
<circle cx="99" cy="134.992" r="35" fill="#FF6600"/>
<path d="M98.6144 121.992C94.717 121.992 92.1927 123.589 90.2108 126.437C89.8513 126.953 89.9621 127.662 90.4636 128.042L92.57 129.639C93.0765 130.023 93.7971 129.933 94.1936 129.437C95.4167 127.904 96.324 127.022 98.2345 127.022C99.7367 127.022 101.595 127.989 101.595 129.445C101.595 130.547 100.686 131.112 99.2024 131.944C97.4728 132.913 95.1839 134.12 95.1839 137.139V137.617C95.1839 138.264 95.7086 138.789 96.3558 138.789H99.8944C100.542 138.789 101.066 138.264 101.066 137.617V137.335C101.066 135.243 107.183 135.155 107.183 129.492C107.183 125.227 102.759 121.992 98.6144 121.992ZM98.1251 140.227C96.2601 140.227 94.7428 141.745 94.7428 143.61C94.7428 145.475 96.2601 146.992 98.1251 146.992C99.9902 146.992 101.508 145.475 101.508 143.61C101.508 141.745 99.9902 140.227 98.1251 140.227Z" fill="white"/>
</svg>
