<svg width="200" height="210" viewBox="0 0 200 210" fill="none" xmlns="http://www.w3.org/2000/svg">
<path d="M100 209.877C155.228 209.877 200 165.105 200 109.877C200 54.6482 155.228 9.87671 100 9.87671C44.7715 9.87671 0 54.6482 0 109.877C0 165.105 44.7715 209.877 100 209.877Z" fill="#FBFBFB"/>
<path d="M91.4223 8.33249L12.3458 71.9667V174.897C12.3458 183.988 19.7156 191.358 28.8067 191.358H174.149C183.24 191.358 190.61 183.988 190.61 174.897V71.9667L112.104 8.36642C106.079 3.48507 97.4637 3.47094 91.4223 8.33249Z" fill="#767676"/>
<rect x="38.0683" y="27.9377" width="127.417" height="158.614" rx="19.7531" fill="white"/>
<path d="M49.0316 51.852C49.0316 50.0338 50.5056 48.5598 52.3238 48.5598H148.173C149.992 48.5598 151.466 50.0338 151.466 51.852V51.852C151.466 53.6702 149.992 55.1442 148.173 55.1442H52.3238C50.5056 55.1442 49.0316 53.6702 49.0316 51.852V51.852Z" fill="#FF6600"/>
<path d="M49.0316 73.2509C49.0316 71.4327 50.5056 69.9587 52.3238 69.9587H148.173C149.992 69.9587 151.466 71.4327 151.466 73.2509V73.2509C151.466 75.0691 149.992 76.5431 148.173 76.5431H52.3238C50.5056 76.5431 49.0316 75.0691 49.0316 73.2509V73.2509Z" fill="#D5D5D5"/>
<path d="M49.0316 94.6501C49.0316 92.8319 50.5056 91.3579 52.3238 91.3579H148.173C149.992 91.3579 151.466 92.8319 151.466 94.6501V94.6501C151.466 96.4683 149.992 97.9423 148.173 97.9423H52.3238C50.5056 97.9423 49.0316 96.4683 49.0316 94.6501V94.6501Z" fill="#D5D5D5"/>
<path d="M49.0316 116.05C49.0316 114.231 50.5056 112.757 52.3238 112.757H148.173C149.992 112.757 151.466 114.231 151.466 116.05V116.05C151.466 117.868 149.992 119.342 148.173 119.342H52.3238C50.5056 119.342 49.0316 117.868 49.0316 116.05V116.05Z" fill="#D5D5D5"/>
<path fill-rule="evenodd" clip-rule="evenodd" d="M12.3458 71.7969V174.897C12.3458 183.988 19.7156 191.358 28.8067 191.358H128.449C144.465 191.358 151.048 170.805 138.012 161.499L12.3458 71.7969Z" fill="#EDEDED"/>
<path fill-rule="evenodd" clip-rule="evenodd" d="M190.61 71.7969V174.897C190.61 183.988 183.24 191.358 174.149 191.358H27.7254L190.61 71.7969Z" fill="#F0F0F0"/>
<path fill-rule="evenodd" clip-rule="evenodd" d="M190.947 73.3464L33.8715 191.358H27.3158L189.015 70.6865L190.947 73.3464Z" fill="#767676"/>
</svg>
