<svg width="283" height="243" viewBox="0 0 283 243" fill="none" xmlns="http://www.w3.org/2000/svg">
<path d="M141.152 242.067C219.108 242.067 282.304 238.377 282.304 233.826C282.304 229.275 219.108 225.585 141.152 225.585C63.1959 225.585 0 229.275 0 233.826C0 238.377 63.1959 242.067 141.152 242.067Z" fill="#F5F5F5"/>
<path d="M212.605 14.7854C211.054 13.2348 208.069 7.35982 210.93 4.59342C213.791 1.82702 216.339 4.33862 216.536 5.68542C216.733 7.03222 216.208 18.3817 212.605 14.7854Z" fill="#263238"/>
<path d="M211.95 226.117L205.449 226.175L203.68 211.149L210.173 211.091L211.95 226.117Z" fill="#FF8B7B"/>
<path d="M205.441 225.425L212.532 225.359C212.663 225.361 212.79 225.405 212.894 225.483C212.999 225.562 213.076 225.671 213.115 225.796L214.833 231.555C214.878 231.689 214.891 231.832 214.87 231.972C214.848 232.112 214.793 232.244 214.71 232.359C214.626 232.473 214.516 232.565 214.389 232.628C214.263 232.691 214.122 232.722 213.981 232.719C211.426 232.719 207.713 232.581 204.517 232.61C200.76 232.61 199.086 232.872 194.674 232.916C192.01 232.916 191.034 230.252 192.163 230.004C197.164 228.846 199.748 228.694 203.934 225.949C204.375 225.631 204.899 225.449 205.441 225.425Z" fill="#263238"/>
<path opacity="0.2" d="M203.68 211.156L204.597 218.902L211.091 218.844L210.181 211.098L203.68 211.156Z" fill="black"/>
<path d="M202.755 226.583C203.456 226.57 204.154 226.485 204.837 226.328C204.869 226.323 204.899 226.308 204.922 226.284C204.944 226.26 204.958 226.229 204.961 226.197C204.964 226.165 204.957 226.134 204.941 226.106C204.926 226.079 204.902 226.057 204.873 226.044C204.568 225.891 201.838 224.588 201.088 225.047C201.018 225.091 200.962 225.152 200.924 225.225C200.885 225.298 200.867 225.379 200.869 225.461C200.868 225.602 200.898 225.74 200.959 225.866C201.02 225.993 201.109 226.103 201.219 226.189C201.674 226.485 202.214 226.623 202.755 226.583ZM204.313 226.117C202.908 226.364 201.838 226.313 201.401 225.964C201.325 225.905 201.265 225.828 201.226 225.741C201.186 225.653 201.169 225.557 201.175 225.461C201.171 225.432 201.176 225.401 201.188 225.374C201.201 225.347 201.222 225.324 201.248 225.309C201.656 225.061 203.199 225.643 204.313 226.117Z" fill="#FF6600"/>
<path d="M204.808 226.371C204.842 226.369 204.875 226.356 204.902 226.335C204.924 226.319 204.941 226.296 204.95 226.27C204.959 226.244 204.96 226.216 204.953 226.189C204.953 226.073 204.444 223.277 202.9 223.452C202.493 223.496 202.376 223.707 202.354 223.867C202.245 224.595 203.912 226.007 204.742 226.357L204.808 226.371ZM203.032 223.751C203.963 223.751 204.429 225.272 204.589 225.935C203.73 225.454 202.595 224.348 202.66 223.911C202.66 223.911 202.66 223.787 202.937 223.758L203.032 223.751Z" fill="#FF6600"/>
<path d="M207.356 47.5966L206.686 48.3246L206.06 48.9434C205.645 49.351 205.216 49.7369 204.786 50.1154C203.932 50.8823 203.058 51.6103 202.165 52.2994C200.363 53.7317 198.466 55.0403 196.487 56.2161C195.49 56.8058 194.463 57.3663 193.422 57.8978C192.381 58.4292 191.282 58.8878 190.175 59.3538C187.906 60.259 185.542 60.9062 183.128 61.283L182.589 61.363C182.239 61.4081 181.887 61.43 181.534 61.4286C180.723 61.421 179.921 61.263 179.168 60.9626C178.421 60.6628 177.737 60.2258 177.151 59.6741C176.685 59.2292 176.278 58.725 175.943 58.1744C175.478 57.3755 175.128 56.5154 174.902 55.6191C174.725 54.925 174.596 54.2196 174.516 53.5079C174.383 52.2775 174.347 51.0385 174.407 49.8024C174.458 48.623 174.552 47.4874 174.683 46.3735C174.96 44.1386 175.353 42.0055 175.834 39.8215C176.314 37.6375 176.86 35.621 177.566 33.5098L182.349 34.4562C182.175 38.5475 181.978 42.7408 182.109 46.7011C182.133 48.5401 182.328 50.3729 182.691 52.1757C182.763 52.5087 182.863 52.835 182.99 53.1512C183.092 53.3987 183.216 53.5516 183.208 53.4861C183.166 53.3752 183.099 53.2755 183.012 53.1949C182.814 53.0033 182.582 52.8502 182.327 52.7435C182.066 52.6335 181.788 52.5671 181.505 52.547C181.374 52.547 181.315 52.547 181.235 52.547H181.315L181.468 52.5033C183.193 52.0603 184.87 51.4508 186.477 50.6833C188.158 49.8721 189.785 48.9529 191.347 47.9314C192.927 46.8831 194.485 45.7474 195.985 44.5462C196.713 43.9493 197.477 43.3232 198.169 42.6898L199.232 41.7289L199.741 41.2557L200.185 40.8334L207.356 47.5966Z" fill="#FF8B7B"/>
<path d="M211.207 45.0267C210.96 38.1616 205.325 35.7738 198.263 40.4548C195.15 42.4286 192.153 44.5798 189.287 46.8976L193.852 61.5596C193.852 61.5596 202.588 58.7859 207.64 53.3404C211.04 49.6422 211.295 47.3635 211.207 45.0267Z" fill="#263238"/>
<path opacity="0.2" d="M202.609 47.9531C202.609 47.9531 198.394 53.981 196.902 60.3874C198.974 59.5037 200.971 58.4518 202.871 57.2424L202.609 47.9531Z" fill="black"/>
<path d="M182.109 36.6329L184.555 31.1073L177.632 29.0835C177.632 29.0835 176.445 31.7261 177.122 36.2616L182.109 36.6329Z" fill="#FF8B7B"/>
<path d="M185.29 24.6282L179.27 25.3489L177.632 29.0835L184.555 31.1074L185.29 24.6282Z" fill="#FF8B7B"/>
<path d="M202.653 94.7927C202.653 94.7927 198.183 132.256 197.688 152.305C197.178 173.133 201.263 215.146 201.263 215.146L212.991 214.898C212.991 214.898 214.403 169.922 216.106 149.313C217.956 126.847 222.615 94.385 222.615 94.385L202.653 94.7927Z" fill="#FF6600"/>
<path opacity="0.6" d="M202.653 94.7927C202.653 94.7927 198.183 132.256 197.688 152.305C197.178 173.133 201.263 215.146 201.263 215.146L212.991 214.898C212.991 214.898 214.403 169.922 216.106 149.313C217.956 126.847 222.615 94.385 222.615 94.385L202.653 94.7927Z" fill="white"/>
<path opacity="0.2" d="M216.623 105.4C211.382 116.953 212.787 142.761 215.764 153.826C215.873 152.217 215.99 150.696 216.106 149.291C217.322 134.483 219.746 115.344 221.282 104.009C219.856 101.942 218.261 101.782 216.623 105.4Z" fill="black"/>
<path d="M214.432 215.4L200.644 215.677L199.625 211.098L214.265 211.062L214.432 215.4Z" fill="#FF6600"/>
<path d="M240.917 226.117L234.423 226.175L232.654 211.149L239.148 211.091L240.917 226.117Z" fill="#FF8B7B"/>
<path d="M234.408 225.425L241.506 225.359C241.637 225.362 241.763 225.406 241.867 225.484C241.972 225.563 242.049 225.672 242.089 225.796L243.807 231.555C243.851 231.689 243.862 231.831 243.84 231.97C243.818 232.11 243.763 232.242 243.68 232.356C243.596 232.469 243.487 232.562 243.361 232.625C243.235 232.688 243.096 232.721 242.955 232.719C240.392 232.719 236.687 232.581 233.491 232.61C229.734 232.61 228.053 232.872 223.648 232.916C220.984 232.916 220.008 230.252 221.137 230.004C226.131 228.846 228.715 228.694 232.909 225.949C233.346 225.631 233.868 225.449 234.408 225.425Z" fill="#263238"/>
<path opacity="0.2" d="M232.654 211.156L233.564 218.902L240.065 218.844L239.155 211.098L232.654 211.156Z" fill="black"/>
<path d="M231.729 226.583C232.43 226.569 233.128 226.484 233.811 226.328C233.843 226.323 233.872 226.307 233.893 226.283C233.914 226.259 233.927 226.229 233.928 226.197C233.933 226.166 233.927 226.135 233.913 226.107C233.899 226.08 233.876 226.057 233.848 226.044C233.535 225.891 230.805 224.588 230.062 225.047C229.992 225.09 229.934 225.151 229.896 225.224C229.858 225.297 229.84 225.379 229.844 225.461C229.842 225.601 229.872 225.739 229.932 225.865C229.991 225.991 230.078 226.102 230.186 226.189C230.644 226.484 231.186 226.622 231.729 226.583ZM233.287 226.117C231.882 226.364 230.812 226.313 230.375 225.964C230.3 225.904 230.24 225.827 230.2 225.74C230.159 225.653 230.14 225.558 230.142 225.461C230.138 225.432 230.143 225.401 230.156 225.374C230.169 225.347 230.189 225.324 230.215 225.309C230.623 225.061 232.152 225.643 233.287 226.117Z" fill="#FF6600"/>
<path d="M233.775 226.371C233.798 226.371 233.82 226.365 233.84 226.355C233.86 226.346 233.878 226.332 233.892 226.314C233.906 226.297 233.917 226.277 233.923 226.256C233.93 226.234 233.931 226.212 233.928 226.189C233.928 226.073 233.418 223.277 231.875 223.452C231.467 223.496 231.351 223.707 231.322 223.867C231.22 224.595 232.887 226.007 233.717 226.357L233.775 226.371ZM232.006 223.751C232.931 223.751 233.404 225.272 233.564 225.935C232.705 225.454 231.562 224.348 231.628 223.911C231.628 223.911 231.628 223.787 231.904 223.758L232.006 223.751Z" fill="#FF6600"/>
<path d="M214.097 94.5453C214.097 94.5453 217.337 134.855 219.703 154.744C222.156 175.433 230.237 215.124 230.237 215.124L241.965 214.876C241.965 214.876 238.747 169.813 237.502 149.167C236.141 126.636 235.792 94.0503 235.792 94.0503L214.097 94.5453Z" fill="#FF6600"/>
<path opacity="0.6" d="M214.097 94.5453C214.097 94.5453 217.337 134.855 219.703 154.744C222.156 175.433 230.237 215.124 230.237 215.124L241.965 214.876C241.965 214.876 238.747 169.813 237.502 149.167C236.141 126.636 235.792 94.0503 235.792 94.0503L214.097 94.5453Z" fill="white"/>
<path d="M243.407 215.4L229.611 215.677L228.599 211.098L243.239 211.062L243.407 215.4Z" fill="#FF6600"/>
<path d="M201.845 38.6565C201.845 38.6565 197.048 56.4634 202.653 94.7926C213.122 94.5669 230.703 94.1593 235.792 94.0646C235.923 88.7284 231.984 62.5641 236.593 37.3389C233.277 36.7664 229.924 36.4403 226.561 36.3634C221.637 36.1836 216.708 36.2905 211.797 36.6837C208.433 37.0816 205.106 37.7412 201.845 38.6565Z" fill="#263238"/>
<path opacity="0.2" d="M234.583 55.2916L229.16 50.7998C229.516 54.3088 232.69 62.9064 234.365 67.2599C234.336 63.4452 234.372 59.4193 234.583 55.2916Z" fill="black"/>
<path d="M215.182 48.9798L209.263 60.6933C209.138 60.9392 209.095 61.2185 209.138 61.4909C209.182 61.7633 209.311 62.0147 209.507 62.209C209.703 62.4033 209.956 62.5304 210.228 62.572C210.501 62.6136 210.78 62.5675 211.025 62.4405L214.891 60.3147C215.101 60.2017 215.339 60.15 215.577 60.1654C215.815 60.1808 216.044 60.2629 216.238 60.4021L220.045 63.1466C220.264 63.3057 220.528 63.3902 220.798 63.3876C221.068 63.385 221.331 63.2954 221.546 63.1321C221.762 62.9688 221.919 62.7405 221.995 62.4809C222.071 62.2213 222.061 61.9442 221.967 61.6906L217.519 49.1836C217.442 48.9457 217.296 48.7358 217.1 48.5801C216.904 48.4244 216.667 48.3298 216.418 48.308C216.169 48.2863 215.919 48.3384 215.699 48.4579C215.479 48.5773 215.299 48.7588 215.182 48.9798Z" fill="white"/>
<path d="M224.741 19.7358C223.911 24.5115 223.168 33.233 226.561 36.327C226.561 36.327 225.571 40.6513 216.536 42.151C210.465 40.1999 211.797 36.6764 211.797 36.6764C217.068 35.2932 216.842 31.3693 215.844 27.7002L224.741 19.7358Z" fill="#FF8B7B"/>
<path opacity="0.2" d="M221.115 22.9756L215.844 27.6639C216.09 28.5187 216.26 29.3931 216.354 30.2774C218.378 29.9425 221.108 27.6566 221.275 25.5381C221.378 24.6813 221.324 23.8129 221.115 22.9756Z" fill="black"/>
<path d="M227.631 13.861C225.876 20.0636 225.17 23.7836 221.297 26.3244C215.473 30.1391 208.331 25.5964 208.193 18.9788C208.062 13.0384 210.945 3.8874 217.657 2.7226C219.131 2.46106 220.648 2.58028 222.063 3.06899C223.479 3.55769 224.746 4.39969 225.745 5.51519C226.744 6.63069 227.441 7.98276 227.771 9.44327C228.101 10.9038 228.053 12.4244 227.631 13.861Z" fill="#FF8B7B"/>
<path d="M223.896 17.661C223.081 15.6809 222.491 9.158 225.891 7.5564C229.291 5.9548 232.822 9.86416 231.926 11.7133C230.55 14.5816 225.789 22.2474 223.896 17.661Z" fill="#263238"/>
<path d="M225.927 9.85695C225.09 7.67295 215.109 6.43536 213.711 4.08392C212.052 1.2884 218.858 0.953513 223.539 2.37311C227.653 3.62527 230.397 4.83375 229.917 7.89135C229.647 9.62399 225.927 9.85695 225.927 9.85695Z" fill="#263238"/>
<path d="M228.097 7.60742C228.097 7.60742 230.281 8.20438 231.475 6.60278C231.096 8.18982 229.24 9.79142 228.097 7.60742Z" fill="#263238"/>
<path d="M218.101 0.873392C215.102 -1.45621 211.018 1.28107 211.404 4.31683C211.789 7.35259 221.901 9.66035 221.901 9.66035C221.901 9.66035 222.083 3.96739 218.101 0.873392Z" fill="#263238"/>
<path d="M211.411 4.33173C211.87 6.45749 213.42 8.12461 216.558 9.36221C214.742 8.01936 213.366 6.16703 212.605 4.04053L211.411 4.33173Z" fill="#263238"/>
<path d="M217.708 13.5479C217.599 14.0648 217.242 14.4215 216.907 14.3487C216.573 14.2759 216.391 13.7955 216.5 13.2859C216.609 12.7763 216.973 12.4195 217.308 12.4923C217.643 12.5651 217.825 13.0675 217.708 13.5479Z" fill="#263238"/>
<path d="M211.928 12.2955C211.811 12.8051 211.455 13.1618 211.12 13.089C210.785 13.0162 210.603 12.543 210.712 12.0334C210.821 11.5238 211.185 11.1671 211.52 11.2326C211.855 11.2981 212.037 11.7859 211.928 12.2955Z" fill="#263238"/>
<path d="M213.712 12.9509C212.761 14.383 211.617 15.6766 210.312 16.7948C211.04 17.8358 212.663 17.7849 212.663 17.7849L213.712 12.9509Z" fill="#FF5652"/>
<path d="M213.843 19.5247C214.526 19.6944 215.241 19.6964 215.925 19.5303C216.61 19.3643 217.244 19.0351 217.774 18.571C217.788 18.5567 217.8 18.5397 217.808 18.521C217.816 18.5022 217.82 18.4821 217.82 18.4618C217.82 18.4414 217.816 18.4213 217.808 18.4025C217.8 18.3838 217.788 18.3668 217.774 18.3526C217.744 18.3249 217.705 18.3096 217.665 18.3096C217.624 18.3096 217.585 18.3249 217.555 18.3526C217.058 18.7709 216.47 19.0672 215.838 19.2176C215.206 19.368 214.548 19.3685 213.915 19.2189C213.875 19.2102 213.833 19.218 213.798 19.2405C213.763 19.263 213.738 19.2985 213.73 19.339C213.721 19.3796 213.729 19.4219 213.751 19.4567C213.774 19.4915 213.809 19.516 213.85 19.5247H213.843Z" fill="#263238"/>
<path d="M219.856 12.0627C219.912 12.0739 219.969 12.0696 220.023 12.0503C220.077 12.031 220.124 11.9975 220.16 11.9533C220.196 11.9091 220.219 11.8559 220.227 11.7995C220.235 11.7431 220.227 11.6856 220.205 11.6332C220.008 11.1848 219.708 10.7897 219.328 10.4808C218.948 10.1719 218.5 9.95798 218.021 9.85684C217.94 9.84637 217.858 9.86791 217.793 9.91686C217.728 9.96581 217.684 10.0383 217.672 10.1189C217.665 10.1586 217.667 10.1991 217.677 10.2381C217.686 10.2772 217.703 10.314 217.727 10.3464C217.75 10.3789 217.78 10.4063 217.814 10.4273C217.849 10.4482 217.887 10.4621 217.926 10.4684C218.304 10.5514 218.657 10.7235 218.954 10.9705C219.252 11.2175 219.486 11.532 219.637 11.888C219.658 11.932 219.688 11.9707 219.726 12.0011C219.764 12.0314 219.808 12.0525 219.856 12.0627Z" fill="#263238"/>
<path d="M209.817 9.7551C209.874 9.7709 209.934 9.76892 209.99 9.7494C210.046 9.72989 210.095 9.69379 210.13 9.64591C210.36 9.33666 210.66 9.08593 211.005 8.91395C211.351 8.74196 211.732 8.65355 212.117 8.65583C212.198 8.66355 212.279 8.63874 212.342 8.58686C212.405 8.53498 212.444 8.46028 212.452 8.37918C212.46 8.29809 212.435 8.21725 212.383 8.15445C212.331 8.09165 212.257 8.05203 212.175 8.0443C211.687 8.02981 211.202 8.13344 210.763 8.34636C210.323 8.55929 209.941 8.87523 209.649 9.26734C209.623 9.29848 209.604 9.33455 209.593 9.37335C209.581 9.41214 209.578 9.45286 209.583 9.49303C209.587 9.5332 209.6 9.57199 209.621 9.60703C209.641 9.64207 209.668 9.67263 209.7 9.69687C209.733 9.72604 209.774 9.74611 209.817 9.7551Z" fill="#263238"/>
<path d="M238.18 42.3037C239.505 44.6188 240.611 46.861 241.761 49.1687C242.912 51.4765 243.945 53.7988 244.928 56.1721C245.911 58.5454 246.865 60.9551 247.695 63.4521C248.557 65.9424 249.286 68.477 249.879 71.0451L250.323 73.0326C250.517 73.9659 250.6 74.9189 250.57 75.8718C250.508 77.6422 250.116 79.3855 249.413 81.0115C248.177 83.7513 246.418 86.2241 244.237 88.2915C242.29 90.1705 240.17 91.8598 237.903 93.3365C236.804 94.0645 235.668 94.7343 234.525 95.3749C233.382 96.0155 232.246 96.6052 230.972 97.1658L228.555 92.9361C229.436 92.2081 230.405 91.4801 231.307 90.6939C232.21 89.9076 233.091 89.1068 233.964 88.306C235.651 86.7411 237.216 85.0497 238.646 83.2464C239.917 81.7 240.903 79.94 241.558 78.0485C241.783 77.3438 241.872 76.6025 241.82 75.8645C241.798 75.5677 241.742 75.2745 241.652 74.9909L241.157 73.3602C239.686 68.837 237.936 64.4095 235.916 60.1033C234.918 57.9193 233.855 55.7353 232.792 53.5513C231.73 51.3673 230.608 49.1833 229.524 47.1085L238.18 42.3037Z" fill="#FF8B7B"/>
<path d="M236.84 37.3756C242.911 38.686 247.134 54.5272 247.134 54.5272L236.279 64.3771C232.828 60.5377 230.114 56.0956 228.271 51.2731C225.396 43.3452 230.346 35.9632 236.84 37.3756Z" fill="#263238"/>
<path d="M229.873 92.1865L222.892 92.2593L227.26 99.2991C227.26 99.2991 232.232 98.0688 232.676 95.5717L229.873 92.1865Z" fill="#FF8B7B"/>
<path d="M218.545 96.4162L222.397 102.065L227.223 99.299L222.892 92.2593L218.545 96.4162Z" fill="#FF8B7B"/>
<path d="M229.538 19.5394C228.762 20.9666 227.454 22.029 225.898 22.4951C223.83 23.0993 222.775 21.2575 223.328 19.2992C223.83 17.5374 225.512 15.0986 227.58 15.3534C229.647 15.6082 230.462 17.7849 229.538 19.5394Z" fill="#FF8B7B"/>
<path d="M167.661 139.992L159.899 140.555L159.952 141.281L167.714 140.718L167.661 139.992Z" fill="#FF6600"/>
<path d="M174.635 139.489L170.823 139.765L170.876 140.491L174.688 140.215L174.635 139.489Z" fill="#FF6600"/>
<path d="M208.128 54.0321L79.5922 63.2996C76.917 63.5083 74.432 64.7635 72.6766 66.7929C70.9211 68.8223 70.0368 71.4621 70.2155 74.1395L74.5835 134.724C74.7904 137.403 76.0469 139.892 78.0797 141.649C80.1125 143.407 82.7571 144.29 85.438 144.108L92.718 143.583C93.2469 143.545 93.7693 143.719 94.1706 144.065C94.5719 144.412 94.8192 144.904 94.8583 145.433L95.6737 156.658C95.687 156.876 95.765 157.084 95.8977 157.257C96.0304 157.43 96.2117 157.559 96.4183 157.628C96.6249 157.696 96.8475 157.702 97.0572 157.643C97.267 157.585 97.4545 157.465 97.5956 157.299L109.782 143.212C110.295 142.622 111.02 142.258 111.799 142.2L213.952 134.84C216.628 134.633 219.115 133.379 220.872 131.349C222.629 129.32 223.514 126.679 223.336 124L218.968 63.4161C218.761 60.7396 217.506 58.2528 215.477 56.4958C213.447 54.7388 210.806 53.8535 208.128 54.0321Z" fill="#FF6600"/>
<path d="M98.3674 91.1092L105.313 90.6069L105.88 98.4693L113.466 97.9233L112.898 90.0609L119.873 89.5513L121.496 112.017L114.522 112.52L113.867 103.434L106.281 103.988L106.936 113.073L99.9982 113.575L98.3674 91.1092Z" fill="white"/>
<path opacity="0.2" d="M79.5922 63.2996C76.917 63.5083 74.432 64.7635 72.6766 66.7929C70.9211 68.8223 70.0368 71.4621 70.2155 74.1395L74.5835 134.724C74.7904 137.403 76.0469 139.892 78.0797 141.649C80.1125 143.407 82.7571 144.29 85.438 144.108L86.5082 144.027C88.2862 143.899 89.9722 143.187 91.3043 142.002C92.6365 140.818 93.5403 139.226 93.8755 137.475L108.516 61.2102L79.5922 63.2996Z" fill="black"/>
<path d="M143.285 103.82L130.778 104.723C130.874 105.533 131.214 106.295 131.753 106.907C132.063 107.232 132.443 107.482 132.865 107.636C133.287 107.79 133.739 107.844 134.185 107.795C134.798 107.751 135.39 107.551 135.903 107.212C136.305 106.908 136.648 106.533 136.915 106.106L143.103 106.23C142.43 107.755 141.336 109.058 139.951 109.986C138.679 110.792 136.801 111.277 134.316 111.442C132.579 111.644 130.818 111.458 129.162 110.896C127.834 110.339 126.694 109.411 125.878 108.224C124.943 106.873 124.406 105.287 124.328 103.645C124.198 102.505 124.308 101.351 124.652 100.256C124.995 99.1616 125.564 98.1511 126.322 97.2898C127.837 95.6009 130.021 94.6521 132.874 94.4434C134.764 94.2189 136.679 94.4433 138.465 95.0986C139.833 95.6828 140.985 96.6775 141.763 97.945C142.654 99.5193 143.153 101.284 143.219 103.092L143.285 103.82ZM136.733 101.287C136.644 100.34 136.236 99.4515 135.575 98.7677C135.243 98.5116 134.861 98.3265 134.453 98.2241C134.046 98.1217 133.622 98.1041 133.208 98.1724C132.793 98.2406 132.398 98.3933 132.045 98.621C131.692 98.8486 131.389 99.1463 131.156 99.4957C130.768 100.181 130.572 100.958 130.589 101.745L136.733 101.287Z" fill="white"/>
<path d="M145.214 87.7241L151.467 87.2727L153.091 109.732L146.837 110.183L145.214 87.7241Z" fill="white"/>
<path d="M155.661 86.967L161.914 86.5156L163.538 108.974L157.292 109.426L155.661 86.967Z" fill="white"/>
<path d="M166.173 100.653C166.055 99.5137 166.178 98.3622 166.534 97.2735C166.89 96.1848 167.472 95.1832 168.241 94.3341C169.799 92.6014 172.004 91.6308 174.858 91.4221C178.11 91.1891 180.639 91.9559 182.444 93.7225C183.944 95.304 184.81 97.3813 184.878 99.5596C184.947 101.738 184.213 103.865 182.815 105.538C181.272 107.256 179.035 108.227 176.103 108.45C173.826 108.723 171.525 108.182 169.609 106.921C168.59 106.214 167.749 105.28 167.153 104.192C166.557 103.104 166.221 101.893 166.173 100.653ZM172.427 100.187C172.415 101.336 172.809 102.453 173.541 103.339C173.835 103.641 174.192 103.875 174.587 104.026C174.981 104.176 175.403 104.239 175.824 104.21C176.245 104.181 176.655 104.06 177.025 103.857C177.395 103.654 177.716 103.373 177.967 103.034C178.555 102.02 178.776 100.835 178.593 99.6776C178.6 98.5515 178.211 97.4589 177.494 96.5909C177.213 96.2833 176.866 96.0445 176.478 95.893C176.091 95.7415 175.673 95.6814 175.259 95.7173C174.826 95.7374 174.404 95.8569 174.025 96.0664C173.647 96.276 173.321 96.5701 173.075 96.9257C172.488 97.9051 172.269 99.061 172.456 100.187H172.427Z" fill="white"/>
<path d="M186.848 84.7097L193.51 84.2292L193.881 89.3252L193.335 99.6992L189.214 99.9977L187.212 89.8057L186.848 84.7097ZM188.304 101.658L194.522 101.206L194.922 106.71L188.698 107.154L188.304 101.658Z" fill="white"/>
<path d="M77.8161 43.3523C77.7835 44.418 77.8395 45.4845 77.9835 46.5409C71.3868 48.7439 64.3516 49.3012 57.4903 48.1644C57.8197 46.9191 58.0197 45.6432 58.0872 44.3569C57.8578 45.6522 57.4071 46.8982 56.755 48.0406C55.4592 47.7931 54.7312 47.582 54.7312 47.582C54.7312 47.582 56.0561 40.4185 53.6683 35.206C51.2805 29.9935 52.4744 27.0815 54.2798 26.2589C57.6286 15.9649 70.2157 17.5884 74.4745 21.7671C79.8763 27.0669 79.9054 41.9982 80.8664 45.4125C80.0729 45.7547 79.2939 46.0677 78.5149 46.3444C78.1248 45.3904 77.8889 44.3804 77.8161 43.3523Z" fill="#263238"/>
<path d="M83.0212 59.3757L83.6764 61.4505C83.9167 62.1785 84.1569 62.9065 84.4044 63.5981C84.8922 65.0541 85.4018 66.5101 85.9478 67.9079C86.4938 69.3057 87.018 70.7762 87.5858 72.2031L88.4303 74.3871L88.6414 74.9258L88.6924 75.0496C88.6024 74.9708 88.4987 74.9091 88.3866 74.8676C88.2264 74.8093 88.1609 74.8676 88.2628 74.8676C88.4382 74.8669 88.6124 74.8399 88.7797 74.7875C89.349 74.6071 89.8961 74.3629 90.4104 74.0595C91.652 73.3361 92.8393 72.5234 93.9631 71.628C95.1424 70.7107 96.3 69.7279 97.4356 68.716C98.5713 67.7041 99.7143 66.6484 100.814 65.6147L103.049 67.5075C102.117 68.847 101.134 70.07 100.137 71.3149C99.1392 72.5598 98.018 73.7246 96.8678 74.8821C95.6838 76.0906 94.395 77.1917 93.0167 78.1727C92.228 78.7252 91.3808 79.189 90.4905 79.5559C89.9255 79.7825 89.3332 79.9343 88.7288 80.0073C87.9083 80.1094 87.0754 79.9965 86.3118 79.6797C85.4794 79.325 84.7703 78.7323 84.2734 77.9761C84.1642 77.8087 84.0623 77.6413 83.9822 77.4884L83.7856 77.0953L83.5236 76.5638C83.1814 75.8358 82.7956 75.1078 82.4971 74.4235C81.8346 72.9675 81.1721 71.5115 80.5679 70.0555C79.9636 68.5995 79.374 67.0998 78.8134 65.6001C78.5513 64.8721 78.2892 64.0786 78.0417 63.3142C77.7942 62.5498 77.554 61.8 77.3137 60.9045L83.0212 59.3757Z" fill="#FFC3BD"/>
<path d="M81.2956 52.9111C83.8072 53.5518 85.5617 63.8748 85.5617 63.8748L78.6457 68.5777C78.6457 68.5777 72.0209 58.16 73.9501 55.4009C75.9594 52.5326 77.6338 51.9793 81.2956 52.9111Z" fill="#FF6600"/>
<path d="M81.2956 52.9111C83.8072 53.5518 85.5617 63.8748 85.5617 63.8748L78.6457 68.5777C78.6457 68.5777 72.0209 58.16 73.9501 55.4009C75.9594 52.5326 77.6338 51.9793 81.2956 52.9111Z" fill="#FF6600"/>
<path opacity="0.4" d="M81.2956 52.9111C83.8072 53.5518 85.5617 63.8748 85.5617 63.8748L78.6457 68.5777C78.6457 68.5777 72.0209 58.16 73.9501 55.4009C75.9594 52.5326 77.6338 51.9793 81.2956 52.9111Z" fill="white"/>
<path opacity="0.3" d="M81.0701 55.2188L82.9993 65.6219L79.1118 68.2572L81.0701 55.2188Z" fill="black"/>
<path d="M100.697 65.862L103.005 60.3L105.851 65.862C105.851 65.862 104.002 68.6284 101.563 67.9513L100.697 65.862Z" fill="#FFC3BD"/>
<path d="M105.546 59.7253L109.2 61.1959L105.851 65.8624L102.998 60.3005L105.546 59.7253Z" fill="#FFC3BD"/>
<path d="M67.7185 226.699H73.8119L74.2195 212.598H68.1262L67.7185 226.699Z" fill="#FFC3BD"/>
<path d="M26.8633 208.536L32.4616 210.923L39.7926 198.722L34.187 196.334L26.8633 208.536Z" fill="#FFC3BD"/>
<path d="M33.539 210.094L27.715 206.512C27.6154 206.448 27.4957 206.423 27.3788 206.442C27.262 206.46 27.1561 206.522 27.0817 206.614L23.58 210.814C23.4929 210.924 23.4303 211.052 23.3964 211.188C23.3626 211.324 23.3583 211.466 23.3838 211.604C23.4093 211.741 23.4641 211.872 23.5444 211.987C23.6247 212.102 23.7287 212.199 23.8493 212.27C25.9023 213.486 26.9506 213.967 29.5132 215.539C31.0929 216.515 33.2915 218.087 35.4682 219.427C37.6449 220.766 39.1082 218.699 38.3001 217.934C34.7693 214.564 34.8713 212.962 34.2088 210.967C34.0987 210.605 33.8607 210.294 33.539 210.094Z" fill="#263238"/>
<path d="M74.0159 225.993H67.18C67.0623 225.992 66.9481 226.033 66.8584 226.109C66.7688 226.185 66.7098 226.292 66.6922 226.408L65.9132 231.824C65.8942 231.963 65.9056 232.105 65.9466 232.239C65.9876 232.373 66.0573 232.496 66.1507 232.601C66.2442 232.705 66.3592 232.788 66.4879 232.844C66.6166 232.9 66.7559 232.927 66.896 232.924C69.2839 232.887 70.4341 232.742 73.448 232.742C75.2972 232.742 79.1264 232.938 81.6817 232.938C84.237 232.938 84.368 230.412 83.3052 230.179C78.5368 229.152 76.6585 227.74 75.0496 226.393C74.7647 226.139 74.3975 225.997 74.0159 225.993Z" fill="#263238"/>
<path opacity="0.2" d="M74.2122 212.605L74.0084 219.87H67.915L68.1262 212.605H74.2122Z" fill="black"/>
<path opacity="0.2" d="M34.1868 196.342L39.7851 198.722L36.0068 205.012L30.4084 202.624L34.1868 196.342Z" fill="black"/>
<path d="M81.2959 52.9111C81.2959 52.9111 84.2079 53.9303 78.3839 89.6532H53.6319C54.0469 79.5923 54.0614 73.3897 49.2639 52.7363C52.725 52.0211 56.2335 51.5588 59.7617 51.3531C63.5012 51.0835 67.2552 51.0835 70.9947 51.3531C75.8286 51.7899 81.2959 52.9111 81.2959 52.9111Z" fill="#FF6600"/>
<path opacity="0.4" d="M81.2959 52.9111C81.2959 52.9111 84.2079 53.9303 78.3839 89.6532H53.6319C54.0469 79.5923 54.0614 73.3897 49.2639 52.7363C52.725 52.0211 56.2335 51.5588 59.7617 51.3531C63.5012 51.0835 67.2552 51.0835 70.9947 51.3531C75.8286 51.7899 81.2959 52.9111 81.2959 52.9111Z" fill="white"/>
<path d="M59.7761 51.3461C63.5159 51.0835 67.2694 51.0835 71.0091 51.3461C71.6134 51.4043 72.2322 51.4698 72.8437 51.5426C73.0983 51.9252 73.2615 52.3611 73.3208 52.8168C73.3801 53.2725 73.334 53.7357 73.1859 54.1707C72.3924 56.129 69.5459 56.3547 67.4784 56.3547C59.8271 56.3547 58.5312 51.8848 58.4803 51.6955L58.4075 51.4261L59.7761 51.3461Z" fill="white"/>
<path d="M60.89 38.7078C61.618 42.3478 62.3096 48.9434 59.7761 51.3531C59.7761 51.3531 60.7662 54.9931 67.4784 54.9931C74.8603 54.9931 71.0092 51.3531 71.0092 51.3531C66.976 50.3922 67.0852 47.4001 67.7841 44.5973L60.89 38.7078Z" fill="#FFC3BD"/>
<path d="M61.6252 36.1379C60.7588 38.999 61.96 45.7694 63.7436 48.3902C60.2274 46.3736 59.0408 40.2293 59.0408 40.2293L61.6252 36.1379Z" fill="#263238"/>
<path opacity="0.2" d="M63.7 41.1101L67.784 44.5899C67.6049 45.2423 67.4879 45.9102 67.4346 46.5847C65.8985 46.359 63.7946 44.67 63.6199 43.0611C63.5294 42.4113 63.5566 41.7504 63.7 41.1101Z" fill="black"/>
<path d="M57.5559 32.2575C58.9682 38.1325 59.4341 40.6514 62.9722 43.1775C68.2939 46.9704 75.2026 43.9565 75.5739 37.7758C75.9088 32.2138 73.55 23.5434 67.3256 22.2038C65.9542 21.901 64.5281 21.9537 63.1828 22.357C61.8375 22.7602 60.6175 23.5005 59.6387 24.5078C58.66 25.515 57.9548 26.7557 57.5903 28.112C57.2258 29.4683 57.2139 30.8953 57.5559 32.2575Z" fill="#FFC3BD"/>
<path d="M78.3908 89.6532C78.3908 89.6532 83.1883 136.551 82.7588 155.115C82.3439 174.422 75.2677 218.451 75.2677 218.451H67.0413C67.0413 218.451 68.3444 175.535 67.6164 156.571C66.8229 135.896 60.2563 89.6387 60.2563 89.6387L78.3908 89.6532Z" fill="#FF6600"/>
<path opacity="0.4" d="M78.3908 89.6532C78.3908 89.6532 83.1883 136.551 82.7588 155.115C82.3439 174.422 75.2677 218.451 75.2677 218.451H67.0413C67.0413 218.451 68.3444 175.535 67.6164 156.571C66.8229 135.896 60.2563 89.6387 60.2563 89.6387L78.3908 89.6532Z" fill="black"/>
<path d="M66.3571 218.757H76.0104L76.7238 215.677L65.9058 215.299L66.3571 218.757Z" fill="#FF6600"/>
<path opacity="0.2" d="M67.7261 101.323C73.7977 113.539 68.9419 135.823 66.7943 144.115C65.695 131.666 63.8386 116.451 62.3899 105.261C63.3072 98.9715 64.9233 95.6883 67.7261 101.323Z" fill="black"/>
<path d="M71.861 89.6531C71.861 89.6531 66.2554 138.429 62.0257 154.059C57.0098 172.645 37.9143 204.291 37.9143 204.291L30.2776 201.044C30.2776 201.044 42.093 165.11 45.9369 155.319C54.1269 134.425 47.1162 103.289 53.661 89.6531H71.861Z" fill="#FF6600"/>
<path opacity="0.4" d="M71.861 89.6531C71.861 89.6531 66.2554 138.429 62.0257 154.059C57.0098 172.645 37.9143 204.291 37.9143 204.291L30.2776 201.044C30.2776 201.044 42.093 165.11 45.9369 155.319C54.1269 134.425 47.1162 103.289 53.661 89.6531H71.861Z" fill="black"/>
<path d="M29.2219 201.066L38.7005 205.099L40.9791 202.551L30.0446 197.302L29.2219 201.066Z" fill="#FF6600"/>
<path d="M66.896 32.3376C66.9833 32.8181 67.3037 33.1675 67.624 33.1093C67.9443 33.051 68.1263 32.6142 68.039 32.1338C67.9516 31.6533 67.6313 31.3038 67.311 31.3548C66.9906 31.4057 66.7722 31.8498 66.896 32.3376Z" fill="#263238"/>
<path d="M72.327 31.3769C72.407 31.8574 72.7346 32.2068 73.055 32.1486C73.3753 32.0903 73.5646 31.6535 73.4772 31.1731C73.3898 30.6926 73.0695 30.3431 72.7492 30.3941C72.4289 30.4451 72.2396 30.8891 72.327 31.3769Z" fill="#263238"/>
<path d="M72.6108 30.4523L73.7101 29.9062C73.7101 29.9062 73.2733 30.9182 72.6108 30.4523Z" fill="#263238"/>
<path d="M71.0237 32.4617C71.6487 33.4891 72.4131 34.425 73.295 35.2426C73.079 35.4613 72.818 35.6306 72.5302 35.7387C72.2424 35.8467 71.9345 35.8911 71.6279 35.8687L71.0237 32.4617Z" fill="#ED847E"/>
<path d="M69.4366 38.1472C69.7124 38.1467 69.9877 38.1223 70.2593 38.0744C70.2801 38.0736 70.3004 38.0683 70.319 38.0589C70.3376 38.0495 70.3539 38.0363 70.3669 38.0201C70.38 38.0038 70.3894 37.985 70.3945 37.9648C70.3996 37.9447 70.4004 37.9237 70.3967 37.9032C70.393 37.8827 70.385 37.8632 70.3732 37.8461C70.3614 37.829 70.346 37.8146 70.3282 37.804C70.3103 37.7933 70.2904 37.7865 70.2697 37.7842C70.249 37.7819 70.2281 37.784 70.2083 37.7905C69.6088 37.9099 68.9896 37.8858 68.4012 37.72C67.8129 37.5543 67.2721 37.2516 66.8231 36.8368C66.7959 36.8101 66.7593 36.7952 66.7212 36.7952C66.6831 36.7952 66.6465 36.8101 66.6193 36.8368C66.6051 36.8497 66.5939 36.8655 66.5862 36.883C66.5784 36.9006 66.5745 36.9195 66.5745 36.9387C66.5745 36.9579 66.5784 36.9768 66.5862 36.9944C66.5939 37.0119 66.6051 37.0277 66.6193 37.0406C67.3791 37.7613 68.3895 38.1581 69.4366 38.1472Z" fill="#263238"/>
<path d="M59.616 28.814C59.7752 30.3621 60.0183 31.9005 60.344 33.4222C60.344 33.4222 63.984 28.814 64.5883 26.3461C64.4439 27.3177 64.162 28.2639 63.7511 29.1562C63.7511 29.1562 68.6505 28.086 69.131 24.8537C69.1227 26.3008 68.9617 27.7429 68.6505 29.1562C68.6505 29.1562 73.3243 27.3216 72.8948 24.2203C72.4653 21.119 65.2872 19.9178 61.9748 20.9662C58.6624 22.0145 55.4228 25.4142 56.3983 30.088C57.3738 34.7618 59.2448 36.5162 59.2448 36.5162C59.2448 36.5162 57.898 31.8061 59.616 28.814Z" fill="#263238"/>
<path d="M57.3009 36.6839C57.7503 37.7623 58.609 38.6184 59.6888 39.0645C61.1448 39.6469 62.0111 38.402 61.7563 36.9605C61.5306 35.6574 60.5041 33.7937 58.9971 33.8228C58.6674 33.8375 58.3465 33.934 58.0634 34.1036C57.7803 34.2733 57.5439 34.5109 57.3755 34.7948C57.2072 35.0787 57.1122 35.4001 57.0992 35.7299C57.0862 36.0597 57.1555 36.3876 57.3009 36.6839Z" fill="#FFC3BD"/>
<path d="M60.4969 26.572C59.7689 29.484 61.2831 36.1816 63.1905 38.7078C59.5505 36.8659 58.0945 30.7799 58.0945 30.7799L60.4969 26.572Z" fill="#263238"/>
<path d="M64.9013 30.6778C64.9387 30.6665 64.9734 30.6478 65.0034 30.6228C65.0334 30.5978 65.0581 30.567 65.076 30.5322C65.2294 30.2038 65.4586 29.9165 65.7446 29.6938C66.0305 29.4711 66.3653 29.3193 66.7213 29.251C66.7965 29.2401 66.8649 29.2009 66.9122 29.1414C66.9596 29.0818 66.9824 29.0064 66.9761 28.9306C66.9725 28.8926 66.9612 28.8557 66.943 28.822C66.9248 28.7884 66.9001 28.7589 66.8701 28.7351C66.8402 28.7113 66.8058 28.6938 66.769 28.6836C66.7321 28.6734 66.6936 28.6708 66.6557 28.6758C66.2041 28.7542 65.7779 28.9399 65.413 29.2174C65.0482 29.4948 64.7553 29.8559 64.5591 30.2702C64.5344 30.3208 64.5249 30.3775 64.5317 30.4334C64.5386 30.4893 64.5615 30.5421 64.5977 30.5852C64.6339 30.6284 64.6819 30.6601 64.7357 30.6765C64.7896 30.693 64.8471 30.6934 64.9013 30.6778Z" fill="#263238"/>
<path d="M74.3144 28.421C74.351 28.4226 74.3875 28.4162 74.4214 28.4024C74.4553 28.3886 74.4859 28.3676 74.511 28.3409C74.5643 28.2865 74.5942 28.2133 74.5942 28.1371C74.5942 28.0609 74.5643 27.9877 74.511 27.9332C74.2006 27.5973 73.8154 27.3391 73.3866 27.1798C72.9578 27.0204 72.4975 26.9643 72.043 27.016C72.0052 27.0229 71.9691 27.0374 71.9369 27.0584C71.9046 27.0794 71.8768 27.1066 71.8552 27.1384C71.8335 27.1703 71.8184 27.2061 71.8106 27.2438C71.8029 27.2815 71.8027 27.3203 71.8101 27.3581C71.8259 27.4317 71.8696 27.4964 71.9321 27.5384C71.9945 27.5805 72.0708 27.5968 72.145 27.5838C72.5034 27.5438 72.8662 27.5888 73.2039 27.7153C73.5417 27.8418 73.8448 28.0462 74.0887 28.3118C74.1158 28.3457 74.1502 28.373 74.1892 28.3919C74.2283 28.4108 74.271 28.4208 74.3144 28.421Z" fill="#263238"/>
<path d="M52.2849 61.3776C51.273 64.5735 50.3048 67.9296 49.4821 71.2347C48.6541 74.4974 48.0485 77.8126 47.6694 81.1574L47.6112 81.7689C47.6112 81.9654 47.6112 82.0091 47.6112 82.1838C47.6192 82.5272 47.646 82.8699 47.6913 83.2103C47.784 84.0078 47.9176 84.7999 48.0917 85.5836C48.4338 87.207 48.8197 88.8814 49.3147 90.5413C49.8097 92.2011 50.232 93.8901 50.727 95.5645L52.183 100.588L49.4821 101.702C47.8223 98.5274 46.3809 95.2951 45.0341 91.9609C44.3861 90.2865 43.7528 88.5975 43.2286 86.8139C42.9665 85.9258 42.719 85.0158 42.5006 84.0257C42.3969 83.5014 42.324 82.9715 42.2822 82.4386C42.2822 82.1693 42.2822 81.7689 42.2822 81.5286V80.8006C42.3439 78.9456 42.5141 77.0957 42.7918 75.2606C43.0321 73.4406 43.3888 71.6642 43.7746 69.8952C44.5321 66.3522 45.5046 62.8586 46.6866 59.4338L52.2849 61.3776Z" fill="#FFC3BD"/>
<path d="M49.2784 52.7363C46.8032 53.4643 43.8257 62.0183 43.8257 62.0183L53.4353 68.8906C53.4353 68.8906 56.9442 61.7707 55.9032 58.5675C54.8185 55.2333 52.1103 51.8772 49.2784 52.7363Z" fill="#FF6600"/>
<path opacity="0.4" d="M49.2784 52.7363C46.8032 53.4643 43.8257 62.0183 43.8257 62.0183L53.4353 68.8906C53.4353 68.8906 56.9442 61.7707 55.9032 58.5675C54.8185 55.2333 52.1103 51.8772 49.2784 52.7363Z" fill="white"/>
<path d="M35.9997 212.409C36.1181 212.367 36.2258 212.3 36.3152 212.212C36.4045 212.124 36.4733 212.017 36.5166 211.899C36.5587 211.823 36.5808 211.738 36.5808 211.652C36.5808 211.565 36.5587 211.48 36.5166 211.404C36.0798 210.764 33.874 210.814 33.6046 210.822C33.5767 210.822 33.5495 210.831 33.5263 210.846C33.503 210.862 33.4847 210.884 33.4736 210.909C33.4594 210.932 33.4519 210.959 33.4519 210.986C33.4519 211.013 33.4594 211.039 33.4736 211.062C34.0487 211.637 35.1261 212.576 35.8833 212.431L35.9997 212.409ZM33.9541 211.084C34.8349 211.084 36.0143 211.208 36.2473 211.55C36.2672 211.583 36.2777 211.62 36.2777 211.659C36.2777 211.697 36.2672 211.735 36.2473 211.768C36.2151 211.856 36.1617 211.935 36.0918 211.997C36.022 212.059 35.9378 212.103 35.8469 212.125C35.4465 212.227 34.7476 211.812 33.9541 211.084Z" fill="#FF6600"/>
<path d="M34.6018 210.931C35.2716 210.72 35.985 210.348 36.1379 209.933C36.1759 209.826 36.1764 209.708 36.1394 209.6C36.1025 209.491 36.0301 209.399 35.9341 209.336C35.8493 209.266 35.7495 209.215 35.6423 209.189C35.5351 209.162 35.4232 209.16 35.3153 209.184C34.4489 209.336 33.5171 210.822 33.4807 210.887C33.4679 210.909 33.4612 210.934 33.4612 210.96C33.4612 210.985 33.4679 211.011 33.4807 211.033C33.4938 211.054 33.5119 211.072 33.5335 211.085C33.5551 211.097 33.5794 211.104 33.6044 211.106C33.9436 211.096 34.2796 211.037 34.6018 210.931ZM35.2716 209.475H35.3662C35.4347 209.461 35.5054 209.462 35.5734 209.478C35.6414 209.494 35.7049 209.526 35.7593 209.569C35.9049 209.686 35.8904 209.773 35.8685 209.839C35.7229 210.239 34.6164 210.72 33.8811 210.814C34.2156 210.255 34.6963 209.796 35.2716 209.489V209.475Z" fill="#FF6600"/>
<path d="M76.3017 227.056C76.8148 227.098 77.3274 226.967 77.7577 226.685C77.8577 226.594 77.9339 226.48 77.9796 226.353C78.0253 226.226 78.0391 226.09 78.0198 225.957C78.014 225.878 77.9883 225.802 77.945 225.735C77.9017 225.669 77.8423 225.615 77.7722 225.578C77.0442 225.17 74.6054 226.408 74.3288 226.546C74.3021 226.557 74.2792 226.576 74.2632 226.6C74.2471 226.624 74.2385 226.652 74.2385 226.681C74.2385 226.71 74.2471 226.738 74.2632 226.762C74.2792 226.786 74.3021 226.805 74.3288 226.816C74.9766 226.962 75.6376 227.043 76.3017 227.056ZM77.3864 225.796C77.479 225.791 77.5717 225.808 77.6558 225.847C77.6845 225.863 77.7084 225.886 77.7251 225.915C77.7417 225.943 77.7505 225.975 77.7504 226.008C77.764 226.091 77.7565 226.177 77.7285 226.257C77.7005 226.337 77.653 226.409 77.5902 226.466C77.219 226.801 76.2143 226.859 74.8675 226.634C75.6537 226.214 76.5054 225.931 77.3864 225.796Z" fill="#FF6600"/>
<path d="M74.4162 226.845H74.4744C75.2024 226.517 76.6584 225.207 76.5274 224.515C76.5274 224.348 76.3818 224.151 75.9814 224.108C75.8381 224.092 75.693 224.105 75.5552 224.148C75.4174 224.19 75.2899 224.261 75.1806 224.355C74.4526 224.996 74.2779 226.634 74.2706 226.699C74.2697 226.725 74.2752 226.75 74.2866 226.773C74.2981 226.796 74.3151 226.816 74.3361 226.83C74.3599 226.845 74.3886 226.85 74.4162 226.845ZM75.8722 224.377H75.9596C76.2216 224.377 76.2435 224.515 76.2435 224.544C76.3163 224.959 75.3408 226 74.5982 226.444C74.6564 225.753 74.9287 225.096 75.3772 224.566C75.5107 224.445 75.6845 224.377 75.8649 224.377H75.8722Z" fill="#FF6600"/>
<path d="M53.2896 88.2043L52.6635 90.3883C52.5761 90.5558 52.78 90.7305 53.0639 90.7305H78.5439C78.7696 90.7305 78.9516 90.6213 78.9661 90.483L79.1918 88.299C79.1918 88.1461 79.0098 88.015 78.7696 88.015H53.6973C53.6188 88.009 53.54 88.0232 53.4686 88.0563C53.3972 88.0895 53.3356 88.1404 53.2896 88.2043Z" fill="#263238"/>
<path d="M56.6528 91H55.9758C55.8448 91 55.7428 90.9345 55.7501 90.8471L56.0632 87.9351C56.0632 87.855 56.1942 87.7822 56.3252 87.7822H56.995C57.1333 87.7822 57.228 87.855 57.2207 87.9351L56.9076 90.8471C56.9076 90.9636 56.7912 91 56.6528 91Z" fill="#FF6600"/>
<path opacity="0.4" d="M56.6528 91H55.9758C55.8448 91 55.7428 90.9345 55.7501 90.8471L56.0632 87.9351C56.0632 87.855 56.1942 87.7822 56.3252 87.7822H56.995C57.1333 87.7822 57.228 87.855 57.2207 87.9351L56.9076 90.8471C56.9076 90.9636 56.7912 91 56.6528 91Z" fill="black"/>
<path d="M76.6221 91H75.9524C75.8213 91 75.7194 90.9345 75.7267 90.8471L76.047 87.9351C76.047 87.855 76.1708 87.7822 76.3018 87.7822H76.9716C77.1099 87.7822 77.2118 87.855 77.1972 87.9351L76.8842 90.8471C76.8769 90.9636 76.7604 91 76.6221 91Z" fill="#FF6600"/>
<path opacity="0.4" d="M76.6221 91H75.9524C75.8213 91 75.7194 90.9345 75.7267 90.8471L76.047 87.9351C76.047 87.855 76.1708 87.7822 76.3018 87.7822H76.9716C77.1099 87.7822 77.2118 87.855 77.1972 87.9351L76.8842 90.8471C76.8769 90.9636 76.7604 91 76.6221 91Z" fill="black"/>
<path d="M66.6412 91H65.9714C65.8331 91 65.7312 90.9345 65.7458 90.8471L66.0588 87.9351C66.0588 87.855 66.1826 87.7822 66.3209 87.7822H66.9907C67.1217 87.7822 67.2236 87.855 67.2163 87.9351L66.9033 90.8471C66.896 90.9636 66.7722 91 66.6412 91Z" fill="#FF6600"/>
<path opacity="0.4" d="M66.6412 91H65.9714C65.8331 91 65.7312 90.9345 65.7458 90.8471L66.0588 87.9351C66.0588 87.855 66.1826 87.7822 66.3209 87.7822H66.9907C67.1217 87.7822 67.2236 87.855 67.2163 87.9351L66.9033 90.8471C66.896 90.9636 66.7722 91 66.6412 91Z" fill="black"/>
<path d="M67.1433 31.4057L68.2426 30.8669C68.2426 30.8669 67.8058 31.8789 67.1433 31.4057Z" fill="#263238"/>
<path d="M51.979 99.7651L57.1988 103.769L51.1491 105.101C51.1491 105.101 48.5793 102.189 49.4674 99.787L51.979 99.7651Z" fill="#FFC3BD"/>
<path d="M58.4805 108.727L53.3553 109.564L50.5598 104.308L57.1992 103.769L58.4805 108.727Z" fill="#FFC3BD"/>
</svg>
