<svg width="302" height="288" viewBox="0 0 302 288" fill="none" xmlns="http://www.w3.org/2000/svg">
<path d="M151 287.538C234.395 287.538 302 284.11 302 279.882C302 275.653 234.395 272.225 151 272.225C67.605 272.225 0 275.653 0 279.882C0 284.11 67.605 287.538 151 287.538Z" fill="#F5F5F5"/>
<path d="M59.7107 257.669H22.9688V257.882H59.7107V257.669Z" fill="#EBEBEB"/>
<path d="M72.6755 257.669H67.2905V257.882H72.6755V257.669Z" fill="#EBEBEB"/>
<path d="M26.8139 219.975H114.037V189.868H26.8139V219.975Z" fill="#EBEBEB"/>
<path d="M26.8139 250.081H114.037V219.975H26.8139V250.081Z" fill="#EBEBEB"/>
<path d="M62.5771 219.975L51.7222 189.868H68.43L79.2765 219.975H62.5771Z" fill="#F5F5F5"/>
<path d="M43.6406 189.868H47.3157L58.1621 219.975H54.4956L43.6406 189.868Z" fill="#F5F5F5"/>
<path d="M73.4326 250.081L62.5776 219.975H79.277L90.132 250.081H73.4326Z" fill="#F5F5F5"/>
<path d="M54.4961 219.975H58.1626L69.0176 250.081H65.3511L54.4961 219.975Z" fill="#F5F5F5"/>
<path d="M26.8139 160.034H114.037V129.928H26.8139V160.034Z" fill="#EBEBEB"/>
<path d="M26.8139 190.141H114.037V160.034H26.8139V190.141Z" fill="#EBEBEB"/>
<path d="M58.2644 160.034L47.418 129.919H64.1173L74.9723 160.034H58.2644Z" fill="#F5F5F5"/>
<path d="M39.3364 129.919H43.003L53.8579 160.034H50.1829L39.3364 129.919Z" fill="#F5F5F5"/>
<path d="M69.1196 190.132L58.2646 160.034H74.9725L85.819 190.132H69.1196Z" fill="#F5F5F5"/>
<path d="M50.1831 160.034H53.8581L64.7046 190.132H61.0381L50.1831 160.034Z" fill="#F5F5F5"/>
<path d="M114.037 134.556V131.51H26.8139V134.556H114.037Z" fill="#E0E0E0"/>
<path d="M114.037 164.424V161.378H26.8139V164.424H114.037Z" fill="#E0E0E0"/>
<path d="M68.1924 148.873C67.845 148.873 67.5117 148.735 67.266 148.489C67.0204 148.244 66.8823 147.91 66.8823 147.563C66.8823 147.216 67.0204 146.882 67.266 146.637C67.5117 146.391 67.845 146.253 68.1924 146.253H72.6586C73.0061 146.253 73.3393 146.391 73.585 146.637C73.8307 146.882 73.9687 147.216 73.9687 147.563C73.9687 147.91 73.8307 148.244 73.585 148.489C73.3393 148.735 73.0061 148.873 72.6586 148.873H68.1924Z" fill="#E0E0E0"/>
<path d="M68.1924 148.371C67.845 148.371 67.5117 148.233 67.266 147.987C67.0204 147.742 66.8823 147.409 66.8823 147.061C66.8823 146.714 67.0204 146.38 67.266 146.135C67.5117 145.889 67.845 145.751 68.1924 145.751H72.6586C73.0061 145.751 73.3393 145.889 73.585 146.135C73.8307 146.38 73.9687 146.714 73.9687 147.061C73.9687 147.409 73.8307 147.742 73.585 147.987C73.3393 148.233 73.0061 148.371 72.6586 148.371H68.1924Z" fill="#F5F5F5"/>
<path d="M68.1924 176.623C67.845 176.623 67.5117 176.485 67.266 176.239C67.0204 175.993 66.8823 175.66 66.8823 175.313C66.8823 174.965 67.0204 174.632 67.266 174.386C67.5117 174.141 67.845 174.003 68.1924 174.003H72.6586C72.8306 174.003 73.001 174.037 73.16 174.102C73.3189 174.168 73.4633 174.265 73.585 174.386C73.7066 174.508 73.8031 174.652 73.869 174.811C73.9348 174.97 73.9687 175.141 73.9687 175.313C73.9687 175.485 73.9348 175.655 73.869 175.814C73.8031 175.973 73.7066 176.117 73.585 176.239C73.4633 176.361 73.3189 176.457 73.16 176.523C73.001 176.589 72.8306 176.623 72.6586 176.623H68.1924Z" fill="#E0E0E0"/>
<path d="M68.1924 176.164C67.845 176.164 67.5117 176.026 67.266 175.78C67.0204 175.534 66.8823 175.201 66.8823 174.854C66.8823 174.506 67.0204 174.173 67.266 173.927C67.5117 173.681 67.845 173.543 68.1924 173.543H72.6586C73.0061 173.543 73.3393 173.681 73.585 173.927C73.8307 174.173 73.9687 174.506 73.9687 174.854C73.9687 175.201 73.8307 175.534 73.585 175.78C73.3393 176.026 73.0061 176.164 72.6586 176.164H68.1924Z" fill="#F5F5F5"/>
<path d="M25.291 128.575V191.451H115.559V128.575H25.291ZM28.3365 161.634H112.514V188.414H28.3365V161.634ZM28.3365 131.799H112.514V158.588H28.3365V131.799Z" fill="#F5F5F5"/>
<path d="M114.037 194.505V191.459H26.8139V194.505H114.037Z" fill="#E0E0E0"/>
<path d="M114.037 224.373V221.327H26.8139V224.373H114.037Z" fill="#E0E0E0"/>
<path d="M68.1924 208.78C67.845 208.78 67.5117 208.642 67.266 208.396C67.0204 208.15 66.8823 207.817 66.8823 207.47C66.8823 207.122 67.0204 206.789 67.266 206.543C67.5117 206.297 67.845 206.159 68.1924 206.159H72.6586C73.0061 206.159 73.3393 206.297 73.585 206.543C73.8307 206.789 73.9687 207.122 73.9687 207.47C73.9687 207.817 73.8307 208.15 73.585 208.396C73.3393 208.642 73.0061 208.78 72.6586 208.78H68.1924Z" fill="#E0E0E0"/>
<path d="M68.1924 208.312C67.8643 208.285 67.5581 208.136 67.3349 207.894C67.1117 207.652 66.9878 207.335 66.9878 207.006C66.9878 206.677 67.1117 206.36 67.3349 206.118C67.5581 205.876 67.8643 205.727 68.1924 205.7H72.6586C72.8389 205.685 73.0203 205.708 73.1914 205.767C73.3624 205.826 73.5194 205.92 73.6524 206.043C73.7854 206.166 73.8915 206.315 73.9641 206.48C74.0367 206.646 74.0742 206.825 74.0742 207.006C74.0742 207.187 74.0367 207.366 73.9641 207.532C73.8915 207.697 73.7854 207.846 73.6524 207.969C73.5194 208.092 73.3624 208.185 73.1914 208.244C73.0203 208.303 72.8389 208.326 72.6586 208.312H68.1924Z" fill="#F5F5F5"/>
<path d="M68.1924 236.564C67.8643 236.537 67.5581 236.388 67.3349 236.146C67.1117 235.904 66.9878 235.587 66.9878 235.258C66.9878 234.929 67.1117 234.612 67.3349 234.37C67.5581 234.128 67.8643 233.979 68.1924 233.952H72.6586C72.8389 233.937 73.0203 233.96 73.1914 234.019C73.3624 234.078 73.5194 234.172 73.6524 234.295C73.7854 234.418 73.8915 234.566 73.9641 234.732C74.0367 234.898 74.0742 235.077 74.0742 235.258C74.0742 235.439 74.0367 235.618 73.9641 235.783C73.8915 235.949 73.7854 236.098 73.6524 236.221C73.5194 236.343 73.3624 236.437 73.1914 236.496C73.0203 236.555 72.8389 236.578 72.6586 236.564H68.1924Z" fill="#E0E0E0"/>
<path d="M68.1924 236.104C67.8643 236.078 67.5581 235.929 67.3349 235.687C67.1117 235.445 66.9878 235.128 66.9878 234.798C66.9878 234.469 67.1117 234.152 67.3349 233.91C67.5581 233.668 67.8643 233.519 68.1924 233.493H72.6586C72.8389 233.478 73.0203 233.501 73.1914 233.56C73.3624 233.619 73.5194 233.713 73.6524 233.835C73.7854 233.958 73.8915 234.107 73.9641 234.273C74.0367 234.438 74.0742 234.617 74.0742 234.798C74.0742 234.979 74.0367 235.158 73.9641 235.324C73.8915 235.49 73.7854 235.639 73.6524 235.761C73.5194 235.884 73.3624 235.978 73.1914 236.037C73.0203 236.096 72.8389 236.119 72.6586 236.104H68.1924Z" fill="#F5F5F5"/>
<path d="M25.291 188.516V251.4H115.559V188.516H25.291ZM28.3365 221.566H112.514V248.354H28.3365V221.566ZM28.3365 191.74H112.514V218.52H28.3365V191.74Z" fill="#F5F5F5"/>
<path d="M192.88 36.1626L217.977 31.8186C219.685 31.5229 220.831 29.8984 220.535 28.1901L216.191 3.09319C215.895 1.38492 214.271 0.239783 212.562 0.535467L187.466 4.87948C185.757 5.17516 184.612 6.7997 184.908 8.50797L189.252 33.6049C189.548 35.3132 191.172 36.4583 192.88 36.1626Z" fill="#FF6600"/>
<path d="M201.659 32.1576C201.659 32.1576 207.384 40.8262 217.082 42.1704C217.082 42.1704 211.493 40.1202 210.192 30.2605L201.659 32.1576Z" fill="#FF6600"/>
<path d="M209.945 15.9603L205.895 16.4452C205.895 16.4452 204.568 13.7399 203.726 7.47876C203.022 7.48819 202.324 7.59703 201.65 7.80203C200.995 8.09127 201.718 15.1011 201.718 15.1011C201.718 15.1011 194.385 15.6115 194.062 15.9518C193.841 16.1815 193.926 17.2619 194.062 18.0275C194.08 18.2473 194.175 18.4536 194.331 18.6095C194.487 18.7654 194.693 18.8607 194.913 18.8782H195.177L196.478 25.7689C196.52 26.0295 196.661 26.2636 196.872 26.4222C197.083 26.5808 197.348 26.6516 197.61 26.6196L204.415 25.7689C205.091 25.6734 205.722 25.377 206.227 24.9182L206.891 24.3142L211.144 24.042L209.945 15.9603Z" fill="#FF6600"/>
<path opacity="0.7" d="M209.945 15.9603L205.895 16.4452C205.895 16.4452 204.568 13.7399 203.726 7.47876C203.022 7.48819 202.324 7.59703 201.65 7.80203C200.995 8.09127 201.718 15.1011 201.718 15.1011C201.718 15.1011 194.385 15.6115 194.062 15.9518C193.841 16.1815 193.926 17.2619 194.062 18.0275C194.08 18.2473 194.175 18.4536 194.331 18.6095C194.487 18.7654 194.693 18.8607 194.913 18.8782H195.177L196.478 25.7689C196.52 26.0295 196.661 26.2636 196.872 26.4222C197.083 26.5808 197.348 26.6516 197.61 26.6196L204.415 25.7689C205.091 25.6734 205.722 25.377 206.227 24.9182L206.891 24.3142L211.144 24.042L209.945 15.9603Z" fill="white"/>
<path d="M224.365 65.8198C220.656 65.6751 206.211 89.2056 206.211 89.2056L196.393 87.3341L194.284 92.3532C194.284 92.3532 203.14 96.6748 206.695 97.0576C210.251 97.4404 223.905 78.4612 223.905 78.4612L224.365 65.8198Z" fill="#FF6600"/>
<path opacity="0.2" d="M224.365 65.8111L223.905 78.4611C223.905 78.4611 223.574 78.9205 223.004 79.6861C221.966 81.1068 220.103 83.5994 217.984 86.2621C213.842 91.4514 208.712 97.3212 206.73 97.066C203.165 96.6832 194.318 92.3786 194.318 92.3786L196.428 87.3595L206.236 89.214C206.236 89.214 220.656 65.675 224.365 65.8111Z" fill="white"/>
<path opacity="0.2" d="M222.969 79.6776C221.931 81.0983 220.068 83.5908 217.95 86.2535C218.027 81.2344 222.416 74.9902 222.416 74.9902C222.416 74.9902 222.731 77.0404 222.969 79.6776Z" fill="black"/>
<path d="M252.54 271.75H260.834C260.971 271.75 261.103 271.796 261.209 271.881C261.316 271.966 261.391 272.085 261.421 272.218L262.765 278.3C262.821 278.562 262.771 278.835 262.626 279.06C262.481 279.284 262.253 279.443 261.991 279.5H261.77C259.082 279.457 257.125 279.296 253.756 279.296C251.681 279.296 245.411 279.508 242.544 279.508C239.677 279.508 239.303 276.675 240.477 276.412C245.743 275.272 249.707 273.681 251.391 272.158C251.708 271.88 252.119 271.733 252.54 271.75V271.75Z" fill="#263238"/>
<path d="M217.338 271.529H225.607C225.742 271.529 225.873 271.576 225.978 271.661C226.083 271.746 226.156 271.864 226.185 271.997L227.538 278.088C227.591 278.349 227.538 278.621 227.392 278.844C227.245 279.067 227.016 279.223 226.755 279.279C226.682 279.287 226.608 279.287 226.534 279.279C223.854 279.228 221.898 279.066 218.52 279.066C216.445 279.066 210.184 279.287 207.317 279.287C204.45 279.287 204.075 276.454 205.249 276.191C210.515 275.042 214.471 273.451 216.164 271.937C216.49 271.658 216.909 271.512 217.338 271.529Z" fill="#263238"/>
<path d="M256.938 117.908H220.681C217.227 136.735 206.441 213.187 214.182 272.541H226.458C226.458 272.541 225.318 182.366 236.156 153.255C237.406 168.849 250.082 272.473 250.082 272.473H262.578C262.578 272.473 260.707 233.494 258.835 196.667C257.661 173.485 256.989 122.664 256.938 117.908Z" fill="#263238"/>
<path opacity="0.2" d="M236.155 153.255C234.372 158.363 233.018 163.61 232.106 168.942C231.094 155.067 235.152 140.358 235.152 140.358L236.155 153.255Z" fill="black"/>
<path d="M220.375 118.342H256.87V122.689L219.907 122.239L220.375 118.342Z" fill="black"/>
<path d="M245.139 116.385H243.837V124.101H245.139V116.385Z" fill="#263238"/>
<path d="M226.67 116.385H225.369V124.101H226.67V116.385Z" fill="#263238"/>
<path d="M237.014 117.577H230.26V122.443H237.014V117.577Z" fill="white"/>
<path d="M256.989 119.04C257.95 98.2742 264.058 68.8483 264.058 68.8483C247.112 64.7649 224.364 65.7858 224.364 65.7858C219.932 81.6429 220.009 107.232 220.392 119.006L256.989 119.04Z" fill="#FF6600"/>
<path opacity="0.2" d="M264.058 68.8736C264.058 68.8736 263.378 72.1659 262.433 77.3126C261.983 79.7712 261.464 82.6551 260.945 85.8197C260.638 87.6657 260.324 89.5968 260.026 91.5874C259.728 93.5781 259.422 95.5262 259.175 97.5424C258.171 104.756 257.329 112.353 257.014 119.048H220.434C220.051 107.274 219.975 81.6853 224.407 65.8196C224.364 65.8111 247.121 64.7903 264.058 68.8736Z" fill="white"/>
<path opacity="0.2" d="M262.434 77.3127C261.983 79.7713 261.464 82.6552 260.945 85.8198C260.639 87.6658 260.324 89.5969 260.026 91.5876C257.338 84.5352 261.915 75.0073 261.915 75.0073L262.434 77.3127Z" fill="black"/>
<path d="M236.411 68.6186L237.321 73.1103C237.321 73.1103 232.089 94.9478 230.966 106.288L232.872 108.193L235.875 106.288C235.875 106.288 236.139 83.2251 238.793 73.5356L243.54 69.6479L239.797 68.4314L236.411 68.6186Z" fill="#263238"/>
<path d="M250.617 66.5853C247.486 69.4351 239.796 68.3802 239.796 68.3802C239.796 68.3802 235.007 67.0702 236.01 65.5729C238.835 65.105 240.204 63.7864 240.766 62.102C241.079 61.0578 241.177 59.9611 241.055 58.8779C241.01 58.2727 240.93 57.6706 240.817 57.0744L250.319 50.0391C249.069 54.6839 247.546 63.225 250.617 66.5853Z" fill="#EEC1BB"/>
<path opacity="0.2" d="M248.125 54.5139C247.742 60.2136 243.02 61.7789 240.766 62.1022C241.079 61.058 241.177 59.9613 241.055 58.878L248.125 54.5139Z" fill="black"/>
<path d="M249.222 62.9697L240.137 67.0701L239.609 63.7864L236.266 64.9604C235.685 65.164 235.19 65.558 234.861 66.0784C234.532 66.5988 234.389 67.2151 234.454 67.8273L234.828 71.4342L239.431 68.8821L241.727 72.1233L252.633 66.917L249.222 62.9697Z" fill="#FF6600"/>
<path opacity="0.3" d="M249.222 62.9697L240.137 67.0701L239.609 63.7864L236.266 64.9604C235.685 65.164 235.19 65.558 234.861 66.0784C234.532 66.5988 234.389 67.2151 234.454 67.8273L234.828 71.4342L239.431 68.8821L241.727 72.1233L252.633 66.917L249.222 62.9697Z" fill="white"/>
<path d="M230.847 36.8447C230.847 36.8447 229.426 45.9898 234.25 49.5287C239.073 53.0677 239.15 36.0281 239.15 36.0281L230.847 36.8447Z" fill="#263238"/>
<path d="M248.346 56.8363C247.325 58.3419 245.838 59.47 244.113 60.0465C242.388 60.623 240.521 60.616 238.801 60.0265C236.56 59.3129 234.676 57.77 233.535 55.7134C233.376 55.4374 233.231 55.1535 233.101 54.8627C230.728 49.2651 229.996 39.482 235.917 35.8325C237.94 34.5695 240.382 34.1611 242.706 34.697C245.03 35.233 247.046 36.6694 248.312 38.6908C249.067 39.8868 249.525 41.246 249.647 42.6551C250.353 49.1715 251.076 52.9826 248.346 56.8363Z" fill="#EEC1BB"/>
<path d="M240.111 46.0921C240.23 46.611 239.992 47.0959 239.643 47.1555C239.294 47.215 238.946 46.8237 238.852 46.3048C238.759 45.7858 238.98 45.3094 239.32 45.2499C239.66 45.1903 240.018 45.5646 240.111 46.0921Z" fill="#263238"/>
<path d="M234.114 47.0958C234.233 47.6148 233.986 48.0997 233.646 48.1507C233.305 48.2017 232.948 47.8274 232.863 47.3C232.778 46.7726 232.982 46.2962 233.322 46.2451C233.663 46.1941 234.054 46.5939 234.114 47.0958Z" fill="#263238"/>
<path d="M236.079 47.0361C235.721 48.7578 235.125 50.4212 234.309 51.9787C234.716 52.1761 235.161 52.2828 235.614 52.2916C236.066 52.3004 236.515 52.2111 236.929 52.0298L236.079 47.0361Z" fill="#D4827D"/>
<path d="M231.494 44.9179C231.548 44.9361 231.606 44.9402 231.663 44.9298C231.719 44.9194 231.772 44.8948 231.817 44.8584C232.107 44.59 232.456 44.3927 232.835 44.282C233.214 44.1712 233.614 44.1502 234.003 44.2204C234.042 44.232 234.083 44.2357 234.124 44.2313C234.164 44.2269 234.204 44.2144 234.239 44.1945C234.275 44.1747 234.306 44.148 234.332 44.1159C234.357 44.0838 234.375 44.047 234.386 44.0077C234.407 43.9265 234.396 43.8403 234.355 43.7673C234.313 43.6943 234.245 43.6401 234.165 43.6163V43.6163C233.678 43.5144 233.173 43.5307 232.694 43.6639C232.214 43.7971 231.773 44.0433 231.409 44.382C231.344 44.4351 231.304 44.5115 231.296 44.5944C231.288 44.6773 231.313 44.76 231.366 44.8243V44.8243C231.402 44.8634 231.446 44.8952 231.494 44.9179Z" fill="#263238"/>
<path d="M240.919 43.5057C240.978 43.497 241.032 43.4694 241.073 43.4272C241.115 43.3851 241.141 43.3305 241.149 43.2719C241.157 43.2133 241.145 43.1538 241.116 43.1023C241.087 43.0509 241.042 43.0103 240.987 42.9868V42.9868C240.566 42.7182 240.086 42.5554 239.589 42.5124C239.091 42.4695 238.59 42.5476 238.129 42.7401C238.092 42.7574 238.058 42.782 238.03 42.8125C238.003 42.8431 237.982 42.8789 237.968 42.9178C237.955 42.9567 237.949 42.9979 237.952 43.039C237.955 43.0801 237.966 43.1202 237.984 43.157V43.157C238.021 43.2309 238.085 43.2875 238.163 43.3145C238.241 43.3416 238.327 43.3369 238.401 43.3016V43.3016C238.771 43.1623 239.167 43.1105 239.56 43.1504C239.952 43.1902 240.33 43.3206 240.664 43.5313C240.706 43.5469 240.75 43.5528 240.795 43.5483C240.839 43.5439 240.882 43.5293 240.919 43.5057V43.5057Z" fill="#263238"/>
<path d="M243.531 35.3388V38.2567C244.04 38.4322 244.466 38.7905 244.725 39.2622C244.985 39.7339 245.059 40.2851 244.935 40.8089C244.288 43.361 246.109 46.9254 248.151 48.2015C248.151 48.2015 248.083 47.1466 249.001 47.2912C249.92 47.4358 250.328 52.9229 248.908 55.7387C248.908 55.7387 251.239 53.0675 252.03 47.1636C252.761 41.6936 252.404 37.2529 251.077 35.3303L243.531 35.3388Z" fill="#263238"/>
<path d="M253.374 47.47C252.9 49.0581 251.817 50.3944 250.362 51.1875C248.423 52.2169 246.959 50.6006 247.121 48.5248C247.257 46.6788 248.414 43.863 250.524 43.7099C252.634 43.5567 253.927 45.5133 253.374 47.47Z" fill="#EEC1BB"/>
<path d="M237.619 53.6292C238.075 54.3286 238.481 55.0592 238.835 55.8155L239.261 55.6879C241.175 55.1264 241.872 54.2332 242.076 53.4165C242.172 53.0166 242.172 52.5999 242.076 52.2C242.024 51.9743 241.941 51.7568 241.83 51.5535C240.801 52.4242 239.597 53.0626 238.299 53.425C237.874 53.5611 237.619 53.6292 237.619 53.6292Z" fill="#263238"/>
<path d="M238.265 53.425L238.639 54.063C240.443 53.5271 241.642 52.9146 242.042 52.2C241.99 51.9743 241.907 51.7568 241.796 51.5535C240.767 52.4242 239.563 53.0626 238.265 53.425V53.425Z" fill="white"/>
<path d="M239.261 55.6879C241.175 55.1264 241.872 54.2332 242.077 53.4165C241.352 53.6468 240.673 54.0008 240.069 54.4629C239.679 54.7775 239.397 55.2056 239.261 55.6879V55.6879Z" fill="#DE5753"/>
<path d="M250.617 36.7171C250.617 36.7171 253.756 32.889 246.228 30.541C238.699 28.1931 227.682 35.1859 229.92 37.9507C232.157 40.7154 239.873 39.5585 239.873 39.5585C238.795 39.4285 237.775 38.9982 236.93 38.3165C236.93 38.3165 248.091 39.0651 250.617 36.7171Z" fill="#263238"/>
<path d="M264.058 68.8823C268.831 70.4987 272.098 100.171 272.038 102.749C271.978 105.326 264.671 106.441 264.058 101.047C263.446 95.654 260.945 84.1865 260.945 84.1865C260.945 84.1865 260.281 78.9972 260.945 75.8496C261.608 72.702 264.058 68.8823 264.058 68.8823Z" fill="#FF6600"/>
<path opacity="0.2" d="M264.058 68.8823C268.831 70.4987 272.098 100.171 272.038 102.749C271.978 105.326 264.671 106.441 264.058 101.047C263.446 95.654 260.945 84.1865 260.945 84.1865C260.945 84.1865 260.281 78.9972 260.945 75.8496C261.608 72.702 264.058 68.8823 264.058 68.8823Z" fill="white"/>
<path d="M301.576 101.998L135.045 83.9663L122.502 199.81L289.032 217.842L301.576 101.998Z" fill="#F5F5F5"/>
<path opacity="0.6" d="M301.576 101.998L135.045 83.9663L122.502 199.81L289.032 217.842L301.576 101.998Z" fill="white"/>
<path d="M285.624 213.893L126.721 196.7L138.494 87.8699L297.398 105.063L285.624 213.893ZM127.665 195.943L284.867 212.957L296.462 105.82L139.252 88.8056L127.665 195.943Z" fill="#FF6600"/>
<path d="M287.402 216.003L278.137 214.999L278.495 211.724L134.156 196.105L133.798 199.38L124.534 198.385L125.538 189.121L128.898 189.487L139.107 95.3902L135.704 95.0244L136.708 85.7603L145.972 86.7641L145.623 90.0393L289.962 105.658L290.311 102.383L299.618 103.378L298.614 112.643L295.254 112.285L285.045 206.373L288.448 206.739L287.402 216.003ZM279.073 214.251L286.644 215.101L287.495 207.53L284.092 207.164L294.454 111.375L297.857 111.741L298.707 104.169L291.136 103.319L290.779 106.594L144.687 90.7964L145.045 87.5127L137.473 86.662L136.623 94.2333L139.983 94.5991L129.621 190.388L126.219 190.023L125.368 197.594L132.939 198.445L133.296 195.169L279.328 210.967L279.073 214.251Z" fill="#FF6600"/>
<path d="M140.8 90.8476L142.731 91.0603L142.518 92.9914L140.587 92.7872L140.8 90.8476ZM140.043 89.9119L139.949 90.7626L139.745 92.7022L139.651 93.5529L140.502 93.6465L142.442 93.8591L143.292 93.9442L143.386 93.0935L143.59 91.1624L143.684 90.3117L142.833 90.2181L140.893 90.0139L140.043 89.9204V89.9119Z" fill="#FF6600"/>
<path d="M129.817 192.353L131.748 192.558L131.535 194.489L129.604 194.285L129.817 192.353ZM129.06 191.409L128.966 192.26L128.762 194.191L128.668 195.042L129.519 195.127L131.459 195.339L132.309 195.433L132.403 194.582L132.607 192.651L132.701 191.8L131.85 191.715L129.91 191.503L129.06 191.409Z" fill="#FF6600"/>
<path d="M292.583 107.275L294.514 107.479L294.309 109.419L292.37 109.206L292.583 107.275ZM291.825 106.331L291.732 107.181L291.528 109.112L291.434 109.963L292.285 110.048L294.224 110.261L295.075 110.354L295.169 109.504L295.381 107.573L295.466 106.722L294.616 106.628L292.685 106.416L291.834 106.322L291.825 106.331Z" fill="#FF6600"/>
<path d="M281.6 208.772L283.531 208.985L283.327 210.916L281.387 210.703L281.6 208.772ZM280.842 207.836L280.749 208.687L280.545 210.627L280.451 211.477L281.302 211.571L283.233 211.775L284.084 211.869L284.177 211.018L284.39 209.078L284.475 208.228L283.624 208.134L281.693 207.93L280.842 207.836Z" fill="#FF6600"/>
<path d="M171.927 108.797C172.056 107.974 172.423 107.207 172.983 106.591C173.544 105.974 174.273 105.536 175.08 105.331C175.887 105.125 176.737 105.161 177.524 105.434C178.311 105.707 179.001 106.205 179.507 106.866L178.469 107.649C178.239 107.327 177.942 107.059 177.598 106.862C177.255 106.665 176.873 106.545 176.479 106.509C176.113 106.46 175.741 106.484 175.385 106.581C175.028 106.678 174.695 106.845 174.405 107.073C174.114 107.3 173.872 107.584 173.693 107.906C173.513 108.229 173.401 108.584 173.361 108.951C173.321 109.318 173.355 109.689 173.461 110.043C173.567 110.397 173.743 110.725 173.978 111.01C174.213 111.294 174.503 111.529 174.83 111.7C175.157 111.871 175.515 111.974 175.883 112.005C176.278 112.053 176.678 112.016 177.057 111.895C177.435 111.775 177.784 111.574 178.078 111.307L178.929 112.302C178.293 112.84 177.513 113.18 176.685 113.278C175.858 113.377 175.02 113.231 174.276 112.857C173.531 112.484 172.912 111.9 172.496 111.179C172.08 110.457 171.885 109.629 171.936 108.797H171.927Z" fill="#FF6600"/>
<path d="M186.185 113.059L186.049 114.284L180.188 113.646L181.038 105.82L186.746 106.441L186.619 107.657L182.365 107.198L182.144 109.231L185.93 109.639L185.794 110.839L182.017 110.431L181.787 112.583L186.185 113.059Z" fill="#FF6600"/>
<path d="M192.786 115.008L191.442 112.549H191.136L189.366 112.362L189.12 114.642L187.673 114.48L188.524 106.662L191.74 107.011C193.798 107.232 194.964 108.415 194.777 110.15C194.736 110.687 194.527 111.198 194.179 111.609C193.83 112.02 193.361 112.311 192.837 112.438L194.36 115.203L192.786 115.008ZM191.536 108.202L189.834 108.023L189.502 111.137L191.204 111.324C192.48 111.46 193.203 110.95 193.305 109.963C193.407 108.976 192.812 108.338 191.578 108.202H191.536Z" fill="#FF6600"/>
<path d="M198.027 108.908L195.432 108.627L195.568 107.394L202.204 108.117L202.076 109.342L199.481 109.061L198.767 115.654L197.312 115.501L198.027 108.908Z" fill="#FF6600"/>
<path d="M203.301 108.236L204.756 108.389L203.905 116.216L202.45 116.054L203.301 108.236Z" fill="#FF6600"/>
<path d="M208.184 109.997L207.929 112.37L211.706 112.779L211.57 114.012L207.793 113.604L207.469 116.598L206.015 116.445L206.865 108.619L212.574 109.24L212.446 110.456L208.184 109.997Z" fill="#FF6600"/>
<path d="M213.986 109.384L215.432 109.546L214.581 117.372L213.126 117.211L213.986 109.384Z" fill="#FF6600"/>
<path d="M216.563 113.629C216.617 113.084 216.781 112.556 217.047 112.077C217.312 111.598 217.672 111.178 218.106 110.843C218.539 110.509 219.037 110.266 219.567 110.131C220.098 109.996 220.651 109.97 221.191 110.056C221.774 110.096 222.341 110.263 222.851 110.547C223.361 110.831 223.803 111.224 224.143 111.698L223.114 112.481C222.883 112.158 222.587 111.889 222.243 111.691C221.9 111.493 221.518 111.37 221.123 111.332C220.665 111.288 220.203 111.358 219.779 111.537C219.355 111.717 218.982 111.999 218.694 112.359C218.407 112.718 218.214 113.144 218.133 113.598C218.052 114.051 218.086 114.517 218.23 114.954C218.375 115.391 218.627 115.785 218.963 116.1C219.299 116.415 219.708 116.642 220.153 116.758C220.599 116.875 221.066 116.879 221.513 116.769C221.961 116.66 222.373 116.44 222.714 116.13L223.565 117.126C222.929 117.663 222.15 118.002 221.324 118.101C220.498 118.2 219.66 118.054 218.916 117.682C218.172 117.31 217.553 116.728 217.136 116.007C216.72 115.287 216.523 114.46 216.572 113.629H216.563Z" fill="#FF6600"/>
<path d="M229.928 117.194L226.014 116.777L225.045 118.478L223.547 118.317L227.92 110.873L229.349 111.026L232.029 119.227L230.515 119.065L229.928 117.194ZM229.57 116.003L228.464 112.421L226.627 115.688L229.57 116.003Z" fill="#FF6600"/>
<path d="M234.964 112.898L232.37 112.617L232.497 111.392L239.141 112.107L239.005 113.34L236.41 113.059L235.704 119.652L234.25 119.491L234.964 112.898Z" fill="#FF6600"/>
<path d="M240.204 112.226L241.659 112.387L240.808 120.205L239.354 120.052L240.204 112.226Z" fill="#FF6600"/>
<path d="M242.791 116.462C242.842 115.613 243.146 114.799 243.664 114.125C244.183 113.451 244.891 112.948 245.698 112.68C246.506 112.413 247.375 112.393 248.193 112.625C249.011 112.856 249.742 113.327 250.289 113.977C250.837 114.628 251.178 115.427 251.267 116.273C251.356 117.119 251.189 117.972 250.788 118.722C250.388 119.472 249.772 120.085 249.019 120.481C248.267 120.877 247.413 121.039 246.568 120.945C246.019 120.916 245.483 120.774 244.992 120.528C244.5 120.283 244.064 119.94 243.71 119.52C243.356 119.1 243.092 118.612 242.934 118.086C242.776 117.561 242.727 117.008 242.791 116.462V116.462ZM249.749 117.219C249.81 116.676 249.708 116.126 249.456 115.64C249.205 115.154 248.814 114.754 248.335 114.49C247.856 114.226 247.309 114.111 246.763 114.158C246.218 114.205 245.699 114.413 245.272 114.755C244.845 115.097 244.53 115.559 244.365 116.081C244.2 116.602 244.194 117.161 244.348 117.687C244.501 118.212 244.807 118.68 245.226 119.031C245.646 119.383 246.16 119.602 246.704 119.661C247.066 119.711 247.434 119.686 247.786 119.589C248.138 119.492 248.467 119.324 248.752 119.095C249.037 118.867 249.272 118.583 249.444 118.26C249.615 117.938 249.719 117.583 249.749 117.219V117.219Z" fill="#FF6600"/>
<path d="M260.136 114.378L259.286 122.204L258.095 122.077L254.352 116.309L253.773 121.609L252.335 121.456L253.186 113.629L254.386 113.757L258.129 119.525L258.699 114.225L260.136 114.378Z" fill="#FF6600"/>
<path opacity="0.6" d="M252.123 144.569L174.275 136.148C173.402 136.053 172.527 136.309 171.842 136.859C171.158 137.41 170.72 138.209 170.625 139.082C170.531 139.956 170.787 140.831 171.337 141.515C171.887 142.199 172.687 142.637 173.56 142.732L251.408 151.154C251.841 151.201 252.278 151.162 252.695 151.04C253.113 150.918 253.502 150.715 253.841 150.442C254.18 150.17 254.462 149.833 254.67 149.452C254.879 149.07 255.011 148.651 255.058 148.219C255.105 147.787 255.066 147.349 254.944 146.932C254.822 146.515 254.619 146.125 254.346 145.786C254.074 145.448 253.737 145.166 253.355 144.957C252.974 144.748 252.555 144.616 252.123 144.569V144.569Z" fill="white"/>
<path d="M271.051 161.66H271L152.174 148.806C152.061 148.793 151.958 148.737 151.887 148.648C151.816 148.56 151.783 148.447 151.795 148.334C151.807 148.221 151.864 148.118 151.953 148.047C152.041 147.976 152.154 147.943 152.267 147.955L271.094 160.818C271.149 160.823 271.203 160.839 271.252 160.866C271.302 160.893 271.345 160.929 271.38 160.972C271.415 161.016 271.441 161.066 271.456 161.12C271.471 161.174 271.475 161.23 271.468 161.286C271.456 161.388 271.406 161.482 271.33 161.551C271.253 161.62 271.154 161.659 271.051 161.66Z" fill="#FF6600"/>
<path d="M271.434 158.096H271.383L161.872 146.245C161.76 146.233 161.658 146.176 161.588 146.089C161.518 146.001 161.485 145.889 161.497 145.778C161.503 145.722 161.519 145.668 161.546 145.619C161.572 145.57 161.608 145.526 161.652 145.491C161.696 145.456 161.746 145.431 161.8 145.415C161.853 145.4 161.91 145.396 161.965 145.403L271.476 157.245C271.589 157.251 271.695 157.301 271.771 157.385C271.847 157.468 271.886 157.579 271.88 157.692C271.875 157.804 271.825 157.91 271.741 157.986C271.657 158.062 271.547 158.101 271.434 158.096V158.096Z" fill="#FF6600"/>
<path d="M224.084 160.35L151.774 152.532C151.661 152.52 151.558 152.463 151.487 152.374C151.416 152.286 151.383 152.173 151.395 152.06C151.408 151.947 151.464 151.844 151.553 151.773C151.641 151.702 151.754 151.669 151.867 151.681L224.126 159.499C224.182 159.502 224.237 159.516 224.287 159.54C224.338 159.564 224.383 159.597 224.421 159.639C224.458 159.68 224.487 159.729 224.506 159.781C224.525 159.834 224.533 159.89 224.53 159.946C224.527 160.002 224.514 160.056 224.49 160.107C224.466 160.158 224.432 160.203 224.391 160.24C224.349 160.278 224.301 160.307 224.248 160.326C224.195 160.345 224.139 160.353 224.084 160.35V160.35Z" fill="#FF6600"/>
<path d="M274.156 132.957H274.096L164.594 121.107C164.481 121.095 164.377 121.038 164.306 120.95C164.235 120.861 164.203 120.748 164.215 120.635C164.227 120.522 164.284 120.419 164.373 120.348C164.461 120.277 164.574 120.244 164.687 120.256L274.198 132.107C274.31 132.12 274.412 132.176 274.482 132.264C274.552 132.351 274.585 132.463 274.573 132.575C274.564 132.679 274.516 132.777 274.439 132.848C274.362 132.919 274.261 132.958 274.156 132.957V132.957Z" fill="#FF6600"/>
<path d="M273.765 136.522H273.722L154.896 123.659C154.783 123.647 154.68 123.59 154.609 123.502C154.538 123.413 154.505 123.3 154.517 123.187C154.53 123.074 154.586 122.971 154.675 122.9C154.763 122.829 154.877 122.796 154.989 122.808L273.816 135.663C273.872 135.666 273.926 135.68 273.977 135.705C274.027 135.729 274.072 135.763 274.109 135.805C274.146 135.847 274.175 135.896 274.193 135.949C274.211 136.002 274.219 136.058 274.216 136.113C274.212 136.169 274.198 136.224 274.173 136.274C274.149 136.325 274.115 136.37 274.073 136.407C274.031 136.444 273.982 136.472 273.929 136.491C273.877 136.509 273.821 136.517 273.765 136.513V136.522Z" fill="#FF6600"/>
<path d="M207.741 136.913L154.096 131.111C153.983 131.099 153.88 131.042 153.809 130.954C153.738 130.865 153.705 130.752 153.717 130.639C153.73 130.526 153.787 130.423 153.875 130.352C153.964 130.281 154.077 130.248 154.19 130.261L207.835 136.071C207.946 136.084 208.048 136.14 208.118 136.228C208.189 136.315 208.221 136.427 208.209 136.539C208.194 136.649 208.137 136.75 208.05 136.82C207.963 136.889 207.853 136.923 207.741 136.913V136.913Z" fill="#FF6600"/>
<path d="M273.365 140.248H273.323L154.496 127.385C154.441 127.379 154.386 127.362 154.337 127.335C154.288 127.308 154.244 127.271 154.209 127.228C154.174 127.184 154.148 127.133 154.132 127.079C154.117 127.025 154.112 126.969 154.118 126.913C154.124 126.857 154.141 126.803 154.168 126.754C154.195 126.705 154.232 126.661 154.275 126.626C154.319 126.591 154.37 126.565 154.424 126.549C154.478 126.533 154.534 126.528 154.59 126.535L273.408 139.397C273.521 139.403 273.627 139.453 273.702 139.537C273.778 139.621 273.818 139.731 273.812 139.844C273.806 139.957 273.756 140.063 273.672 140.138C273.589 140.214 273.478 140.254 273.365 140.248V140.248Z" fill="#FF6600"/>
<path d="M258.367 201.005L253.459 197.645L247.946 199.874L249.852 182.23L260.281 183.362L258.367 201.005Z" fill="#FF6600"/>
<path opacity="0.2" d="M258.367 201.005L253.459 197.645L247.946 199.874L249.852 182.23L260.281 183.362L258.367 201.005Z" fill="black"/>
<path d="M256.53 169.274L258.248 168.279L259.337 169.946L261.259 169.41L261.897 171.29L263.888 171.248L264.041 173.238L265.981 173.681L265.632 175.646L267.402 176.565L266.576 178.377L268.057 179.712L266.806 181.26L267.912 182.919L266.321 184.11L266.976 185.99L265.13 186.748L265.309 188.73L263.335 189.01L263.003 190.976L261.021 190.746L260.213 192.566L258.359 191.86L257.125 193.426L255.492 192.277L253.909 193.485L252.616 191.962L250.787 192.736L249.911 190.95L247.946 191.239L247.546 189.291L245.564 189.087L245.666 187.096L243.794 186.407L244.381 184.502L242.748 183.37L243.794 181.669L242.484 180.172L243.922 178.785L243.029 176.998L244.764 176.02L244.347 174.072L246.27 173.553L246.347 171.562L248.346 171.537L248.916 169.631L250.855 170.099L251.876 168.389L253.637 169.334L255.058 167.93L256.53 169.274Z" fill="#FF6600"/>
<path d="M256.274 171.596L257.652 170.797L258.52 172.132L260.051 171.698L260.562 173.204L262.153 173.17L262.272 174.761L263.829 175.118L263.548 176.684L264.96 177.415L264.296 178.87L265.487 179.925L264.484 181.167L265.368 182.494L264.092 183.447L264.62 184.944L263.148 185.548L263.284 187.13L261.71 187.351L261.447 188.925L259.864 188.738L259.218 190.201L257.737 189.631L256.751 190.882L255.449 189.963L254.19 190.924L253.152 189.716L251.689 190.329L251 188.9L249.426 189.138L249.103 187.581L247.521 187.411L247.606 185.829L246.108 185.276L246.585 183.753L245.275 182.851L246.108 181.498L245.062 180.29L246.21 179.193L245.504 177.764L246.883 176.981L246.551 175.424L248.091 175.008L248.15 173.425L249.741 173.4L250.2 171.877L251.749 172.251L252.565 170.89L253.969 171.639L255.1 170.524L256.274 171.596Z" fill="white"/>
<path d="M255.287 181.558L256.478 181.694L256.393 182.485L255.109 182.349L254.76 183.821L253.96 183.736L254.309 182.264L252.829 182.102L252.489 183.574L251.689 183.489L252.038 182.017L250.847 181.89L250.932 181.09L252.216 181.226L252.591 179.686L251.4 179.559L251.485 178.759L252.769 178.895L253.118 177.424L253.918 177.509L253.569 178.989L255.041 179.142L255.389 177.67L256.189 177.755L255.84 179.227L257.023 179.355L256.946 180.154L255.662 180.018L255.287 181.558ZM254.488 181.473L254.853 179.933L253.382 179.772L253.007 181.311L254.488 181.473Z" fill="#FF6600"/>
<path d="M259.89 178.164L259.226 184.306L258.086 184.187L258.648 178.989L257.346 178.853L257.448 177.9L259.89 178.164Z" fill="#FF6600"/>
<path d="M161.081 163.209C161.281 163.09 161.52 163.054 161.747 163.108C161.974 163.162 162.171 163.302 162.297 163.498V163.498C162.404 163.66 162.56 163.784 162.742 163.851C162.924 163.919 163.123 163.926 163.309 163.872C163.534 163.81 163.774 163.836 163.979 163.945C164.185 164.054 164.341 164.238 164.415 164.459V164.459C164.477 164.636 164.591 164.79 164.744 164.9C164.896 165.01 165.078 165.07 165.266 165.072V165.072C165.5 165.069 165.726 165.155 165.898 165.313C166.07 165.471 166.176 165.689 166.193 165.922V165.922C166.198 166.122 166.269 166.314 166.396 166.468C166.522 166.622 166.696 166.729 166.891 166.773C167.118 166.826 167.316 166.964 167.444 167.159C167.572 167.353 167.621 167.59 167.58 167.819C167.545 168.01 167.572 168.206 167.658 168.379C167.744 168.553 167.884 168.694 168.056 168.781C168.261 168.89 168.417 169.072 168.493 169.292C168.569 169.511 168.559 169.751 168.465 169.963V169.963C168.383 170.139 168.36 170.337 168.4 170.527C168.44 170.717 168.54 170.889 168.686 171.018V171.018C168.858 171.175 168.965 171.391 168.984 171.623C169.003 171.855 168.933 172.086 168.788 172.269V172.269C168.664 172.418 168.593 172.603 168.583 172.796C168.574 172.989 168.628 173.18 168.737 173.34V173.34C168.864 173.535 168.913 173.77 168.873 173.999C168.834 174.228 168.709 174.433 168.524 174.574V174.574C168.367 174.688 168.251 174.85 168.194 175.036C168.138 175.222 168.143 175.421 168.209 175.603V175.603C168.288 175.822 168.279 176.063 168.184 176.276C168.088 176.488 167.915 176.656 167.699 176.743V176.743C167.52 176.817 167.369 176.945 167.268 177.111C167.167 177.276 167.121 177.469 167.138 177.662V177.662C167.157 177.894 167.087 178.125 166.941 178.307C166.796 178.489 166.586 178.608 166.355 178.64V178.64C166.164 178.666 165.986 178.752 165.847 178.887C165.709 179.022 165.619 179.198 165.589 179.389V179.389C165.55 179.619 165.424 179.825 165.237 179.966C165.051 180.107 164.818 180.171 164.585 180.146V180.146C164.393 180.125 164.199 180.166 164.031 180.262C163.863 180.359 163.729 180.505 163.65 180.682V180.682C163.558 180.895 163.386 181.064 163.172 181.153C162.958 181.242 162.717 181.244 162.501 181.158V181.158C162.32 181.09 162.122 181.081 161.935 181.133C161.748 181.185 161.583 181.295 161.463 181.448V181.448C161.319 181.631 161.109 181.752 160.878 181.785C160.647 181.818 160.412 181.762 160.221 181.626C160.066 181.513 159.878 181.452 159.685 181.452C159.493 181.452 159.305 181.513 159.149 181.626V181.626C158.964 181.769 158.73 181.834 158.497 181.809C158.264 181.784 158.05 181.669 157.899 181.49V181.49C157.773 181.344 157.603 181.242 157.416 181.198C157.228 181.154 157.031 181.17 156.853 181.243V181.243C156.64 181.335 156.4 181.34 156.183 181.26C155.966 181.179 155.789 181.018 155.687 180.81V180.81C155.602 180.635 155.464 180.493 155.293 180.403C155.122 180.312 154.926 180.279 154.734 180.308V180.308C154.503 180.341 154.268 180.284 154.076 180.15C153.885 180.016 153.752 179.813 153.705 179.585V179.585C153.667 179.396 153.569 179.224 153.427 179.094C153.285 178.964 153.105 178.883 152.914 178.861C152.676 178.848 152.453 178.742 152.294 178.565C152.134 178.388 152.051 178.155 152.063 177.917V177.917C152.073 177.723 152.021 177.531 151.914 177.368C151.806 177.206 151.65 177.082 151.468 177.015V177.015C151.249 176.935 151.07 176.773 150.967 176.564C150.865 176.355 150.846 176.115 150.915 175.893V175.893C150.972 175.709 150.97 175.511 150.907 175.329C150.844 175.147 150.725 174.99 150.566 174.88V174.88C150.375 174.747 150.242 174.546 150.194 174.318C150.147 174.091 150.189 173.853 150.311 173.655V173.655C150.411 173.49 150.457 173.298 150.441 173.106C150.426 172.913 150.351 172.73 150.226 172.583V172.583C150.071 172.409 149.989 172.181 149.999 171.948C150.008 171.715 150.108 171.494 150.277 171.333V171.333C150.417 171.199 150.511 171.023 150.545 170.832C150.579 170.64 150.55 170.443 150.464 170.269V170.269C150.357 170.061 150.336 169.819 150.404 169.596C150.472 169.372 150.625 169.183 150.83 169.07V169.07C150.997 168.975 151.129 168.828 151.207 168.652C151.285 168.476 151.305 168.28 151.263 168.092V168.092C151.214 167.863 151.254 167.624 151.376 167.425C151.498 167.225 151.692 167.08 151.918 167.02V167.02C152.107 166.969 152.274 166.858 152.395 166.705C152.516 166.552 152.585 166.364 152.591 166.169V166.169C152.605 165.941 152.706 165.727 152.871 165.569C153.037 165.412 153.255 165.322 153.484 165.318V165.318C153.676 165.315 153.862 165.251 154.015 165.135C154.168 165.018 154.28 164.856 154.334 164.672C154.4 164.447 154.55 164.257 154.753 164.141C154.957 164.025 155.197 163.993 155.423 164.051V164.051C155.612 164.095 155.81 164.079 155.989 164.004C156.167 163.929 156.318 163.799 156.419 163.634V163.634C156.536 163.433 156.727 163.287 156.951 163.225C157.175 163.163 157.414 163.191 157.618 163.302V163.302C157.788 163.394 157.984 163.429 158.175 163.401C158.367 163.374 158.544 163.285 158.682 163.149V163.149C158.852 162.989 159.077 162.899 159.311 162.899C159.545 162.899 159.77 162.989 159.941 163.149V163.149C160.095 163.289 160.292 163.371 160.5 163.382C160.708 163.393 160.913 163.332 161.081 163.209V163.209Z" fill="#FF6600"/>
<path d="M159.55 180.223C163.881 180.223 167.393 176.711 167.393 172.379C167.393 168.047 163.881 164.536 159.55 164.536C155.218 164.536 151.706 168.047 151.706 172.379C151.706 176.711 155.218 180.223 159.55 180.223Z" fill="white"/>
<path d="M159.966 168.483L160.961 171.188L163.743 171.902L161.48 173.68L161.659 176.547L159.268 174.94L156.597 176.003L157.388 173.23L155.551 171.018L158.426 170.916L159.966 168.483Z" fill="#FF6600"/>
<path d="M194.3 182.878C198.396 179.581 199.043 173.589 195.747 169.493C192.45 165.398 186.458 164.75 182.362 168.046C178.267 171.343 177.619 177.335 180.916 181.431C184.212 185.526 190.204 186.174 194.3 182.878Z" fill="#FF6600"/>
<path d="M195.458 176.267C195.305 177.679 194.737 179.013 193.825 180.102C192.913 181.191 191.699 181.985 190.336 182.384C188.973 182.783 187.523 182.769 186.168 182.343C184.813 181.918 183.615 181.1 182.725 179.993C181.835 178.887 181.293 177.541 181.168 176.126C181.042 174.712 181.339 173.292 182.021 172.046C182.703 170.8 183.739 169.785 184.998 169.128C186.257 168.471 187.683 168.202 189.094 168.355C190.987 168.561 192.721 169.51 193.914 170.993C195.108 172.477 195.663 174.374 195.458 176.267Z" fill="white"/>
<g opacity="0.2">
<path opacity="0.2" d="M187.436 183.685C185.815 183.509 184.283 182.856 183.033 181.809C181.783 180.762 180.872 179.369 180.414 177.804C179.956 176.239 179.973 174.574 180.462 173.019C180.95 171.463 181.889 170.088 183.159 169.066C184.43 168.044 185.975 167.422 187.598 167.278C189.222 167.134 190.852 167.475 192.283 168.258C193.713 169.04 194.879 170.229 195.633 171.675C196.388 173.12 196.697 174.756 196.521 176.377C196.405 177.453 196.077 178.496 195.557 179.446C195.038 180.396 194.336 181.234 193.492 181.913C192.649 182.591 191.679 183.097 190.64 183.401C189.601 183.705 188.512 183.801 187.436 183.685V183.685ZM189.137 167.793C187.614 167.628 186.076 167.919 184.718 168.629C183.36 169.338 182.244 170.435 181.509 171.779C180.775 173.124 180.456 174.656 180.593 176.182C180.73 177.708 181.317 179.159 182.279 180.351C183.241 181.544 184.536 182.424 185.998 182.88C187.461 183.336 189.026 183.348 190.495 182.914C191.965 182.481 193.272 181.621 194.253 180.443C195.233 179.266 195.842 177.824 196.002 176.3C196.215 174.266 195.614 172.229 194.331 170.636C193.048 169.042 191.187 168.02 189.154 167.793H189.137Z" fill="white"/>
</g>
<path d="M189.834 175.816L188.635 172.592L186.772 175.493L183.786 172.336L184.509 178.011L186.287 178.198L187.835 178.368L188.184 178.41L189.732 178.572L191.51 178.768L193.424 173.374L189.834 175.816Z" fill="#FF6600"/>
<path d="M192.99 92.3703L195.092 90.4478L196.793 90.6349L197.116 88.1849L194.037 87.4788C194.037 87.4788 189.783 86.8918 188.269 86.8833C187.648 86.8833 186.925 86.8833 185.198 90.6859C184.909 91.3665 192.99 92.3703 192.99 92.3703Z" fill="#EEC1BB"/>
<path d="M262.433 97.7299C262.868 96.7571 263.413 95.8379 264.058 94.9906C264.628 94.4887 269.818 95.6371 270.685 96.3432C271.553 97.0493 271.136 98.6486 271.136 98.6486C271.136 98.6486 269.69 100.912 268.703 100.792C267.716 100.673 262.706 100.418 262.433 100.052C262.161 99.6865 262.433 97.7299 262.433 97.7299Z" fill="#EEC1BB"/>
<path d="M116.041 93.6571L126.292 93.173L129.259 91.0572C129.752 90.8428 130.303 90.8042 130.821 90.9479L135.552 91.2992C135.906 91.3981 136.232 91.579 136.503 91.8272C136.774 92.0754 136.983 92.384 137.113 92.728L137.277 97.2328C137.147 97.6779 136.887 98.0743 136.532 98.3717C136.176 98.6692 135.74 98.8543 135.279 98.9036L129.525 99.575C129.072 99.6296 128.614 99.5509 128.205 99.3486L124.419 98.3259L111.927 99.5907L116.041 93.6571Z" fill="#EEC1BB"/>
<path d="M129.415 91.026C130.313 90.1597 131.067 89.1555 131.648 88.0514C131.69 87.9476 131.754 87.854 131.835 87.777C131.916 87.7 132.013 87.6414 132.119 87.6051C132.225 87.5689 132.337 87.5558 132.449 87.5668C132.56 87.5777 132.668 87.6126 132.765 87.6688C132.922 87.7603 133.043 87.9041 133.106 88.0752C133.168 88.2463 133.169 88.434 133.108 88.6057L131.82 92.2361C131.763 92.3948 131.656 92.5308 131.515 92.6236C131.375 92.7165 131.208 92.7614 131.039 92.7514L129.08 92.4938L129.197 91.4632C129.221 91.2978 129.298 91.1446 129.415 91.026Z" fill="#EEC1BB"/>
<path d="M103.183 101.55C102.147 101.579 101.12 101.345 100.199 100.868C99.2789 100.391 98.4947 99.6884 97.9206 98.8254C95.7215 95.5055 93.7244 92.0562 91.9401 88.4962C89.3481 83.3278 88.622 72.8815 85.585 67.9551C90.894 70.227 96.7104 74.1307 99.201 79.3382C101.106 83.3278 103.581 87.1924 105.634 91.1117L121.475 90.8384C122.283 90.8224 123.074 91.0751 123.722 91.557C124.371 92.0389 124.841 92.7226 125.059 93.5007C125.84 96.2177 126.355 100.059 123.732 100.527C120.679 101.019 108.999 101.394 103.183 101.55Z" fill="#263238"/>
<path d="M88.3095 273.382L95.0707 273.203L94.9379 257.541L88.1768 257.721L88.3095 273.382Z" fill="#EEC1BB"/>
<path d="M95.3363 270.064L87.9427 270.259C87.8012 270.274 87.6692 270.337 87.5693 270.438C87.4695 270.539 87.4083 270.672 87.3962 270.814L86.3969 277.895C86.3405 278.19 86.3966 278.496 86.554 278.751C86.7115 279.007 86.959 279.195 87.2479 279.277H87.4353C90.0976 279.144 93.9388 278.855 97.2881 278.769C101.192 278.668 101.528 278.91 106.11 278.769C108.882 278.691 109.499 275.381 108.32 275.108C102.972 273.89 101.707 273.781 96.9836 270.58C96.5019 270.24 95.9258 270.06 95.3363 270.064V270.064Z" fill="#263238"/>
<path opacity="0.2" d="M94.9379 257.549L94.8286 266.387L88.0674 266.567L88.1767 257.729L94.9379 257.549Z" fill="black"/>
<path d="M96.2187 270.681C96.1941 270.68 96.1702 270.671 96.1497 270.658C96.1291 270.644 96.1125 270.625 96.1016 270.603C96.0821 270.567 96.0777 270.524 96.0894 270.485C96.1011 270.445 96.128 270.412 96.1641 270.392C96.4607 270.228 99.0762 268.792 99.896 269.237C99.9749 269.273 100.043 269.33 100.092 269.401C100.142 269.473 100.171 269.556 100.177 269.643C100.206 269.784 100.197 269.93 100.152 270.067C100.107 270.204 100.027 270.327 99.9194 270.423C99.4555 270.758 98.889 270.918 98.3189 270.876C97.6141 270.881 96.9105 270.816 96.2187 270.681ZM96.7028 270.447C98.1862 270.658 99.2792 270.564 99.6696 270.189C99.7386 270.124 99.7899 270.043 99.8186 269.953C99.8473 269.863 99.8525 269.767 99.8335 269.674C99.8293 269.64 99.8181 269.607 99.8007 269.578C99.7832 269.548 99.7598 269.522 99.732 269.502C99.6334 269.471 99.5308 269.456 99.4275 269.455C98.469 269.627 97.5472 269.962 96.7028 270.447V270.447Z" fill="#F96F13"/>
<path d="M95.8672 270.455C95.8454 270.437 95.8278 270.414 95.8157 270.388C95.8035 270.363 95.7971 270.335 95.7969 270.306C95.7969 270.236 95.9062 268.433 96.7025 267.714C96.817 267.608 96.9528 267.527 97.1008 267.477C97.2489 267.428 97.4059 267.41 97.5613 267.425C97.9986 267.425 98.1625 267.675 98.1703 267.847C98.3265 268.628 96.8274 270.08 96.0311 270.462H95.9608C95.9294 270.468 95.8973 270.465 95.8672 270.455V270.455ZM96.9133 267.964C96.4423 268.558 96.1692 269.284 96.1326 270.041C96.9133 269.526 97.9517 268.362 97.858 267.917C97.858 267.878 97.819 267.745 97.5379 267.753H97.4364C97.2426 267.759 97.0573 267.834 96.9133 267.964V267.964Z" fill="#F96F13"/>
<path d="M63.4668 273.859L70.228 273.78L70.3295 258.119L63.5683 258.205L63.4668 273.859Z" fill="#EEC1BB"/>
<path d="M70.5248 270.642L63.1312 270.736C62.9885 270.745 62.8538 270.805 62.7519 270.905C62.6501 271.006 62.5879 271.139 62.5769 271.282L61.4682 278.348C61.4108 278.642 61.4645 278.946 61.6188 279.203C61.7731 279.46 62.0171 279.65 62.3036 279.737C62.3659 279.745 62.4288 279.745 62.491 279.737C65.1533 279.652 68.9945 279.417 72.3517 279.378C76.2554 279.331 76.5833 279.581 81.1662 279.527C83.9456 279.527 84.6093 276.185 83.4382 275.904C78.1057 274.6 76.8409 274.475 72.1721 271.22C71.6943 270.864 71.1198 270.663 70.5248 270.642V270.642Z" fill="#263238"/>
<path opacity="0.2" d="M70.3294 258.127L70.0951 266.957L63.3262 267.043L63.5682 258.213L70.3294 258.127Z" fill="black"/>
<path d="M71.4227 271.282C71.3965 271.279 71.3715 271.269 71.3497 271.254C71.328 271.239 71.3101 271.22 71.2978 271.196C71.2886 271.178 71.2831 271.159 71.2816 271.139C71.2802 271.119 71.2828 271.099 71.2894 271.08C71.296 271.061 71.3063 271.043 71.3199 271.028C71.3334 271.013 71.3498 271.002 71.368 270.993C71.6647 270.829 74.3036 269.432 75.1156 269.885C75.1937 269.923 75.2601 269.982 75.3082 270.054C75.3562 270.127 75.384 270.211 75.3888 270.298C75.4167 270.44 75.4068 270.587 75.3603 270.724C75.3137 270.861 75.232 270.983 75.1234 271.079C74.6497 271.403 74.0792 271.555 73.5072 271.508C72.8068 271.5 72.1087 271.424 71.4227 271.282V271.282ZM71.8989 271.048C73.3901 271.282 74.4754 271.204 74.8735 270.837C74.9422 270.772 74.9938 270.691 75.0237 270.601C75.0537 270.511 75.0611 270.415 75.0453 270.322C75.0457 270.288 75.0364 270.254 75.0184 270.225C75.0004 270.196 74.9746 270.173 74.9438 270.158C74.8506 270.116 74.7489 270.098 74.6471 270.103C73.684 270.26 72.7547 270.579 71.8989 271.048V271.048Z" fill="#F96F13"/>
<path d="M71.0709 271.04C71.0483 271.024 71.0301 271.003 71.0178 270.979C71.0055 270.954 70.9996 270.927 71.0006 270.899C71.0006 270.821 71.1411 269.026 71.9453 268.323C72.0609 268.219 72.1971 268.14 72.345 268.092C72.4929 268.043 72.6493 268.026 72.8041 268.042C73.2413 268.042 73.4053 268.3 73.4131 268.471C73.5536 269.252 72.0312 270.681 71.227 271.056H71.1645C71.1325 271.062 71.0991 271.057 71.0709 271.04V271.04ZM72.1561 268.565C71.6919 269.16 71.4196 269.881 71.3753 270.634C72.1561 270.134 73.2179 268.987 73.132 268.542C73.132 268.503 73.132 268.362 72.8197 268.37H72.7182C72.5124 268.358 72.3103 268.428 72.1561 268.565V268.565Z" fill="#F96F13"/>
<path d="M95.0864 130.351L97.1163 213.422L97.6472 261.827C97.6819 262.459 97.4688 263.079 97.0532 263.556C96.6377 264.033 96.0524 264.328 95.4221 264.38L87.3805 264.536C86.7748 264.525 86.196 264.284 85.7611 263.863C85.3263 263.441 85.0679 262.87 85.0383 262.265C83.8672 251.428 79.6903 234.283 81.0097 213.968C81.0097 213.968 74.2017 160.831 73.5381 144.584L74.5608 130.102L95.0864 130.351Z" fill="#263238"/>
<path opacity="0.3" d="M78.777 153.009C78.777 153.009 79.9325 166.375 78.0978 188.142C78.0978 188.142 75.8258 172.191 74.5767 163.47L78.777 153.009Z" fill="black"/>
<path d="M80.6739 129.547L74.8496 214.07L72.5074 262.405C72.5057 263.033 72.2608 263.636 71.8241 264.087C71.3874 264.539 70.7928 264.803 70.1652 264.825L62.1236 264.505C61.528 264.447 60.9758 264.168 60.5756 263.723C60.1754 263.278 59.9561 262.699 59.9609 262.101C59.43 251.209 56.2759 233.854 58.7976 213.648C58.7976 213.648 55.1438 160.199 55.4405 143.944L57.3142 129.547H80.6739Z" fill="#263238"/>
<path d="M70.3137 65.2148C71.6956 60.9441 71.399 54.8232 70.9383 50.9897L80.19 60.1322C79.6077 61.7618 79.41 63.5039 79.6123 65.2226C79.669 65.6166 79.8517 65.9816 80.1332 66.2631C80.4147 66.5446 80.7798 66.7274 81.1738 66.784L85.0775 68.0176L85.5381 71.0625L83.1959 71.6792L80.1666 75.6298L72.2968 71.6792L64.0444 67.838C65.2886 67.4342 66.5797 67.1927 67.8857 67.1197C68.4135 67.0202 68.9096 66.7951 69.3322 66.4636C69.7548 66.132 70.0914 65.7037 70.3137 65.2148Z" fill="#EEC1BB"/>
<path d="M95.0861 130.352L55.979 131.132L63.4272 67.4243C63.7069 67.3344 63.9909 67.2589 64.2782 67.1979L67.2684 66.6592C67.8618 67.073 73.8188 72.4132 79.5963 72.6396C84.4837 72.8192 82.4772 66.6436 82.4772 66.6436L84.5774 67.2994L85.4127 67.4243L87.9501 69.3215C87.9501 69.3215 93.3372 81.0325 94.6332 110.154L95.0861 130.352Z" fill="#F96F13"/>
<path opacity="0.8" d="M95.0861 130.352L55.979 131.132L63.4272 67.4243C63.7069 67.3344 63.9909 67.2589 64.2782 67.1979L67.2684 66.6592C67.8618 67.073 73.8188 72.4132 79.5963 72.6396C84.4837 72.8192 82.4772 66.6436 82.4772 66.6436L84.5774 67.2994L85.4127 67.4243L87.9501 69.3215C87.9501 69.3215 93.3372 81.0325 94.6332 110.154L95.0861 130.352Z" fill="white"/>
<path opacity="0.2" d="M74.7014 55.4243L80.0338 60.6474C79.747 61.6126 79.5766 62.6086 79.5263 63.6142C77.3559 63.1224 74.6857 61.069 74.0065 58.6097C73.5537 57.0873 74.1236 55.557 74.7014 55.4243Z" fill="black"/>
<path d="M69.5407 44.0882C69.9388 51.1148 69.8217 55.2527 73.3585 58.8675C78.6675 64.3327 87.3649 61.116 89.0591 54.1285C90.6205 47.7889 89.668 37.3895 82.8132 34.5632C81.3023 33.9316 79.655 33.6972 78.0279 33.8823C76.4009 34.0673 74.8483 34.6657 73.5179 35.6205C72.1875 36.5752 71.1236 37.8546 70.4274 39.3368C69.7312 40.819 69.426 42.4547 69.5407 44.0882V44.0882Z" fill="#EEC1BB"/>
<path d="M67.6356 37.3501C66.2732 37.939 65.0711 38.8446 64.1294 39.9917C63.1876 41.1388 62.5333 42.4942 62.221 43.9452C61.9086 45.3962 61.9473 46.9007 62.3336 48.3337C62.72 49.7668 63.443 51.0868 64.4424 52.1841C65.8945 53.7455 67.9245 54.9088 68.9004 56.8685C69.4 57.86 68.7598 58.8438 67.8073 59.4137C68.4298 59.2585 68.9952 58.9295 69.4376 58.4649C69.88 58.0004 70.1811 57.4197 70.3057 56.7904C70.4059 57.299 70.3986 57.8228 70.2844 58.3284C70.1701 58.8339 69.9513 59.31 69.6421 59.726C70.506 59.0109 71.1598 58.0749 71.5338 57.0176C71.9078 55.9603 71.9879 54.8214 71.7657 53.7221C70.9002 52.9961 70.2099 52.0839 69.7462 51.0538C69.2825 50.0237 69.0575 48.9022 69.0878 47.7729C69.1423 46.6913 69.4541 45.6383 69.9972 44.7014C70.5404 43.7645 71.2992 42.9707 72.2107 42.3858L71.633 42.6435C70.8568 40.5206 69.465 38.6776 67.6356 37.3501V37.3501Z" fill="#263238"/>
<path d="M71.8907 47.8355C71.5653 47.6713 71.2087 47.5781 70.8445 47.5623C70.6241 47.5352 70.4005 47.5655 70.1953 47.6504C69.9901 47.7352 69.8103 47.8716 69.6734 48.0463C69.562 48.2791 69.4996 48.5323 69.4902 48.7902C69.4808 49.048 69.5246 49.3051 69.6187 49.5454C70.1653 51.7731 70.7664 53.9851 71.4222 56.1816C67.9014 52.6041 65.7394 47.9101 65.3091 42.9091C67.3936 42.7295 69.8452 42.6046 71.9297 42.425L71.8907 47.8355Z" fill="#263238"/>
<path d="M80.6738 45.9228C80.7285 46.4927 81.072 46.9299 81.4546 46.8909C81.8371 46.8518 82.0792 46.3678 82.0323 45.7978C81.9855 45.2279 81.6341 44.7985 81.2516 44.8297C80.869 44.861 80.6738 45.3528 80.6738 45.9228Z" fill="#263238"/>
<path d="M87.1386 45.4464C87.1932 46.0085 87.5368 46.4457 87.9193 46.4067C88.3019 46.3676 88.5517 45.8836 88.4971 45.3215C88.4424 44.7593 88.0989 44.3143 87.7163 44.3455C87.3338 44.3768 87.0917 44.8686 87.1386 45.4464Z" fill="#263238"/>
<path d="M78.1915 43.3074C78.1362 43.292 78.0835 43.2684 78.0354 43.2371C77.9756 43.1722 77.9424 43.0872 77.9424 42.999C77.9424 42.9107 77.9756 42.8257 78.0354 42.7608C78.433 42.4054 78.9092 42.1494 79.4249 42.0136C79.9406 41.8779 80.4812 41.8664 81.0022 41.9801C81.0446 41.9917 81.0843 42.0118 81.1189 42.0391C81.1534 42.0664 81.1821 42.1003 81.2032 42.139C81.2243 42.1776 81.2375 42.22 81.2418 42.2638C81.2462 42.3076 81.2417 42.3519 81.2286 42.3939C81.2169 42.4365 81.1968 42.4763 81.1697 42.5112C81.1425 42.546 81.1088 42.5751 81.0703 42.5969C81.0319 42.6186 80.9895 42.6326 80.9457 42.638C80.9018 42.6433 80.8574 42.64 80.8148 42.6281C80.4004 42.5435 79.9718 42.5589 79.5644 42.6729C79.1571 42.787 78.7828 42.9964 78.4726 43.2839C78.4298 43.3066 78.3828 43.3204 78.3345 43.3244C78.2862 43.3284 78.2375 43.3226 78.1915 43.3074V43.3074Z" fill="#263238"/>
<path d="M89.5742 42.8076C89.5258 42.8365 89.4706 42.8517 89.4142 42.8517C89.3578 42.8517 89.3025 42.8365 89.2541 42.8076C88.8975 42.5904 88.495 42.4597 88.0789 42.4258C87.6627 42.3919 87.2444 42.4558 86.8573 42.6124C86.7773 42.651 86.6854 42.6572 86.601 42.6295C86.5165 42.6018 86.4461 42.5425 86.4045 42.4641C86.3843 42.4246 86.3721 42.3816 86.3687 42.3374C86.3652 42.2933 86.3706 42.2489 86.3844 42.2068C86.3981 42.1647 86.4201 42.1257 86.449 42.0922C86.4779 42.0586 86.5132 42.0311 86.5528 42.0112C87.0442 41.7986 87.5796 41.7074 88.1137 41.7455C88.6477 41.7835 89.1648 41.9497 89.6211 42.2298C89.6581 42.2502 89.6908 42.2777 89.7171 42.3108C89.7435 42.3438 89.763 42.3818 89.7747 42.4224C89.7863 42.4631 89.7897 42.5056 89.7848 42.5476C89.7799 42.5896 89.7667 42.6302 89.746 42.667V42.667C89.7085 42.7338 89.6471 42.784 89.5742 42.8076V42.8076Z" fill="#263238"/>
<path d="M66.0821 50.6072C67.024 52.1026 68.5156 53.168 70.2356 53.574C72.531 54.0815 73.5538 52.0125 72.8121 49.9123C72.1484 48.0308 70.1576 45.4856 67.909 45.9072C65.6605 46.3288 64.95 48.7725 66.0821 50.6072Z" fill="#EEC1BB"/>
<path d="M84.6865 45.7903C85.6001 47.3755 86.7329 48.8237 88.0515 50.0921C87.2083 51.2086 85.4516 51.0993 85.4516 51.0993L84.6865 45.7903Z" fill="#D4827D"/>
<path d="M80.9395 66.6592C80.9395 66.6592 86.8028 69.1341 88.9498 84.9596C91.0416 99.7217 91.8254 114.64 91.292 129.54C90.6987 143.413 91.1983 152.4 95.5002 151.814C95.5002 151.814 95.8905 144.358 95.5002 119.546C95.1567 97.5919 96.8821 73.4438 86.4124 67.8537C84.6856 67.0957 82.825 66.6896 80.9395 66.6592V66.6592Z" fill="#263238"/>
<g opacity="0.1">
<path opacity="0.1" d="M80.9395 66.6589C80.9395 66.6589 86.8028 69.1339 88.9498 84.9594C91.0416 99.7214 91.8254 114.639 91.292 129.539C90.6987 143.413 91.1983 152.399 95.5002 151.814C95.5002 151.814 95.8905 144.358 95.5002 119.546C95.1567 97.5917 96.8821 73.4435 86.4124 67.8535C84.6856 67.0955 82.825 66.6894 80.9395 66.6589V66.6589Z" fill="white"/>
</g>
<path d="M68.0026 66.6592C68.0026 66.6592 75.0292 70.5629 75.81 95.32C76.5907 120.077 77.7618 152.431 69.4236 153.212C61.0853 153.992 51.9741 149.308 51.9741 149.308C51.9741 149.308 56.1901 122.825 57.0489 113.823C58.0326 103.424 51.1856 70.4067 55.6904 69.1653C59.738 68.0732 63.8502 67.2362 68.0026 66.6592V66.6592Z" fill="#263238"/>
<g opacity="0.1">
<path opacity="0.1" d="M68.0021 66.6592C68.0021 66.6592 75.0288 70.5629 75.8095 95.32C76.5902 120.077 77.7613 152.431 69.4231 153.212C61.0848 153.992 51.9736 149.308 51.9736 149.308C51.9736 149.308 56.1896 122.825 57.0484 113.823C58.0321 103.424 51.1851 70.4067 55.6899 69.1653C59.7375 68.0732 63.8497 67.2362 68.0021 66.6592V66.6592Z" fill="white"/>
</g>
<g opacity="0.2">
<path opacity="0.2" d="M68.325 137.198L61.7783 136.272C61.108 136.178 60.5027 135.82 60.0958 135.279C59.6888 134.738 59.5134 134.058 59.6082 133.387L59.8159 131.919L71.4098 133.558L71.2021 135.027C71.1075 135.696 70.7516 136.3 70.2123 136.707C69.6729 137.114 68.9943 137.291 68.325 137.198V137.198Z" fill="white"/>
</g>
<path d="M49.5698 102.698L57.2522 108.249L61.9366 107.616C62.4793 107.545 63.0299 107.661 63.4981 107.944L66.4024 109.67C66.7159 109.864 66.9804 110.127 67.1754 110.44C67.3704 110.753 67.4906 111.106 67.5267 111.473L67.6672 113.035C67.7178 113.561 67.5884 114.09 67.3003 114.534L66.4493 115.916C66.205 116.302 65.8531 116.608 65.4369 116.797C65.0208 116.985 64.5585 117.048 64.1071 116.977L58.3843 116.048C57.9383 115.974 57.5219 115.777 57.182 115.478L54.1137 112.73L44.3232 107.132L49.5698 102.698Z" fill="#EEC1BB"/>
<path d="M55.1362 114.097C54.7894 114.505 54.3103 114.779 53.7824 114.87C53.2545 114.962 52.7112 114.865 52.2474 114.596C49.6866 113.136 36.7811 104.502 34.8058 99.1301C31.9874 91.4789 48.6639 74.1934 53.7308 70.321C59.4068 65.9879 62.2643 78.8075 58.5558 82.7034C54.0666 87.3878 48.9762 92.7593 46.7589 94.9766C46.6134 95.1235 46.5038 95.3021 46.4386 95.4983C46.3734 95.6945 46.3545 95.9032 46.3832 96.108C46.4119 96.3127 46.4875 96.5081 46.6042 96.6789C46.7208 96.8496 46.8753 96.9911 47.0556 97.0924C47.0556 97.0924 56.6664 105.243 58.3762 106.766C59.4693 107.742 56.3307 112.684 55.1362 114.097Z" fill="#263238"/>
<path d="M55.1362 114.097C54.7894 114.505 54.3103 114.779 53.7824 114.87C53.2545 114.962 52.7112 114.865 52.2474 114.596C49.6866 113.136 36.7811 104.502 34.8058 99.1301C31.9874 91.4789 48.6639 74.1934 53.7308 70.321C59.4068 65.9879 62.2643 78.8075 58.5558 82.7034C54.0666 87.3878 48.9762 92.7593 46.7589 94.9766C46.6134 95.1235 46.5038 95.3021 46.4386 95.4983C46.3734 95.6945 46.3545 95.9032 46.3832 96.108C46.4119 96.3127 46.4875 96.5081 46.6042 96.6789C46.7208 96.8496 46.8753 96.9911 47.0556 97.0924C47.0556 97.0924 56.6664 105.243 58.3762 106.766C59.4693 107.742 56.3307 112.684 55.1362 114.097Z" fill="#263238"/>
<path d="M83.7973 54.1674C83.1665 54.0274 82.571 53.7599 82.0474 53.3813C81.5237 53.0026 81.0831 52.5209 80.7525 51.9658C80.7416 51.9475 80.7345 51.9271 80.7318 51.906C80.729 51.8849 80.7306 51.8634 80.7365 51.843C80.7423 51.8225 80.7523 51.8034 80.7658 51.787C80.7793 51.7705 80.796 51.7569 80.8149 51.7472C80.8545 51.7275 80.9 51.7239 80.9422 51.737C80.9843 51.7501 81.0198 51.7789 81.0413 51.8174C81.4098 52.4134 81.9107 52.9164 82.5052 53.2874C83.0996 53.6584 83.7715 53.8874 84.4688 53.9566C84.4938 53.9512 84.5198 53.9514 84.5447 53.9574C84.5697 53.9633 84.593 53.9747 84.613 53.9908C84.6329 54.0069 84.6491 54.0273 84.6601 54.0504C84.6712 54.0735 84.6769 54.0988 84.6769 54.1245C84.6769 54.1501 84.6712 54.1755 84.6601 54.1986C84.6491 54.2217 84.6329 54.2421 84.613 54.2582C84.593 54.2743 84.5697 54.2857 84.5447 54.2916C84.5198 54.2975 84.4938 54.2978 84.4688 54.2924V54.2924C84.2421 54.2682 84.0176 54.2264 83.7973 54.1674Z" fill="#263238"/>
<path d="M78.2695 42.4095C81.0098 42.0191 83.0554 39.349 83.4067 36.6086C85.8582 37.2098 87.4509 39.4115 88.7313 41.5975C88.8187 41.7534 88.9401 41.8875 89.0866 41.9899C89.233 42.0923 89.4007 42.1602 89.5771 42.1888C89.7535 42.2173 89.934 42.2056 90.1053 42.1546C90.2765 42.1036 90.434 42.0146 90.5661 41.8942C90.7693 41.6676 90.9146 41.3951 90.9894 41.1C91.0642 40.8049 91.0663 40.4961 90.9955 40.2C90.8376 39.5838 90.5734 38.9999 90.2147 38.4746C89.7307 37.6938 89.231 36.8506 88.6533 36.0777C87.8999 34.9938 86.8892 34.1139 85.7118 33.517C84.5345 32.9201 83.2273 32.625 81.9077 32.6581H81.7672C79.7808 31.6403 77.5268 31.2665 75.3183 31.5885C72.7965 31.8852 71.1882 33.0485 69.2754 34.7114C67.3626 36.3744 66.5975 39.6145 63.9039 42.4485C63.6983 42.6668 63.5599 42.9396 63.5052 43.2344C63.4505 43.5292 63.4818 43.8335 63.5955 44.111C63.7091 44.3884 63.9002 44.6273 64.146 44.7991C64.3917 44.9709 64.6817 45.0682 64.9813 45.0796V45.0796C69.5468 45.145 74.073 44.2291 78.2539 42.3939L78.2695 42.4095Z" fill="#263238"/>
<path d="M79.1362 71.2031L76.8564 73.9513L79.1362 77.0899H82.0561V73.2096L79.1362 71.2031Z" fill="#F96F13"/>
<path d="M79.1126 77.0898L79.8934 83.8432C81.6422 96.1554 78.8862 111.263 78.8862 111.263L84.1952 116.095C84.1952 116.095 88.3878 110.771 88.0989 110.833C87.935 110.833 87.9662 101.058 86.3969 91.9785C85.4428 86.8876 83.9969 81.9014 82.0794 77.0898H79.1126Z" fill="#F96F13"/>
<path d="M79.7138 64.3012C80.3072 65.0117 81.0255 65.082 81.5798 65.7846C82.6516 67.1972 83.4186 68.8167 83.8325 70.5409C84.2464 72.265 84.2982 74.0563 83.9845 75.8015L83.9064 76.2309C83.5723 75.276 82.9751 74.435 82.1835 73.805C81.3919 73.1751 80.4383 72.7818 79.4328 72.6707C78.1236 74.5444 76.3689 76.063 74.3268 77.0897C71.1214 74.0656 68.6373 70.3593 67.0581 66.2453C68.1824 65.3344 69.304 64.4183 70.4231 63.4971C72.5891 66.2593 75.6417 68.1896 79.0658 68.9622C79.1829 67.5101 79.5967 65.7378 79.7138 64.3012Z" fill="#F96F13"/>
<path opacity="0.9" d="M79.7138 64.3012C80.3072 65.0117 81.0255 65.082 81.5798 65.7846C82.6516 67.1972 83.4186 68.8167 83.8325 70.5409C84.2464 72.265 84.2982 74.0563 83.9845 75.8015L83.9064 76.2309C83.5723 75.276 82.9751 74.435 82.1835 73.805C81.3919 73.1751 80.4383 72.7818 79.4328 72.6707C78.1236 74.5444 76.3689 76.063 74.3268 77.0897C71.1214 74.0656 68.6373 70.3593 67.0581 66.2453C68.1824 65.3344 69.304 64.4183 70.4231 63.4971C72.5891 66.2593 75.6417 68.1896 79.0658 68.9622C79.1829 67.5101 79.5967 65.7378 79.7138 64.3012Z" fill="white"/>
</svg>
