<svg width="350" height="54" viewBox="0 0 350 54" fill="none" xmlns="http://www.w3.org/2000/svg">
<line x1="53" y1="18" x2="157" y2="18" stroke="#CCCCCC" stroke-width="2" stroke-linecap="round"/>
<line x1="193" y1="18" x2="297" y2="18" stroke="#CCCCCC" stroke-width="2" stroke-linecap="round"/>
<circle cx="35" cy="17.5" r="16" stroke="#FF6600" stroke-width="3"/>
<path d="M36.2495 12.3066V23H34.3086V14.5698L31.7378 15.4194V13.8521L36.0298 12.3066H36.2495Z" fill="#FF6600"/>
<path d="M26.5801 49.834V51H22.0508V49.834H26.5801ZM22.4668 42.4688V51H20.9961V42.4688H22.4668ZM25.9883 46.0312V47.1797H22.0508V46.0312H25.9883ZM26.5508 42.4688V43.6406H22.0508V42.4688H26.5508ZM28.7188 44.6602L29.9258 46.7637L31.1562 44.6602H32.709L30.7871 47.7715L32.7852 51H31.2324L29.9434 48.8086L28.6543 51H27.0957L29.0879 47.7715L27.1719 44.6602H28.7188ZM37.25 49.7285V46.7051C37.25 46.4785 37.209 46.2832 37.127 46.1191C37.0449 45.9551 36.9199 45.8281 36.752 45.7383C36.5879 45.6484 36.3809 45.6035 36.1309 45.6035C35.9004 45.6035 35.7012 45.6426 35.5332 45.7207C35.3652 45.7988 35.2344 45.9043 35.1406 46.0371C35.0469 46.1699 35 46.3203 35 46.4883H33.5938C33.5938 46.2383 33.6543 45.9961 33.7754 45.7617C33.8965 45.5273 34.0723 45.3184 34.3027 45.1348C34.5332 44.9512 34.8086 44.8066 35.1289 44.7012C35.4492 44.5957 35.8086 44.543 36.207 44.543C36.6836 44.543 37.1055 44.623 37.4727 44.7832C37.8438 44.9434 38.1348 45.1855 38.3457 45.5098C38.5605 45.8301 38.668 46.2324 38.668 46.7168V49.5352C38.668 49.8242 38.6875 50.084 38.7266 50.3145C38.7695 50.541 38.8301 50.7383 38.9082 50.9062V51H37.4609C37.3945 50.8477 37.3418 50.6543 37.3027 50.4199C37.2676 50.1816 37.25 49.9512 37.25 49.7285ZM37.4551 47.1445L37.4668 48.0176H36.4531C36.1914 48.0176 35.9609 48.043 35.7617 48.0938C35.5625 48.1406 35.3965 48.2109 35.2637 48.3047C35.1309 48.3984 35.0312 48.5117 34.9648 48.6445C34.8984 48.7773 34.8652 48.9277 34.8652 49.0957C34.8652 49.2637 34.9043 49.418 34.9824 49.5586C35.0605 49.6953 35.1738 49.8027 35.3223 49.8809C35.4746 49.959 35.6582 49.998 35.873 49.998C36.1621 49.998 36.4141 49.9395 36.6289 49.8223C36.8477 49.7012 37.0195 49.5547 37.1445 49.3828C37.2695 49.207 37.3359 49.041 37.3438 48.8848L37.8008 49.5117C37.7539 49.6719 37.6738 49.8438 37.5605 50.0273C37.4473 50.2109 37.2988 50.3867 37.1152 50.5547C36.9355 50.7188 36.7188 50.8535 36.4648 50.959C36.2148 51.0645 35.9258 51.1172 35.5977 51.1172C35.1836 51.1172 34.8145 51.0352 34.4902 50.8711C34.166 50.7031 33.9121 50.4785 33.7285 50.1973C33.5449 49.9121 33.4531 49.5898 33.4531 49.2305C33.4531 48.8945 33.5156 48.5977 33.6406 48.3398C33.7695 48.0781 33.957 47.8594 34.2031 47.6836C34.4531 47.5078 34.7578 47.375 35.1172 47.2852C35.4766 47.1914 35.8867 47.1445 36.3477 47.1445H37.4551ZM41.5566 45.9492V51H40.1445V44.6602H41.4746L41.5566 45.9492ZM41.3281 47.5957L40.8477 47.5898C40.8477 47.1523 40.9023 46.748 41.0117 46.377C41.1211 46.0059 41.2812 45.6836 41.4922 45.4102C41.7031 45.1328 41.9648 44.9199 42.2773 44.7715C42.5938 44.6191 42.959 44.543 43.373 44.543C43.6621 44.543 43.9258 44.5859 44.1641 44.6719C44.4062 44.7539 44.6152 44.8848 44.791 45.0645C44.9707 45.2441 45.1074 45.4746 45.2012 45.7559C45.2988 46.0371 45.3477 46.377 45.3477 46.7754V51H43.9355V46.8984C43.9355 46.5898 43.8887 46.3477 43.7949 46.1719C43.7051 45.9961 43.5742 45.8711 43.4023 45.7969C43.2344 45.7188 43.0332 45.6797 42.7988 45.6797C42.5332 45.6797 42.3066 45.7305 42.1191 45.832C41.9355 45.9336 41.7852 46.0723 41.668 46.248C41.5508 46.4238 41.4648 46.627 41.4102 46.8574C41.3555 47.0879 41.3281 47.334 41.3281 47.5957ZM45.2598 47.2207L44.5977 47.3672C44.5977 46.9844 44.6504 46.623 44.7559 46.2832C44.8652 45.9395 45.0234 45.6387 45.2305 45.3809C45.4414 45.1191 45.7012 44.9141 46.0098 44.7656C46.3184 44.6172 46.6719 44.543 47.0703 44.543C47.3945 44.543 47.6836 44.5879 47.9375 44.6777C48.1953 44.7637 48.4141 44.9004 48.5938 45.0879C48.7734 45.2754 48.9102 45.5195 49.0039 45.8203C49.0977 46.1172 49.1445 46.4766 49.1445 46.8984V51H47.7266V46.8926C47.7266 46.5723 47.6797 46.3242 47.5859 46.1484C47.4961 45.9727 47.3672 45.8516 47.1992 45.7852C47.0312 45.7148 46.8301 45.6797 46.5957 45.6797C46.377 45.6797 46.1836 45.7207 46.0156 45.8027C45.8516 45.8809 45.7129 45.9922 45.5996 46.1367C45.4863 46.2773 45.4004 46.4395 45.3418 46.623C45.2871 46.8066 45.2598 47.0059 45.2598 47.2207Z" fill="black"/>
<circle cx="175" cy="17.5" r="16" stroke="#CCCCCC" stroke-width="3"/>
<path d="M178.491 21.4766V23H171.269V21.6963L174.733 17.9536C175.095 17.5435 175.38 17.187 175.59 16.8843C175.8 16.5815 175.949 16.3081 176.037 16.064C176.13 15.8149 176.176 15.5781 176.176 15.3535C176.176 15.0264 176.118 14.7407 176 14.4966C175.883 14.2476 175.712 14.0547 175.488 13.918C175.268 13.7812 174.997 13.7129 174.675 13.7129C174.318 13.7129 174.013 13.7959 173.759 13.9619C173.51 14.123 173.32 14.3477 173.188 14.6357C173.061 14.9238 172.998 15.2534 172.998 15.6245H171.057C171.057 14.9946 171.203 14.4209 171.496 13.9033C171.789 13.3809 172.209 12.9634 172.756 12.6509C173.303 12.3384 173.952 12.1821 174.704 12.1821C175.437 12.1821 176.057 12.3042 176.564 12.5483C177.072 12.7876 177.458 13.1294 177.722 13.5737C177.985 14.0181 178.117 14.5479 178.117 15.1631C178.117 15.5049 178.061 15.8418 177.949 16.1738C177.836 16.5059 177.678 16.8354 177.473 17.1626C177.272 17.4849 177.033 17.812 176.755 18.144C176.477 18.4761 176.167 18.8154 175.825 19.1621L173.745 21.4766H178.491Z" fill="#CCCCCC"/>
<path d="M147.537 46.0312V47.1973H143.008V46.0312H147.537ZM143.371 42.4688V51H141.9V42.4688H143.371ZM148.668 42.4688V51H147.203V42.4688H148.668ZM150.42 42.4688H153.438C154.086 42.4688 154.639 42.5664 155.096 42.7617C155.553 42.957 155.902 43.2461 156.145 43.6289C156.391 44.0078 156.514 44.4766 156.514 45.0352C156.514 45.4609 156.436 45.8359 156.279 46.1602C156.123 46.4844 155.902 46.7578 155.617 46.9805C155.332 47.1992 154.992 47.3691 154.598 47.4902L154.152 47.707H151.439L151.428 46.541H153.461C153.812 46.541 154.105 46.4785 154.34 46.3535C154.574 46.2285 154.75 46.0586 154.867 45.8438C154.988 45.625 155.049 45.3789 155.049 45.1055C155.049 44.8086 154.99 44.5508 154.873 44.332C154.76 44.1094 154.584 43.9395 154.346 43.8223C154.107 43.7012 153.805 43.6406 153.438 43.6406H151.891V51H150.42V42.4688ZM155.289 51L153.285 47.168L154.826 47.1621L156.859 50.9238V51H155.289ZM162.338 44.6602V51H160.92V44.6602H162.338ZM160.826 42.9961C160.826 42.7812 160.896 42.6035 161.037 42.4629C161.182 42.3184 161.381 42.2461 161.635 42.2461C161.885 42.2461 162.082 42.3184 162.227 42.4629C162.371 42.6035 162.443 42.7812 162.443 42.9961C162.443 43.207 162.371 43.3828 162.227 43.5234C162.082 43.6641 161.885 43.7344 161.635 43.7344C161.381 43.7344 161.182 43.6641 161.037 43.5234C160.896 43.3828 160.826 43.207 160.826 42.9961ZM165.285 46.0137V51H163.873V44.6602H165.203L165.285 46.0137ZM165.033 47.5957L164.576 47.5898C164.58 47.1406 164.643 46.7285 164.764 46.3535C164.889 45.9785 165.061 45.6562 165.279 45.3867C165.502 45.1172 165.768 44.9102 166.076 44.7656C166.385 44.6172 166.729 44.543 167.107 44.543C167.412 44.543 167.688 44.5859 167.934 44.6719C168.184 44.7539 168.396 44.8887 168.572 45.0762C168.752 45.2637 168.889 45.5078 168.982 45.8086C169.076 46.1055 169.123 46.4707 169.123 46.9043V51H167.705V46.8984C167.705 46.5938 167.66 46.3535 167.57 46.1777C167.484 45.998 167.357 45.8711 167.189 45.7969C167.025 45.7188 166.82 45.6797 166.574 45.6797C166.332 45.6797 166.115 45.7305 165.924 45.832C165.732 45.9336 165.57 46.0723 165.438 46.248C165.309 46.4238 165.209 46.627 165.139 46.8574C165.068 47.0879 165.033 47.334 165.033 47.5957ZM173.471 44.6602V45.6914H169.896V44.6602H173.471ZM170.928 43.1074H172.34V49.248C172.34 49.4434 172.367 49.5938 172.422 49.6992C172.48 49.8008 172.561 49.8691 172.662 49.9043C172.764 49.9395 172.883 49.957 173.02 49.957C173.117 49.957 173.211 49.9512 173.301 49.9395C173.391 49.9277 173.463 49.916 173.518 49.9043L173.523 50.9824C173.406 51.0176 173.27 51.0488 173.113 51.0762C172.961 51.1035 172.785 51.1172 172.586 51.1172C172.262 51.1172 171.975 51.0605 171.725 50.9473C171.475 50.8301 171.279 50.6406 171.139 50.3789C170.998 50.1172 170.928 49.7695 170.928 49.3359V43.1074ZM177.355 51.1172C176.887 51.1172 176.463 51.041 176.084 50.8887C175.709 50.7324 175.389 50.5156 175.123 50.2383C174.861 49.9609 174.66 49.6348 174.52 49.2598C174.379 48.8848 174.309 48.4805 174.309 48.0469V47.8125C174.309 47.3164 174.381 46.8672 174.525 46.4648C174.67 46.0625 174.871 45.7188 175.129 45.4336C175.387 45.1445 175.691 44.9238 176.043 44.7715C176.395 44.6191 176.775 44.543 177.186 44.543C177.639 44.543 178.035 44.6191 178.375 44.7715C178.715 44.9238 178.996 45.1387 179.219 45.416C179.445 45.6895 179.613 46.0156 179.723 46.3945C179.836 46.7734 179.893 47.1914 179.893 47.6484V48.252H174.994V47.2383H178.498V47.127C178.49 46.873 178.439 46.6348 178.346 46.4121C178.256 46.1895 178.117 46.0098 177.93 45.873C177.742 45.7363 177.492 45.668 177.18 45.668C176.945 45.668 176.736 45.7188 176.553 45.8203C176.373 45.918 176.223 46.0605 176.102 46.248C175.98 46.4355 175.887 46.6621 175.82 46.9277C175.758 47.1895 175.727 47.4844 175.727 47.8125V48.0469C175.727 48.3242 175.764 48.582 175.838 48.8203C175.916 49.0547 176.029 49.2598 176.178 49.4355C176.326 49.6113 176.506 49.75 176.717 49.8516C176.928 49.9492 177.168 49.998 177.438 49.998C177.777 49.998 178.08 49.9297 178.346 49.793C178.611 49.6562 178.842 49.4629 179.037 49.2129L179.781 49.9336C179.645 50.1328 179.467 50.3242 179.248 50.5078C179.029 50.6875 178.762 50.834 178.445 50.9473C178.133 51.0605 177.77 51.1172 177.355 51.1172ZM182.412 45.8672V51H181V44.6602H182.348L182.412 45.8672ZM184.352 44.6191L184.34 45.9316C184.254 45.916 184.16 45.9043 184.059 45.8965C183.961 45.8887 183.863 45.8848 183.766 45.8848C183.523 45.8848 183.311 45.9199 183.127 45.9902C182.943 46.0566 182.789 46.1543 182.664 46.2832C182.543 46.4082 182.449 46.5605 182.383 46.7402C182.316 46.9199 182.277 47.1211 182.266 47.3438L181.943 47.3672C181.943 46.9688 181.982 46.5996 182.061 46.2598C182.139 45.9199 182.256 45.6211 182.412 45.3633C182.572 45.1055 182.771 44.9043 183.01 44.7598C183.252 44.6152 183.531 44.543 183.848 44.543C183.934 44.543 184.025 44.5508 184.123 44.5664C184.225 44.582 184.301 44.5996 184.352 44.6191ZM187.404 49.8809L188.957 44.6602H190.422L188.219 51H187.305L187.404 49.8809ZM186.215 44.6602L187.797 49.9043L187.873 51H186.959L184.744 44.6602H186.215ZM192.807 44.6602V51H191.389V44.6602H192.807ZM191.295 42.9961C191.295 42.7812 191.365 42.6035 191.506 42.4629C191.65 42.3184 191.85 42.2461 192.104 42.2461C192.354 42.2461 192.551 42.3184 192.695 42.4629C192.84 42.6035 192.912 42.7812 192.912 42.9961C192.912 43.207 192.84 43.3828 192.695 43.5234C192.551 43.6641 192.354 43.7344 192.104 43.7344C191.85 43.7344 191.65 43.6641 191.506 43.5234C191.365 43.3828 191.295 43.207 191.295 42.9961ZM197.148 51.1172C196.68 51.1172 196.256 51.041 195.877 50.8887C195.502 50.7324 195.182 50.5156 194.916 50.2383C194.654 49.9609 194.453 49.6348 194.312 49.2598C194.172 48.8848 194.102 48.4805 194.102 48.0469V47.8125C194.102 47.3164 194.174 46.8672 194.318 46.4648C194.463 46.0625 194.664 45.7188 194.922 45.4336C195.18 45.1445 195.484 44.9238 195.836 44.7715C196.188 44.6191 196.568 44.543 196.979 44.543C197.432 44.543 197.828 44.6191 198.168 44.7715C198.508 44.9238 198.789 45.1387 199.012 45.416C199.238 45.6895 199.406 46.0156 199.516 46.3945C199.629 46.7734 199.686 47.1914 199.686 47.6484V48.252H194.787V47.2383H198.291V47.127C198.283 46.873 198.232 46.6348 198.139 46.4121C198.049 46.1895 197.91 46.0098 197.723 45.873C197.535 45.7363 197.285 45.668 196.973 45.668C196.738 45.668 196.529 45.7188 196.346 45.8203C196.166 45.918 196.016 46.0605 195.895 46.248C195.773 46.4355 195.68 46.6621 195.613 46.9277C195.551 47.1895 195.52 47.4844 195.52 47.8125V48.0469C195.52 48.3242 195.557 48.582 195.631 48.8203C195.709 49.0547 195.822 49.2598 195.971 49.4355C196.119 49.6113 196.299 49.75 196.51 49.8516C196.721 49.9492 196.961 49.998 197.23 49.998C197.57 49.998 197.873 49.9297 198.139 49.793C198.404 49.6562 198.635 49.4629 198.83 49.2129L199.574 49.9336C199.438 50.1328 199.26 50.3242 199.041 50.5078C198.822 50.6875 198.555 50.834 198.238 50.9473C197.926 51.0605 197.562 51.1172 197.148 51.1172ZM202.51 49.5938L203.975 44.6602H204.877L204.631 46.1367L203.154 51H202.346L202.51 49.5938ZM201.648 44.6602L202.791 49.6172L202.885 51H201.982L200.266 44.6602H201.648ZM206.248 49.5586L207.355 44.6602H208.732L207.021 51H206.119L206.248 49.5586ZM205.029 44.6602L206.477 49.5352L206.658 51H205.85L204.355 46.1309L204.109 44.6602H205.029Z" fill="#CCCCCC"/>
<circle cx="315" cy="17.5" r="16" stroke="#CCCCCC" stroke-width="3"/>
<path d="M313.386 16.811H314.477C314.863 16.811 315.18 16.7451 315.429 16.6133C315.683 16.4766 315.871 16.291 315.993 16.0566C316.12 15.8174 316.184 15.5415 316.184 15.229C316.184 14.9214 316.127 14.6553 316.015 14.4307C315.903 14.2012 315.732 14.0254 315.502 13.9033C315.278 13.7764 314.99 13.7129 314.638 13.7129C314.355 13.7129 314.094 13.769 313.854 13.8813C313.62 13.9937 313.432 14.1548 313.291 14.3647C313.154 14.5698 313.085 14.8164 313.085 15.1045H311.145C311.145 14.5283 311.296 14.0229 311.599 13.5884C311.906 13.1489 312.321 12.8047 312.844 12.5557C313.366 12.3066 313.95 12.1821 314.594 12.1821C315.297 12.1821 315.913 12.2993 316.44 12.5337C316.972 12.7632 317.385 13.1025 317.678 13.5518C317.976 14.001 318.125 14.5576 318.125 15.2217C318.125 15.5391 318.049 15.8564 317.897 16.1738C317.751 16.4863 317.534 16.7695 317.246 17.0234C316.962 17.2725 316.613 17.4751 316.198 17.6313C315.788 17.7827 315.317 17.8584 314.785 17.8584H313.386V16.811ZM313.386 18.3052V17.2725H314.785C315.385 17.2725 315.905 17.3433 316.345 17.4849C316.789 17.6216 317.155 17.8169 317.443 18.0708C317.731 18.3198 317.944 18.6104 318.081 18.9424C318.222 19.2744 318.293 19.6309 318.293 20.0117C318.293 20.5098 318.2 20.9541 318.015 21.3447C317.829 21.7305 317.568 22.0576 317.231 22.3262C316.899 22.5947 316.508 22.7998 316.059 22.9414C315.61 23.0781 315.124 23.1465 314.602 23.1465C314.147 23.1465 313.706 23.0854 313.276 22.9634C312.851 22.8364 312.468 22.6484 312.126 22.3994C311.784 22.1455 311.513 21.8281 311.313 21.4473C311.113 21.0615 311.013 20.6147 311.013 20.1069H312.954C312.954 20.3999 313.024 20.6611 313.166 20.8906C313.312 21.1201 313.513 21.3008 313.767 21.4326C314.025 21.5596 314.316 21.623 314.638 21.623C314.995 21.623 315.3 21.5596 315.554 21.4326C315.812 21.3008 316.01 21.1152 316.147 20.876C316.284 20.6318 316.352 20.3413 316.352 20.0044C316.352 19.604 316.276 19.2793 316.125 19.0303C315.974 18.7812 315.756 18.5981 315.473 18.481C315.195 18.3638 314.863 18.3052 314.477 18.3052H313.386Z" fill="#CCCCCC"/>
<path d="M295.02 48.2227H296.484C296.438 48.7812 296.281 49.2793 296.016 49.7168C295.75 50.1504 295.377 50.4922 294.896 50.7422C294.416 50.9922 293.832 51.1172 293.145 51.1172C292.617 51.1172 292.143 51.0234 291.721 50.8359C291.299 50.6445 290.938 50.375 290.637 50.0273C290.336 49.6758 290.105 49.252 289.945 48.7559C289.789 48.2598 289.711 47.7051 289.711 47.0918V46.3828C289.711 45.7695 289.791 45.2148 289.951 44.7188C290.115 44.2227 290.35 43.7988 290.654 43.4473C290.959 43.0918 291.324 42.8203 291.75 42.6328C292.18 42.4453 292.662 42.3516 293.197 42.3516C293.877 42.3516 294.451 42.4766 294.92 42.7266C295.389 42.9766 295.752 43.3223 296.01 43.7637C296.271 44.2051 296.432 44.7109 296.49 45.2812H295.025C294.986 44.9141 294.9 44.5996 294.768 44.3379C294.639 44.0762 294.447 43.877 294.193 43.7402C293.939 43.5996 293.607 43.5293 293.197 43.5293C292.861 43.5293 292.568 43.5918 292.318 43.7168C292.068 43.8418 291.859 44.0254 291.691 44.2676C291.523 44.5098 291.396 44.8086 291.311 45.1641C291.229 45.5156 291.188 45.918 291.188 46.3711V47.0918C291.188 47.5215 291.225 47.9121 291.299 48.2637C291.377 48.6113 291.494 48.9102 291.65 49.1602C291.811 49.4102 292.014 49.6035 292.26 49.7402C292.506 49.877 292.801 49.9453 293.145 49.9453C293.562 49.9453 293.9 49.8789 294.158 49.7461C294.42 49.6133 294.617 49.4199 294.75 49.166C294.887 48.9082 294.977 48.5938 295.02 48.2227ZM297.41 47.9004V47.7656C297.41 47.3086 297.477 46.8848 297.609 46.4941C297.742 46.0996 297.934 45.7578 298.184 45.4688C298.438 45.1758 298.746 44.9492 299.109 44.7891C299.477 44.625 299.891 44.543 300.352 44.543C300.816 44.543 301.23 44.625 301.594 44.7891C301.961 44.9492 302.271 45.1758 302.525 45.4688C302.779 45.7578 302.973 46.0996 303.105 46.4941C303.238 46.8848 303.305 47.3086 303.305 47.7656V47.9004C303.305 48.3574 303.238 48.7812 303.105 49.1719C302.973 49.5625 302.779 49.9043 302.525 50.1973C302.271 50.4863 301.963 50.7129 301.6 50.877C301.236 51.0371 300.824 51.1172 300.363 51.1172C299.898 51.1172 299.482 51.0371 299.115 50.877C298.752 50.7129 298.443 50.4863 298.189 50.1973C297.936 49.9043 297.742 49.5625 297.609 49.1719C297.477 48.7812 297.41 48.3574 297.41 47.9004ZM298.822 47.7656V47.9004C298.822 48.1855 298.852 48.4551 298.91 48.709C298.969 48.9629 299.061 49.1855 299.186 49.377C299.311 49.5684 299.471 49.7188 299.666 49.8281C299.861 49.9375 300.094 49.9922 300.363 49.9922C300.625 49.9922 300.852 49.9375 301.043 49.8281C301.238 49.7188 301.398 49.5684 301.523 49.377C301.648 49.1855 301.74 48.9629 301.799 48.709C301.861 48.4551 301.893 48.1855 301.893 47.9004V47.7656C301.893 47.4844 301.861 47.2188 301.799 46.9688C301.74 46.7148 301.646 46.4902 301.518 46.2949C301.393 46.0996 301.232 45.9473 301.037 45.8379C300.846 45.7246 300.617 45.668 300.352 45.668C300.086 45.668 299.855 45.7246 299.66 45.8379C299.469 45.9473 299.311 46.0996 299.186 46.2949C299.061 46.4902 298.969 46.7148 298.91 46.9688C298.852 47.2188 298.822 47.4844 298.822 47.7656ZM305.9 45.9492V51H304.488V44.6602H305.818L305.9 45.9492ZM305.672 47.5957L305.191 47.5898C305.191 47.1523 305.246 46.748 305.355 46.377C305.465 46.0059 305.625 45.6836 305.836 45.4102C306.047 45.1328 306.309 44.9199 306.621 44.7715C306.938 44.6191 307.303 44.543 307.717 44.543C308.006 44.543 308.27 44.5859 308.508 44.6719C308.75 44.7539 308.959 44.8848 309.135 45.0645C309.314 45.2441 309.451 45.4746 309.545 45.7559C309.643 46.0371 309.691 46.377 309.691 46.7754V51H308.279V46.8984C308.279 46.5898 308.232 46.3477 308.139 46.1719C308.049 45.9961 307.918 45.8711 307.746 45.7969C307.578 45.7188 307.377 45.6797 307.143 45.6797C306.877 45.6797 306.65 45.7305 306.463 45.832C306.279 45.9336 306.129 46.0723 306.012 46.248C305.895 46.4238 305.809 46.627 305.754 46.8574C305.699 47.0879 305.672 47.334 305.672 47.5957ZM309.604 47.2207L308.941 47.3672C308.941 46.9844 308.994 46.623 309.1 46.2832C309.209 45.9395 309.367 45.6387 309.574 45.3809C309.785 45.1191 310.045 44.9141 310.354 44.7656C310.662 44.6172 311.016 44.543 311.414 44.543C311.738 44.543 312.027 44.5879 312.281 44.6777C312.539 44.7637 312.758 44.9004 312.938 45.0879C313.117 45.2754 313.254 45.5195 313.348 45.8203C313.441 46.1172 313.488 46.4766 313.488 46.8984V51H312.07V46.8926C312.07 46.5723 312.023 46.3242 311.93 46.1484C311.84 45.9727 311.711 45.8516 311.543 45.7852C311.375 45.7148 311.174 45.6797 310.939 45.6797C310.721 45.6797 310.527 45.7207 310.359 45.8027C310.195 45.8809 310.057 45.9922 309.943 46.1367C309.83 46.2773 309.744 46.4395 309.686 46.623C309.631 46.8066 309.604 47.0059 309.604 47.2207ZM316.359 45.8789V53.4375H314.947V44.6602H316.248L316.359 45.8789ZM320.49 47.7715V47.8945C320.49 48.3555 320.436 48.7832 320.326 49.1777C320.221 49.5684 320.062 49.9102 319.852 50.2031C319.645 50.4922 319.389 50.7168 319.084 50.877C318.779 51.0371 318.428 51.1172 318.029 51.1172C317.635 51.1172 317.289 51.0449 316.992 50.9004C316.699 50.752 316.451 50.543 316.248 50.2734C316.045 50.0039 315.881 49.6875 315.756 49.3242C315.635 48.957 315.549 48.5547 315.498 48.1172V47.6426C315.549 47.1777 315.635 46.7559 315.756 46.377C315.881 45.998 316.045 45.6719 316.248 45.3984C316.451 45.125 316.699 44.9141 316.992 44.7656C317.285 44.6172 317.627 44.543 318.018 44.543C318.416 44.543 318.77 44.6211 319.078 44.7773C319.387 44.9297 319.646 45.1484 319.857 45.4336C320.068 45.7148 320.227 46.0547 320.332 46.4531C320.438 46.8477 320.49 47.2871 320.49 47.7715ZM319.078 47.8945V47.7715C319.078 47.4785 319.051 47.207 318.996 46.957C318.941 46.7031 318.855 46.4805 318.738 46.2891C318.621 46.0977 318.471 45.9492 318.287 45.8438C318.107 45.7344 317.891 45.6797 317.637 45.6797C317.387 45.6797 317.172 45.7227 316.992 45.8086C316.812 45.8906 316.662 46.0059 316.541 46.1543C316.42 46.3027 316.326 46.4766 316.26 46.6758C316.193 46.8711 316.146 47.084 316.119 47.3145V48.4512C316.166 48.7324 316.246 48.9902 316.359 49.2246C316.473 49.459 316.633 49.6465 316.84 49.7871C317.051 49.9238 317.32 49.9922 317.648 49.9922C317.902 49.9922 318.119 49.9375 318.299 49.8281C318.479 49.7188 318.625 49.5684 318.738 49.377C318.855 49.1816 318.941 48.957 318.996 48.7031C319.051 48.4492 319.078 48.1797 319.078 47.8945ZM323.203 42V51H321.785V42H323.203ZM327.545 51.1172C327.076 51.1172 326.652 51.041 326.273 50.8887C325.898 50.7324 325.578 50.5156 325.312 50.2383C325.051 49.9609 324.85 49.6348 324.709 49.2598C324.568 48.8848 324.498 48.4805 324.498 48.0469V47.8125C324.498 47.3164 324.57 46.8672 324.715 46.4648C324.859 46.0625 325.061 45.7188 325.318 45.4336C325.576 45.1445 325.881 44.9238 326.232 44.7715C326.584 44.6191 326.965 44.543 327.375 44.543C327.828 44.543 328.225 44.6191 328.564 44.7715C328.904 44.9238 329.186 45.1387 329.408 45.416C329.635 45.6895 329.803 46.0156 329.912 46.3945C330.025 46.7734 330.082 47.1914 330.082 47.6484V48.252H325.184V47.2383H328.688V47.127C328.68 46.873 328.629 46.6348 328.535 46.4121C328.445 46.1895 328.307 46.0098 328.119 45.873C327.932 45.7363 327.682 45.668 327.369 45.668C327.135 45.668 326.926 45.7188 326.742 45.8203C326.562 45.918 326.412 46.0605 326.291 46.248C326.17 46.4355 326.076 46.6621 326.01 46.9277C325.947 47.1895 325.916 47.4844 325.916 47.8125V48.0469C325.916 48.3242 325.953 48.582 326.027 48.8203C326.105 49.0547 326.219 49.2598 326.367 49.4355C326.516 49.6113 326.695 49.75 326.906 49.8516C327.117 49.9492 327.357 49.998 327.627 49.998C327.967 49.998 328.27 49.9297 328.535 49.793C328.801 49.6562 329.031 49.4629 329.227 49.2129L329.971 49.9336C329.834 50.1328 329.656 50.3242 329.438 50.5078C329.219 50.6875 328.951 50.834 328.635 50.9473C328.322 51.0605 327.959 51.1172 327.545 51.1172ZM334.09 44.6602V45.6914H330.516V44.6602H334.09ZM331.547 43.1074H332.959V49.248C332.959 49.4434 332.986 49.5938 333.041 49.6992C333.1 49.8008 333.18 49.8691 333.281 49.9043C333.383 49.9395 333.502 49.957 333.639 49.957C333.736 49.957 333.83 49.9512 333.92 49.9395C334.01 49.9277 334.082 49.916 334.137 49.9043L334.143 50.9824C334.025 51.0176 333.889 51.0488 333.732 51.0762C333.58 51.1035 333.404 51.1172 333.205 51.1172C332.881 51.1172 332.594 51.0605 332.344 50.9473C332.094 50.8301 331.898 50.6406 331.758 50.3789C331.617 50.1172 331.547 49.7695 331.547 49.3359V43.1074ZM337.975 51.1172C337.506 51.1172 337.082 51.041 336.703 50.8887C336.328 50.7324 336.008 50.5156 335.742 50.2383C335.48 49.9609 335.279 49.6348 335.139 49.2598C334.998 48.8848 334.928 48.4805 334.928 48.0469V47.8125C334.928 47.3164 335 46.8672 335.145 46.4648C335.289 46.0625 335.49 45.7188 335.748 45.4336C336.006 45.1445 336.311 44.9238 336.662 44.7715C337.014 44.6191 337.395 44.543 337.805 44.543C338.258 44.543 338.654 44.6191 338.994 44.7715C339.334 44.9238 339.615 45.1387 339.838 45.416C340.064 45.6895 340.232 46.0156 340.342 46.3945C340.455 46.7734 340.512 47.1914 340.512 47.6484V48.252H335.613V47.2383H339.117V47.127C339.109 46.873 339.059 46.6348 338.965 46.4121C338.875 46.1895 338.736 46.0098 338.549 45.873C338.361 45.7363 338.111 45.668 337.799 45.668C337.564 45.668 337.355 45.7188 337.172 45.8203C336.992 45.918 336.842 46.0605 336.721 46.248C336.6 46.4355 336.506 46.6621 336.439 46.9277C336.377 47.1895 336.346 47.4844 336.346 47.8125V48.0469C336.346 48.3242 336.383 48.582 336.457 48.8203C336.535 49.0547 336.648 49.2598 336.797 49.4355C336.945 49.6113 337.125 49.75 337.336 49.8516C337.547 49.9492 337.787 49.998 338.057 49.998C338.396 49.998 338.699 49.9297 338.965 49.793C339.23 49.6562 339.461 49.4629 339.656 49.2129L340.4 49.9336C340.264 50.1328 340.086 50.3242 339.867 50.5078C339.648 50.6875 339.381 50.834 339.064 50.9473C338.752 51.0605 338.389 51.1172 337.975 51.1172Z" fill="#CCCCCC"/>
</svg>
