<svg width="350" height="54" viewBox="0 0 350 54" fill="none" xmlns="http://www.w3.org/2000/svg">
<line x1="53" y1="18" x2="157" y2="18" stroke="#FF6600" stroke-width="2" stroke-linecap="round"/>
<line x1="193" y1="18" x2="297" y2="18" stroke="#CCCCCC" stroke-width="2" stroke-linecap="round"/>
<circle cx="35" cy="17.5" r="16" fill="#FF6600" stroke="#FF6600" stroke-width="3"/>
<path d="M43 12L32 23L27 18" stroke="white" stroke-width="2" stroke-linecap="round" stroke-linejoin="round"/>
<path d="M26.5801 49.834V51H22.0508V49.834H26.5801ZM22.4668 42.4688V51H20.9961V42.4688H22.4668ZM25.9883 46.0312V47.1797H22.0508V46.0312H25.9883ZM26.5508 42.4688V43.6406H22.0508V42.4688H26.5508ZM28.7188 44.6602L29.9258 46.7637L31.1562 44.6602H32.709L30.7871 47.7715L32.7852 51H31.2324L29.9434 48.8086L28.6543 51H27.0957L29.0879 47.7715L27.1719 44.6602H28.7188ZM37.25 49.7285V46.7051C37.25 46.4785 37.209 46.2832 37.127 46.1191C37.0449 45.9551 36.9199 45.8281 36.752 45.7383C36.5879 45.6484 36.3809 45.6035 36.1309 45.6035C35.9004 45.6035 35.7012 45.6426 35.5332 45.7207C35.3652 45.7988 35.2344 45.9043 35.1406 46.0371C35.0469 46.1699 35 46.3203 35 46.4883H33.5938C33.5938 46.2383 33.6543 45.9961 33.7754 45.7617C33.8965 45.5273 34.0723 45.3184 34.3027 45.1348C34.5332 44.9512 34.8086 44.8066 35.1289 44.7012C35.4492 44.5957 35.8086 44.543 36.207 44.543C36.6836 44.543 37.1055 44.623 37.4727 44.7832C37.8438 44.9434 38.1348 45.1855 38.3457 45.5098C38.5605 45.8301 38.668 46.2324 38.668 46.7168V49.5352C38.668 49.8242 38.6875 50.084 38.7266 50.3145C38.7695 50.541 38.8301 50.7383 38.9082 50.9062V51H37.4609C37.3945 50.8477 37.3418 50.6543 37.3027 50.4199C37.2676 50.1816 37.25 49.9512 37.25 49.7285ZM37.4551 47.1445L37.4668 48.0176H36.4531C36.1914 48.0176 35.9609 48.043 35.7617 48.0938C35.5625 48.1406 35.3965 48.2109 35.2637 48.3047C35.1309 48.3984 35.0312 48.5117 34.9648 48.6445C34.8984 48.7773 34.8652 48.9277 34.8652 49.0957C34.8652 49.2637 34.9043 49.418 34.9824 49.5586C35.0605 49.6953 35.1738 49.8027 35.3223 49.8809C35.4746 49.959 35.6582 49.998 35.873 49.998C36.1621 49.998 36.4141 49.9395 36.6289 49.8223C36.8477 49.7012 37.0195 49.5547 37.1445 49.3828C37.2695 49.207 37.3359 49.041 37.3438 48.8848L37.8008 49.5117C37.7539 49.6719 37.6738 49.8438 37.5605 50.0273C37.4473 50.2109 37.2988 50.3867 37.1152 50.5547C36.9355 50.7188 36.7188 50.8535 36.4648 50.959C36.2148 51.0645 35.9258 51.1172 35.5977 51.1172C35.1836 51.1172 34.8145 51.0352 34.4902 50.8711C34.166 50.7031 33.9121 50.4785 33.7285 50.1973C33.5449 49.9121 33.4531 49.5898 33.4531 49.2305C33.4531 48.8945 33.5156 48.5977 33.6406 48.3398C33.7695 48.0781 33.957 47.8594 34.2031 47.6836C34.4531 47.5078 34.7578 47.375 35.1172 47.2852C35.4766 47.1914 35.8867 47.1445 36.3477 47.1445H37.4551ZM41.5566 45.9492V51H40.1445V44.6602H41.4746L41.5566 45.9492ZM41.3281 47.5957L40.8477 47.5898C40.8477 47.1523 40.9023 46.748 41.0117 46.377C41.1211 46.0059 41.2812 45.6836 41.4922 45.4102C41.7031 45.1328 41.9648 44.9199 42.2773 44.7715C42.5938 44.6191 42.959 44.543 43.373 44.543C43.6621 44.543 43.9258 44.5859 44.1641 44.6719C44.4062 44.7539 44.6152 44.8848 44.791 45.0645C44.9707 45.2441 45.1074 45.4746 45.2012 45.7559C45.2988 46.0371 45.3477 46.377 45.3477 46.7754V51H43.9355V46.8984C43.9355 46.5898 43.8887 46.3477 43.7949 46.1719C43.7051 45.9961 43.5742 45.8711 43.4023 45.7969C43.2344 45.7188 43.0332 45.6797 42.7988 45.6797C42.5332 45.6797 42.3066 45.7305 42.1191 45.832C41.9355 45.9336 41.7852 46.0723 41.668 46.248C41.5508 46.4238 41.4648 46.627 41.4102 46.8574C41.3555 47.0879 41.3281 47.334 41.3281 47.5957ZM45.2598 47.2207L44.5977 47.3672C44.5977 46.9844 44.6504 46.623 44.7559 46.2832C44.8652 45.9395 45.0234 45.6387 45.2305 45.3809C45.4414 45.1191 45.7012 44.9141 46.0098 44.7656C46.3184 44.6172 46.6719 44.543 47.0703 44.543C47.3945 44.543 47.6836 44.5879 47.9375 44.6777C48.1953 44.7637 48.4141 44.9004 48.5938 45.0879C48.7734 45.2754 48.9102 45.5195 49.0039 45.8203C49.0977 46.1172 49.1445 46.4766 49.1445 46.8984V51H47.7266V46.8926C47.7266 46.5723 47.6797 46.3242 47.5859 46.1484C47.4961 45.9727 47.3672 45.8516 47.1992 45.7852C47.0312 45.7148 46.8301 45.6797 46.5957 45.6797C46.377 45.6797 46.1836 45.7207 46.0156 45.8027C45.8516 45.8809 45.7129 45.9922 45.5996 46.1367C45.4863 46.2773 45.4004 46.4395 45.3418 46.623C45.2871 46.8066 45.2598 47.0059 45.2598 47.2207Z" fill="#1B1816"/>
<circle cx="175" cy="17.5" r="16" stroke="#FF6600" stroke-width="3"/>
<path d="M178.491 21.4766V23H171.269V21.6963L174.733 17.9536C175.095 17.5435 175.38 17.187 175.59 16.8843C175.8 16.5815 175.949 16.3081 176.037 16.064C176.13 15.8149 176.176 15.5781 176.176 15.3535C176.176 15.0264 176.118 14.7407 176 14.4966C175.883 14.2476 175.712 14.0547 175.488 13.918C175.268 13.7812 174.997 13.7129 174.675 13.7129C174.318 13.7129 174.013 13.7959 173.759 13.9619C173.51 14.123 173.32 14.3477 173.188 14.6357C173.061 14.9238 172.998 15.2534 172.998 15.6245H171.057C171.057 14.9946 171.203 14.4209 171.496 13.9033C171.789 13.3809 172.209 12.9634 172.756 12.6509C173.303 12.3384 173.952 12.1821 174.704 12.1821C175.437 12.1821 176.057 12.3042 176.564 12.5483C177.072 12.7876 177.458 13.1294 177.722 13.5737C177.985 14.0181 178.117 14.5479 178.117 15.1631C178.117 15.5049 178.061 15.8418 177.949 16.1738C177.836 16.5059 177.678 16.8354 177.473 17.1626C177.272 17.4849 177.033 17.812 176.755 18.144C176.477 18.4761 176.167 18.8154 175.825 19.1621L173.745 21.4766H178.491Z" fill="#FF6600"/>
<path d="M147.537 46.0312V47.1973H143.008V46.0312H147.537ZM143.371 42.4688V51H141.9V42.4688H143.371ZM148.668 42.4688V51H147.203V42.4688H148.668ZM150.42 42.4688H153.438C154.086 42.4688 154.639 42.5664 155.096 42.7617C155.553 42.957 155.902 43.2461 156.145 43.6289C156.391 44.0078 156.514 44.4766 156.514 45.0352C156.514 45.4609 156.436 45.8359 156.279 46.1602C156.123 46.4844 155.902 46.7578 155.617 46.9805C155.332 47.1992 154.992 47.3691 154.598 47.4902L154.152 47.707H151.439L151.428 46.541H153.461C153.812 46.541 154.105 46.4785 154.34 46.3535C154.574 46.2285 154.75 46.0586 154.867 45.8438C154.988 45.625 155.049 45.3789 155.049 45.1055C155.049 44.8086 154.99 44.5508 154.873 44.332C154.76 44.1094 154.584 43.9395 154.346 43.8223C154.107 43.7012 153.805 43.6406 153.438 43.6406H151.891V51H150.42V42.4688ZM155.289 51L153.285 47.168L154.826 47.1621L156.859 50.9238V51H155.289ZM162.338 44.6602V51H160.92V44.6602H162.338ZM160.826 42.9961C160.826 42.7812 160.896 42.6035 161.037 42.4629C161.182 42.3184 161.381 42.2461 161.635 42.2461C161.885 42.2461 162.082 42.3184 162.227 42.4629C162.371 42.6035 162.443 42.7812 162.443 42.9961C162.443 43.207 162.371 43.3828 162.227 43.5234C162.082 43.6641 161.885 43.7344 161.635 43.7344C161.381 43.7344 161.182 43.6641 161.037 43.5234C160.896 43.3828 160.826 43.207 160.826 42.9961ZM165.285 46.0137V51H163.873V44.6602H165.203L165.285 46.0137ZM165.033 47.5957L164.576 47.5898C164.58 47.1406 164.643 46.7285 164.764 46.3535C164.889 45.9785 165.061 45.6562 165.279 45.3867C165.502 45.1172 165.768 44.9102 166.076 44.7656C166.385 44.6172 166.729 44.543 167.107 44.543C167.412 44.543 167.688 44.5859 167.934 44.6719C168.184 44.7539 168.396 44.8887 168.572 45.0762C168.752 45.2637 168.889 45.5078 168.982 45.8086C169.076 46.1055 169.123 46.4707 169.123 46.9043V51H167.705V46.8984C167.705 46.5938 167.66 46.3535 167.57 46.1777C167.484 45.998 167.357 45.8711 167.189 45.7969C167.025 45.7188 166.82 45.6797 166.574 45.6797C166.332 45.6797 166.115 45.7305 165.924 45.832C165.732 45.9336 165.57 46.0723 165.438 46.248C165.309 46.4238 165.209 46.627 165.139 46.8574C165.068 47.0879 165.033 47.334 165.033 47.5957ZM173.471 44.6602V45.6914H169.896V44.6602H173.471ZM170.928 43.1074H172.34V49.248C172.34 49.4434 172.367 49.5938 172.422 49.6992C172.48 49.8008 172.561 49.8691 172.662 49.9043C172.764 49.9395 172.883 49.957 173.02 49.957C173.117 49.957 173.211 49.9512 173.301 49.9395C173.391 49.9277 173.463 49.916 173.518 49.9043L173.523 50.9824C173.406 51.0176 173.27 51.0488 173.113 51.0762C172.961 51.1035 172.785 51.1172 172.586 51.1172C172.262 51.1172 171.975 51.0605 171.725 50.9473C171.475 50.8301 171.279 50.6406 171.139 50.3789C170.998 50.1172 170.928 49.7695 170.928 49.3359V43.1074ZM177.355 51.1172C176.887 51.1172 176.463 51.041 176.084 50.8887C175.709 50.7324 175.389 50.5156 175.123 50.2383C174.861 49.9609 174.66 49.6348 174.52 49.2598C174.379 48.8848 174.309 48.4805 174.309 48.0469V47.8125C174.309 47.3164 174.381 46.8672 174.525 46.4648C174.67 46.0625 174.871 45.7188 175.129 45.4336C175.387 45.1445 175.691 44.9238 176.043 44.7715C176.395 44.6191 176.775 44.543 177.186 44.543C177.639 44.543 178.035 44.6191 178.375 44.7715C178.715 44.9238 178.996 45.1387 179.219 45.416C179.445 45.6895 179.613 46.0156 179.723 46.3945C179.836 46.7734 179.893 47.1914 179.893 47.6484V48.252H174.994V47.2383H178.498V47.127C178.49 46.873 178.439 46.6348 178.346 46.4121C178.256 46.1895 178.117 46.0098 177.93 45.873C177.742 45.7363 177.492 45.668 177.18 45.668C176.945 45.668 176.736 45.7188 176.553 45.8203C176.373 45.918 176.223 46.0605 176.102 46.248C175.98 46.4355 175.887 46.6621 175.82 46.9277C175.758 47.1895 175.727 47.4844 175.727 47.8125V48.0469C175.727 48.3242 175.764 48.582 175.838 48.8203C175.916 49.0547 176.029 49.2598 176.178 49.4355C176.326 49.6113 176.506 49.75 176.717 49.8516C176.928 49.9492 177.168 49.998 177.438 49.998C177.777 49.998 178.08 49.9297 178.346 49.793C178.611 49.6562 178.842 49.4629 179.037 49.2129L179.781 49.9336C179.645 50.1328 179.467 50.3242 179.248 50.5078C179.029 50.6875 178.762 50.834 178.445 50.9473C178.133 51.0605 177.77 51.1172 177.355 51.1172ZM182.412 45.8672V51H181V44.6602H182.348L182.412 45.8672ZM184.352 44.6191L184.34 45.9316C184.254 45.916 184.16 45.9043 184.059 45.8965C183.961 45.8887 183.863 45.8848 183.766 45.8848C183.523 45.8848 183.311 45.9199 183.127 45.9902C182.943 46.0566 182.789 46.1543 182.664 46.2832C182.543 46.4082 182.449 46.5605 182.383 46.7402C182.316 46.9199 182.277 47.1211 182.266 47.3438L181.943 47.3672C181.943 46.9688 181.982 46.5996 182.061 46.2598C182.139 45.9199 182.256 45.6211 182.412 45.3633C182.572 45.1055 182.771 44.9043 183.01 44.7598C183.252 44.6152 183.531 44.543 183.848 44.543C183.934 44.543 184.025 44.5508 184.123 44.5664C184.225 44.582 184.301 44.5996 184.352 44.6191ZM187.404 49.8809L188.957 44.6602H190.422L188.219 51H187.305L187.404 49.8809ZM186.215 44.6602L187.797 49.9043L187.873 51H186.959L184.744 44.6602H186.215ZM192.807 44.6602V51H191.389V44.6602H192.807ZM191.295 42.9961C191.295 42.7812 191.365 42.6035 191.506 42.4629C191.65 42.3184 191.85 42.2461 192.104 42.2461C192.354 42.2461 192.551 42.3184 192.695 42.4629C192.84 42.6035 192.912 42.7812 192.912 42.9961C192.912 43.207 192.84 43.3828 192.695 43.5234C192.551 43.6641 192.354 43.7344 192.104 43.7344C191.85 43.7344 191.65 43.6641 191.506 43.5234C191.365 43.3828 191.295 43.207 191.295 42.9961ZM197.148 51.1172C196.68 51.1172 196.256 51.041 195.877 50.8887C195.502 50.7324 195.182 50.5156 194.916 50.2383C194.654 49.9609 194.453 49.6348 194.312 49.2598C194.172 48.8848 194.102 48.4805 194.102 48.0469V47.8125C194.102 47.3164 194.174 46.8672 194.318 46.4648C194.463 46.0625 194.664 45.7188 194.922 45.4336C195.18 45.1445 195.484 44.9238 195.836 44.7715C196.188 44.6191 196.568 44.543 196.979 44.543C197.432 44.543 197.828 44.6191 198.168 44.7715C198.508 44.9238 198.789 45.1387 199.012 45.416C199.238 45.6895 199.406 46.0156 199.516 46.3945C199.629 46.7734 199.686 47.1914 199.686 47.6484V48.252H194.787V47.2383H198.291V47.127C198.283 46.873 198.232 46.6348 198.139 46.4121C198.049 46.1895 197.91 46.0098 197.723 45.873C197.535 45.7363 197.285 45.668 196.973 45.668C196.738 45.668 196.529 45.7188 196.346 45.8203C196.166 45.918 196.016 46.0605 195.895 46.248C195.773 46.4355 195.68 46.6621 195.613 46.9277C195.551 47.1895 195.52 47.4844 195.52 47.8125V48.0469C195.52 48.3242 195.557 48.582 195.631 48.8203C195.709 49.0547 195.822 49.2598 195.971 49.4355C196.119 49.6113 196.299 49.75 196.51 49.8516C196.721 49.9492 196.961 49.998 197.23 49.998C197.57 49.998 197.873 49.9297 198.139 49.793C198.404 49.6562 198.635 49.4629 198.83 49.2129L199.574 49.9336C199.438 50.1328 199.26 50.3242 199.041 50.5078C198.822 50.6875 198.555 50.834 198.238 50.9473C197.926 51.0605 197.562 51.1172 197.148 51.1172ZM202.51 49.5938L203.975 44.6602H204.877L204.631 46.1367L203.154 51H202.346L202.51 49.5938ZM201.648 44.6602L202.791 49.6172L202.885 51H201.982L200.266 44.6602H201.648ZM206.248 49.5586L207.355 44.6602H208.732L207.021 51H206.119L206.248 49.5586ZM205.029 44.6602L206.477 49.5352L206.658 51H205.85L204.355 46.1309L204.109 44.6602H205.029Z" fill="#1B1816"/>
<circle cx="315" cy="17.5" r="16" stroke="#CCCCCC" stroke-width="3"/>
<path d="M313.386 16.811H314.477C314.863 16.811 315.18 16.7451 315.429 16.6133C315.683 16.4766 315.871 16.291 315.993 16.0566C316.12 15.8174 316.184 15.5415 316.184 15.229C316.184 14.9214 316.127 14.6553 316.015 14.4307C315.903 14.2012 315.732 14.0254 315.502 13.9033C315.278 13.7764 314.99 13.7129 314.638 13.7129C314.355 13.7129 314.094 13.769 313.854 13.8813C313.62 13.9937 313.432 14.1548 313.291 14.3647C313.154 14.5698 313.085 14.8164 313.085 15.1045H311.145C311.145 14.5283 311.296 14.0229 311.599 13.5884C311.906 13.1489 312.321 12.8047 312.844 12.5557C313.366 12.3066 313.95 12.1821 314.594 12.1821C315.297 12.1821 315.913 12.2993 316.44 12.5337C316.972 12.7632 317.385 13.1025 317.678 13.5518C317.976 14.001 318.125 14.5576 318.125 15.2217C318.125 15.5391 318.049 15.8564 317.897 16.1738C317.751 16.4863 317.534 16.7695 317.246 17.0234C316.962 17.2725 316.613 17.4751 316.198 17.6313C315.788 17.7827 315.317 17.8584 314.785 17.8584H313.386V16.811ZM313.386 18.3052V17.2725H314.785C315.385 17.2725 315.905 17.3433 316.345 17.4849C316.789 17.6216 317.155 17.8169 317.443 18.0708C317.731 18.3198 317.944 18.6104 318.081 18.9424C318.222 19.2744 318.293 19.6309 318.293 20.0117C318.293 20.5098 318.2 20.9541 318.015 21.3447C317.829 21.7305 317.568 22.0576 317.231 22.3262C316.899 22.5947 316.508 22.7998 316.059 22.9414C315.61 23.0781 315.124 23.1465 314.602 23.1465C314.147 23.1465 313.706 23.0854 313.276 22.9634C312.851 22.8364 312.468 22.6484 312.126 22.3994C311.784 22.1455 311.513 21.8281 311.313 21.4473C311.113 21.0615 311.013 20.6147 311.013 20.1069H312.954C312.954 20.3999 313.024 20.6611 313.166 20.8906C313.312 21.1201 313.513 21.3008 313.767 21.4326C314.025 21.5596 314.316 21.623 314.638 21.623C314.995 21.623 315.3 21.5596 315.554 21.4326C315.812 21.3008 316.01 21.1152 316.147 20.876C316.284 20.6318 316.352 20.3413 316.352 20.0044C316.352 19.604 316.276 19.2793 316.125 19.0303C315.974 18.7812 315.756 18.5981 315.473 18.481C315.195 18.3638 314.863 18.3052 314.477 18.3052H313.386Z" fill="#CCCCCC"/>
<path d="M298.916 42.4688H301.934C302.582 42.4688 303.135 42.5664 303.592 42.7617C304.049 42.957 304.398 43.2461 304.641 43.6289C304.887 44.0078 305.01 44.4766 305.01 45.0352C305.01 45.4609 304.932 45.8359 304.775 46.1602C304.619 46.4844 304.398 46.7578 304.113 46.9805C303.828 47.1992 303.488 47.3691 303.094 47.4902L302.648 47.707H299.936L299.924 46.541H301.957C302.309 46.541 302.602 46.4785 302.836 46.3535C303.07 46.2285 303.246 46.0586 303.363 45.8438C303.484 45.625 303.545 45.3789 303.545 45.1055C303.545 44.8086 303.486 44.5508 303.369 44.332C303.256 44.1094 303.08 43.9395 302.842 43.8223C302.604 43.7012 302.301 43.6406 301.934 43.6406H300.387V51H298.916V42.4688ZM303.785 51L301.781 47.168L303.322 47.1621L305.355 50.9238V51H303.785ZM309.129 51.1172C308.66 51.1172 308.236 51.041 307.857 50.8887C307.482 50.7324 307.162 50.5156 306.896 50.2383C306.635 49.9609 306.434 49.6348 306.293 49.2598C306.152 48.8848 306.082 48.4805 306.082 48.0469V47.8125C306.082 47.3164 306.154 46.8672 306.299 46.4648C306.443 46.0625 306.645 45.7188 306.902 45.4336C307.16 45.1445 307.465 44.9238 307.816 44.7715C308.168 44.6191 308.549 44.543 308.959 44.543C309.412 44.543 309.809 44.6191 310.148 44.7715C310.488 44.9238 310.77 45.1387 310.992 45.416C311.219 45.6895 311.387 46.0156 311.496 46.3945C311.609 46.7734 311.666 47.1914 311.666 47.6484V48.252H306.768V47.2383H310.271V47.127C310.264 46.873 310.213 46.6348 310.119 46.4121C310.029 46.1895 309.891 46.0098 309.703 45.873C309.516 45.7363 309.266 45.668 308.953 45.668C308.719 45.668 308.51 45.7188 308.326 45.8203C308.146 45.918 307.996 46.0605 307.875 46.248C307.754 46.4355 307.66 46.6621 307.594 46.9277C307.531 47.1895 307.5 47.4844 307.5 47.8125V48.0469C307.5 48.3242 307.537 48.582 307.611 48.8203C307.689 49.0547 307.803 49.2598 307.951 49.4355C308.1 49.6113 308.279 49.75 308.49 49.8516C308.701 49.9492 308.941 49.998 309.211 49.998C309.551 49.998 309.854 49.9297 310.119 49.793C310.385 49.6562 310.615 49.4629 310.811 49.2129L311.555 49.9336C311.418 50.1328 311.24 50.3242 311.021 50.5078C310.803 50.6875 310.535 50.834 310.219 50.9473C309.906 51.0605 309.543 51.1172 309.129 51.1172ZM316.324 49.2832C316.324 49.1426 316.289 49.0156 316.219 48.9023C316.148 48.7852 316.014 48.6797 315.814 48.5859C315.619 48.4922 315.33 48.4062 314.947 48.3281C314.611 48.2539 314.303 48.166 314.021 48.0645C313.744 47.959 313.506 47.832 313.307 47.6836C313.107 47.5352 312.953 47.3594 312.844 47.1562C312.734 46.9531 312.68 46.7188 312.68 46.4531C312.68 46.1953 312.736 45.9512 312.85 45.7207C312.963 45.4902 313.125 45.2871 313.336 45.1113C313.547 44.9355 313.803 44.7969 314.104 44.6953C314.408 44.5938 314.748 44.543 315.123 44.543C315.654 44.543 316.109 44.6328 316.488 44.8125C316.871 44.9883 317.164 45.2285 317.367 45.5332C317.57 45.834 317.672 46.1738 317.672 46.5527H316.26C316.26 46.3848 316.217 46.2285 316.131 46.084C316.049 45.9355 315.924 45.8164 315.756 45.7266C315.588 45.6328 315.377 45.5859 315.123 45.5859C314.881 45.5859 314.68 45.625 314.52 45.7031C314.363 45.7773 314.246 45.875 314.168 45.9961C314.094 46.1172 314.057 46.25 314.057 46.3945C314.057 46.5 314.076 46.5957 314.115 46.6816C314.158 46.7637 314.229 46.8398 314.326 46.9102C314.424 46.9766 314.557 47.0391 314.725 47.0977C314.896 47.1562 315.111 47.2129 315.369 47.2676C315.854 47.3691 316.27 47.5 316.617 47.6602C316.969 47.8164 317.238 48.0195 317.426 48.2695C317.613 48.5156 317.707 48.8281 317.707 49.207C317.707 49.4883 317.646 49.7461 317.525 49.9805C317.408 50.2109 317.236 50.4121 317.01 50.584C316.783 50.752 316.512 50.8828 316.195 50.9766C315.883 51.0703 315.531 51.1172 315.141 51.1172C314.566 51.1172 314.08 51.0156 313.682 50.8125C313.283 50.6055 312.98 50.3418 312.773 50.0215C312.57 49.6973 312.469 49.3613 312.469 49.0137H313.834C313.85 49.2754 313.922 49.4844 314.051 49.6406C314.184 49.793 314.348 49.9043 314.543 49.9746C314.742 50.041 314.947 50.0742 315.158 50.0742C315.412 50.0742 315.625 50.041 315.797 49.9746C315.969 49.9043 316.1 49.8105 316.189 49.6934C316.279 49.5723 316.324 49.4355 316.324 49.2832ZM322.758 49.5059V44.6602H324.176V51H322.84L322.758 49.5059ZM322.957 48.1875L323.432 48.1758C323.432 48.6016 323.385 48.9941 323.291 49.3535C323.197 49.709 323.053 50.0195 322.857 50.2852C322.662 50.5469 322.412 50.752 322.107 50.9004C321.803 51.0449 321.438 51.1172 321.012 51.1172C320.703 51.1172 320.42 51.0723 320.162 50.9824C319.904 50.8926 319.682 50.7539 319.494 50.5664C319.311 50.3789 319.168 50.1348 319.066 49.834C318.965 49.5332 318.914 49.1738 318.914 48.7559V44.6602H320.326V48.7676C320.326 48.998 320.354 49.1914 320.408 49.3477C320.463 49.5 320.537 49.623 320.631 49.7168C320.725 49.8105 320.834 49.877 320.959 49.916C321.084 49.9551 321.217 49.9746 321.357 49.9746C321.76 49.9746 322.076 49.8965 322.307 49.7402C322.541 49.5801 322.707 49.3652 322.805 49.0957C322.906 48.8262 322.957 48.5234 322.957 48.1875ZM327.135 42V51H325.717V42H327.135ZM331.588 44.6602V45.6914H328.014V44.6602H331.588ZM329.045 43.1074H330.457V49.248C330.457 49.4434 330.484 49.5938 330.539 49.6992C330.598 49.8008 330.678 49.8691 330.779 49.9043C330.881 49.9395 331 49.957 331.137 49.957C331.234 49.957 331.328 49.9512 331.418 49.9395C331.508 49.9277 331.58 49.916 331.635 49.9043L331.641 50.9824C331.523 51.0176 331.387 51.0488 331.23 51.0762C331.078 51.1035 330.902 51.1172 330.703 51.1172C330.379 51.1172 330.092 51.0605 329.842 50.9473C329.592 50.8301 329.396 50.6406 329.256 50.3789C329.115 50.1172 329.045 49.7695 329.045 49.3359V43.1074Z" fill="#B7B7B7"/>
</svg>
